<svg xmlns="http://www.w3.org/2000/svg" viewBox="0 0 1280 371"><defs><style>.cls-1{fill:#8fc41f;}.cls-2{fill:#fff;}.cls-3,.cls-4{fill:none;stroke:#fff;stroke-linecap:round;stroke-linejoin:round;}.cls-3{stroke-width:0.4px;}.cls-4{stroke-width:3.5px;}</style></defs><title>headerit_top_pc</title><g id="レイヤー_2" data-name="レイヤー 2"><g id="bg"><rect class="cls-1" width="1280" height="371"/></g><g id="content"><path class="cls-2" d="M916.66,120.71H878a5.33,5.33,0,0,0-2,1.1l-5.88,4.58a4.14,4.14,0,0,0-1.41,2.88v9.35c0,1,.63,1.29,1.41.69l8.57-6.68a6.08,6.08,0,0,1,3.2-1.1H895c1,0,1.15.49.38,1.1l-7.42,5.77a2.42,2.42,0,0,1-2.82,0l-2.66-2.07a2.33,2.33,0,0,0-2.79,0l-5.28,4.37a1.38,1.38,0,0,0,0,2.24l2.39,1.86a1.33,1.33,0,0,1,0,2.19l-6.76,5.26a4.14,4.14,0,0,0-1.41,2.88v9.35c0,1,.63,1.29,1.41.69l55.74-43.43c.78-.6.61-1.1-.38-1.1Z"/><path class="cls-2" d="M850,146.31a2.11,2.11,0,0,0,1.77-2V137a1.52,1.52,0,0,0-1.77-1.54l-24.36,3.35a1.52,1.52,0,0,1-1.77-1.54V122.5a1.79,1.79,0,0,0-1.79-1.79H810.36a1.79,1.79,0,0,0-1.79,1.79v61.22a1.79,1.79,0,0,0,1.79,1.79H850a1.79,1.79,0,0,0,1.79-1.79v-7.25a1.79,1.79,0,0,0-1.79-1.79H825.69a1.79,1.79,0,0,1-1.79-1.79v-21.2a2.11,2.11,0,0,1,1.77-2Z"/><path class="cls-2" d="M694.88,154l-13.23-11.24a1.19,1.19,0,0,1,.77-2.1h27.81a1.19,1.19,0,0,1,.77,2.1L697.77,154a2.23,2.23,0,0,1-2.89,0m47.63-15.12v-7.25a1.79,1.79,0,0,0-1.79-1.79h-35A1.79,1.79,0,0,1,704,128V122.5a1.79,1.79,0,0,0-1.79-1.79H690.41a1.79,1.79,0,0,0-1.79,1.79V128a1.79,1.79,0,0,1-1.79,1.79H651.93a1.79,1.79,0,0,0-1.79,1.79v7.25a1.79,1.79,0,0,0,1.79,1.79h5.41a1.49,1.49,0,0,1,1,.35l25.79,21.87a1.79,1.79,0,0,1,0,2.72l-19.74,16.76a1.79,1.79,0,0,0,1.16,3.15h15.81a1.49,1.49,0,0,0,1-.35l12.88-10.92a1.79,1.79,0,0,1,2.31,0l12.88,10.92a1.48,1.48,0,0,0,1,.35h15.81a1.79,1.79,0,0,0,1.16-3.15l-19.74-16.76a1.79,1.79,0,0,1,0-2.72L734.34,141a1.49,1.49,0,0,1,1-.35h5.41a1.79,1.79,0,0,0,1.79-1.79"/><path class="cls-2" d="M882.91,162.67a1.79,1.79,0,0,0-1.79,1.79v7.25a1.79,1.79,0,0,0,1.79,1.79h22.51a1.79,1.79,0,0,1,1.79,1.79v8.43A1.79,1.79,0,0,0,909,185.5h11.76a1.79,1.79,0,0,0,1.79-1.79v-8.43a1.79,1.79,0,0,1,1.79-1.79h22.51a1.79,1.79,0,0,0,1.79-1.79v-7.25a1.79,1.79,0,0,0-1.79-1.79Z"/><rect class="cls-2" x="900.03" y="147.01" width="29.69" height="10.82" rx="1.79" ry="1.79"/><rect class="cls-2" x="875.87" y="178.32" width="20.58" height="7.18" rx="1.79" ry="1.79"/><rect class="cls-2" x="933.29" y="178.32" width="20.58" height="7.18" rx="1.79" ry="1.79"/><path class="cls-2" d="M791.72,120.73a1.22,1.22,0,0,1,1.47,1.24v8a1.85,1.85,0,0,1-1.46,1.75l-6.48,1.17a1.84,1.84,0,0,0-1.46,1.75l.21,38.51a1.5,1.5,0,0,0,1.5,1.49h3.16a1.49,1.49,0,0,1,1.49,1.49V184a1.49,1.49,0,0,1-1.49,1.49H763.89A1.49,1.49,0,0,1,762.4,184v-7.85a1.49,1.49,0,0,1,1.49-1.49H767a1.49,1.49,0,0,0,1.48-1.49l-.1-35.75a1.23,1.23,0,0,0-1.47-1.24l-6.08,1a1.2,1.2,0,0,1-1.45-1.24l.1-8.24a1.86,1.86,0,0,1,1.48-1.74Z"/><path class="cls-2" d="M937.83,135.37l-2.3-1.79a.74.74,0,0,1,0-1.19l1-.71a.73.73,0,0,1,.44-.15h3.81a1.19,1.19,0,0,1,.73,2.13l-2.19,1.71a1.19,1.19,0,0,1-1.46,0m21.39-14.66H935.45a1.79,1.79,0,0,0-1.09.37l-14,10.76a1.79,1.79,0,0,0,0,2.83l37.76,29.42a1.79,1.79,0,0,0,2.88-1.41v-8.4a1.79,1.79,0,0,0-.69-1.41l-11.61-9a1.79,1.79,0,0,1,0-2.82l11.6-8.94a1.79,1.79,0,0,0,.69-1.42V122.5a1.79,1.79,0,0,0-1.79-1.79"/><path class="cls-2" d="M351.35,120.73a1.22,1.22,0,0,1,1.47,1.24v8a1.85,1.85,0,0,1-1.46,1.75l-6.48,1.17a1.84,1.84,0,0,0-1.46,1.75l.21,38.51a1.5,1.5,0,0,0,1.5,1.49h3.16a1.49,1.49,0,0,1,1.49,1.49V184a1.49,1.49,0,0,1-1.49,1.49H323.52A1.49,1.49,0,0,1,322,184v-7.85a1.49,1.49,0,0,1,1.49-1.49h3.09a1.49,1.49,0,0,0,1.48-1.49l-.1-35.75a1.23,1.23,0,0,0-1.47-1.24l-6.08,1A1.2,1.2,0,0,1,319,136l.1-8.24a1.86,1.86,0,0,1,1.48-1.74Z"/><path class="cls-2" d="M396.67,121.42a1.49,1.49,0,0,1,1.49,1.49v7.85a1.49,1.49,0,0,1-1.49,1.49h-3.1a1.49,1.49,0,0,0-1.49,1.49v39.45a1.49,1.49,0,0,0,1.49,1.49h6.25a1.49,1.49,0,0,0,1.49-1.49V161.24a1.49,1.49,0,0,1,1.49-1.49h7.15a1.49,1.49,0,0,1,1.49,1.49V184a1.49,1.49,0,0,1-1.49,1.49H358.81a1.49,1.49,0,0,1-1.49-1.49V161.24a1.49,1.49,0,0,1,1.49-1.49h7.28a1.49,1.49,0,0,1,1.49,1.49v11.95a1.49,1.49,0,0,0,1.49,1.49h6a1.49,1.49,0,0,0,1.49-1.49V133.74a1.49,1.49,0,0,0-1.49-1.49l-3-.26a1.49,1.49,0,0,1-1.49-1.49v-7.85a1.49,1.49,0,0,1,1.49-1.49Z"/><path class="cls-2" d="M507.68,131.51h-9.94a1.79,1.79,0,0,0-1.49,2.78l3.3,4.95a1.79,1.79,0,0,1-1.49,2.78H456.61a1.79,1.79,0,0,1-1.07-3.21l5.47-4.11v-10.4a1.79,1.79,0,0,0-2.86-1.43L434.26,140.8a1.79,1.79,0,0,0-.71,1.43V151a1.79,1.79,0,0,0,1.79,1.79h78.35a1.79,1.79,0,0,0,1.79-1.79v-8.51a1.8,1.8,0,0,0-.29-1l-6-9.25a1.79,1.79,0,0,0-1.5-.81"/><path class="cls-2" d="M563.85,131.54a1.79,1.79,0,0,0,1.79-1.79V122.5a1.79,1.79,0,0,0-1.79-1.79H539.37a1.79,1.79,0,0,0-1.79,1.79v7.25a1.79,1.79,0,0,0,1.79,1.79h2.79a1.79,1.79,0,0,1,1.79,1.79v39.57a1.79,1.79,0,0,1-1.79,1.79h-2.79a1.79,1.79,0,0,0-1.79,1.79v7.25a1.79,1.79,0,0,0,1.79,1.79h24.48a1.79,1.79,0,0,0,1.79-1.79v-7.25a1.79,1.79,0,0,0-1.79-1.79h-2.79a1.79,1.79,0,0,1-1.79-1.79V133.32a1.79,1.79,0,0,1,1.79-1.79Z"/><path class="cls-2" d="M500.14,172.89a1.79,1.79,0,0,1-1.79,1.79h-47.7a1.79,1.79,0,0,1-1.79-1.79v-2.22a1.79,1.79,0,0,1,1.79-1.79h47.7a1.79,1.79,0,0,1,1.79,1.79Zm-64.81-14.83a1.79,1.79,0,0,0-1.79,1.79v23.87a1.79,1.79,0,0,0,1.79,1.79h78.36a1.79,1.79,0,0,0,1.79-1.79V159.84a1.79,1.79,0,0,0-1.79-1.79Z"/><path class="cls-2" d="M590.67,185.24a1.49,1.49,0,0,1-1.49-1.49V175.9a1.49,1.49,0,0,1,1.49-1.49h3.1a1.49,1.49,0,0,0,1.49-1.49V133.47a1.49,1.49,0,0,0-1.49-1.49h-6.25a1.49,1.49,0,0,0-1.49,1.49v11.95a1.49,1.49,0,0,1-1.49,1.49H577.4a1.49,1.49,0,0,1-1.49-1.49V122.65a1.49,1.49,0,0,1,1.49-1.49h51.13a1.49,1.49,0,0,1,1.49,1.49v22.77a1.49,1.49,0,0,1-1.49,1.49h-7.28a1.49,1.49,0,0,1-1.49-1.49V133.47a1.49,1.49,0,0,0-1.49-1.49h-6a1.49,1.49,0,0,0-1.49,1.49v39.45a1.49,1.49,0,0,0,1.49,1.49l3,.26a1.49,1.49,0,0,1,1.49,1.49V184a1.49,1.49,0,0,1-1.49,1.49Z"/><path class="cls-2" d="M363.74,300a8.64,8.64,0,1,1,8.74-8.64c0,2.85-1.41,4.69-3.6,4.69a2.8,2.8,0,0,1-2.62-1.38l-.11,0s-.06,0-.07,0c-.32.62-1.07,1.35-2.87,1.35a3,3,0,0,1-3.13-2.12,10.7,10.7,0,0,1,0-4.91,2.93,2.93,0,0,1,3-2.11,2.67,2.67,0,0,1,2.34,1.09h.09c.08,0,.12,0,.12-.06v-.36a.44.44,0,0,1,.44-.44h.94a.44.44,0,0,1,.44.44v5.19c0,1.53,1.06,1.65,1.38,1.65,1.14,0,1.72-1,1.72-3,0-4.19-2.76-7-6.87-7s-6.86,2.75-6.86,7,2.69,7,6.86,7a10.52,10.52,0,0,0,4.54-.89.44.44,0,0,1,.58.23l.29.67a.44.44,0,0,1-.21.56A11.08,11.08,0,0,1,363.74,300Zm0-11.45a1.79,1.79,0,0,0-1.85,1.31,4.93,4.93,0,0,0-.16,1.59,5.21,5.21,0,0,0,.16,1.61,1.78,1.78,0,0,0,1.85,1.29,1.75,1.75,0,0,0,1.83-1.29,5.22,5.22,0,0,0,.16-1.61,4.92,4.92,0,0,0-.16-1.59A1.74,1.74,0,0,0,363.7,288.55Z"/><path class="cls-2" d="M384.57,297.84a.44.44,0,0,1-.44-.44v-4l-.09-.09a18.27,18.27,0,0,1-5.39,4.13.44.44,0,0,1-.5-.07l-.79-.73a.44.44,0,0,1,.13-.73,13.69,13.69,0,0,0,5.08-3.7l-.06-.15h-3a.44.44,0,0,1-.44-.44v-5.34a.44.44,0,0,1,.44-.44H384a.09.09,0,0,0,.09-.09v-1a.09.09,0,0,0-.09-.09H377.5a.44.44,0,0,1-.44-.44v-.79a.44.44,0,0,1,.44-.44H384a.09.09,0,0,0,.09-.09v-1a.44.44,0,0,1,.44-.44l1.3.08a.44.44,0,0,1,.4.52v.88a.09.09,0,0,0,.09.09h6.55a.44.44,0,0,1,.44.44v.79a.44.44,0,0,1-.44.44h-6.55a.09.09,0,0,0-.09.09v1a.09.09,0,0,0,.09.09h4.59a.44.44,0,0,1,.44.44v5.34a.44.44,0,0,1-.44.44h-3.24l-.38.45.31-.3a16.41,16.41,0,0,0,5.13,3.49.44.44,0,0,1,.13.69l-.78.85a.44.44,0,0,1-.52.09,16.47,16.47,0,0,1-5.18-3.93l-.15.06v4a.44.44,0,0,1-.44.44Zm1.78-8.31a.09.09,0,0,0-.09.09v.93a.09.09,0,0,0,.09.09h2.89a.09.09,0,0,0,.09-.09v-.93a.09.09,0,0,0-.09-.09Zm-5.16,0a.09.09,0,0,0-.09.09v.93a.09.09,0,0,0,.09.09H384a.09.09,0,0,0,.09-.09v-.93a.09.09,0,0,0-.09-.09Zm5.16-2.44a.09.09,0,0,0-.09.09v.89a.09.09,0,0,0,.09.09h2.89a.09.09,0,0,0,.09-.09v-.89a.09.09,0,0,0-.09-.09Zm-5.16,0a.09.09,0,0,0-.09.09v.89a.09.09,0,0,0,.09.09H384a.09.09,0,0,0,.09-.09v-.89a.09.09,0,0,0-.09-.09Z"/><path class="cls-2" d="M403.49,297.72a.44.44,0,0,1-.44-.44v-2.92l-.09-.09c-1,.33-2.84.92-3,1a5.13,5.13,0,0,0-1,.31.44.44,0,0,1-.64-.27l-.34-1.29a.44.44,0,0,1,.34-.54c1.13-.22,2.86-.6,4.71-1.14a.09.09,0,0,0,.06-.08v-4.71a.09.09,0,0,0-.09-.09h-4.46a.44.44,0,0,1-.44-.44v-1.26a.44.44,0,0,1,.44-.44H403a.09.09,0,0,0,.09-.09v-3.39a.44.44,0,0,1,.44-.44l1.31.1a.44.44,0,0,1,.38.58.4.4,0,0,0,0,.13v15.1a.44.44,0,0,1-.44.44Zm5.54-.31a1.63,1.63,0,0,1-1.85-1.85V281.87a.44.44,0,0,1,.44-.44l1.22.07a.44.44,0,0,1,.36.65.3.3,0,0,0,0,.15v5.06l.09.09a18.36,18.36,0,0,0,3.27-3.08.44.44,0,0,1,.61-.07l1.08.84a.44.44,0,0,1,0,.71,13.08,13.08,0,0,0-1.35,1.25,40.63,40.63,0,0,1-3.63,3l0,4.53c0,.68.28,1,.9,1h1.41c.74,0,1.1-.44,1.33-1.63a.44.44,0,0,1,.63-.31l.87.43a.44.44,0,0,1,.24.43c-.25,2.5-1.32,2.87-1.94,2.87Z"/><path class="cls-2" d="M420.57,298a.44.44,0,0,1-.29-.11l-1-.92a.44.44,0,0,1,.11-.72c3.69-1.67,5.52-4,6.55-8.19l-.08-.11h-6.2a.44.44,0,0,1-.44-.44v-1a.44.44,0,0,1,.44-.44h6.43a.09.09,0,0,0,.09-.08c.05-.57.08-1.29.08-2.14s0-1.5,0-2a.44.44,0,0,1,.44-.46l1.53.08a.44.44,0,0,1,.38.62l0,.21a7.4,7.4,0,0,0,0,1c0,.17,0,1.82-.08,2.73l.09.09h6.76a.44.44,0,0,1,.44.44v1a.44.44,0,0,1-.44.44h-6.57l-.5.25.42-.13c1.1,3.47,2.46,5.64,6.8,7.88a.44.44,0,0,1,.1.71l-1.15,1.07a.44.44,0,0,1-.53.05c-3.73-2.33-5-4.1-6.25-6.94h-.16c-1.74,3.66-3.48,5.52-6.63,7.12A.44.44,0,0,1,420.57,298Z"/><path class="cls-2" d="M446.61,298.11a.44.44,0,0,1-.4-.27l-.39-.93a.44.44,0,0,1,.4-.61h0l.7,0c.33,0,.55-.27.55-.67v-2.1a.09.09,0,0,0-.09-.09h-6.16a.44.44,0,0,1-.44-.44v-.85a.44.44,0,0,1,.44-.44h6.16a.09.09,0,0,0,.09-.09v-.58a.44.44,0,0,1,.44-.44H448l.32.05a3.18,3.18,0,0,0,.82-.85l-.07-.14h-4.65a.44.44,0,0,1-.44-.44v-.75a.44.44,0,0,1,.44-.44h8a.44.44,0,0,1,.37.2l.15.23a.44.44,0,0,1-.08.56c-.8.7-2.12,1.79-3.11,2.51a.09.09,0,0,0,.05.16h6a.44.44,0,0,1,.44.44v.85a.44.44,0,0,1-.44.44h-6a.09.09,0,0,0-.09.09v2.93c0,1.07-.73,1.6-2.22,1.6Zm-5.35-8.64a.44.44,0,0,1-.44-.44v-3.17a.44.44,0,0,1,.44-.44h9.09a15.16,15.16,0,0,0,2.25-3.28.44.44,0,0,1,.39-.25l.14,0,.94.31a.44.44,0,0,1,.18.71,16.58,16.58,0,0,1-1.52,2.33l.07.14h3.12a.44.44,0,0,1,.44.44v3.08a.44.44,0,0,1-.44.44h-1.08a.44.44,0,0,1-.44-.44v-1.8a.09.09,0,0,0-.09-.09H442.83a.09.09,0,0,0-.09.09V289a.44.44,0,0,1-.44.44Zm2.65-4.62h-.11a.44.44,0,0,1-.27-.22,11.39,11.39,0,0,0-1.05-1.63.44.44,0,0,1,.12-.64l.89-.54a.44.44,0,0,1,.56.09,11.43,11.43,0,0,1,1.18,1.7.44.44,0,0,1-.15.59l-.94.59A.43.43,0,0,1,443.91,284.84Zm4.42-.35-.13,0a.44.44,0,0,1-.26-.21,12.85,12.85,0,0,0-1.2-1.87.44.44,0,0,1,.12-.64l.86-.51a.44.44,0,0,1,.56.1,13,13,0,0,1,1.35,2,.44.44,0,0,1-.18.6l-.93.49A.44.44,0,0,1,448.33,284.49Z"/><path class="cls-2" d="M463,297.75l-.14,0-1.26-.41a.44.44,0,0,1-.23-.65,11.47,11.47,0,0,0,1.74-6.46v-8a.44.44,0,0,1,.44-.44l1.38,0a.44.44,0,0,1,.39.62.41.41,0,0,0,0,.17v7a18.51,18.51,0,0,1-.69,5.27,10.42,10.42,0,0,1-1.21,2.7A.44.44,0,0,1,463,297.75Zm11.55-.07a.44.44,0,0,1-.44-.44V281.88a.44.44,0,0,1,.44-.44l1.25.09a.44.44,0,0,1,.37.61.34.34,0,0,0,0,.14v15a.44.44,0,0,1-.44.44Zm-5.5-1.67a.44.44,0,0,1-.44-.44V283.07a.44.44,0,0,1,.44-.44l1.33.1a.44.44,0,0,1,.38.59.31.31,0,0,0,0,.11v12.15a.44.44,0,0,1-.44.44Z"/><path class="cls-2" d="M494.67,297.84a.44.44,0,0,1-.41-.29l-.4-1.11a.44.44,0,0,1,.41-.58h.55c.77,0,1-.17,1-.71v-8.61a.09.09,0,0,0-.09-.09h-4.63l-.51.2.43-.1a7.71,7.71,0,0,0,3.93,5.5.44.44,0,0,1,.08.7l-.86.79a.44.44,0,0,1-.53,0,8.93,8.93,0,0,1-3.5-4H490a12.19,12.19,0,0,1-3.4,4.07.44.44,0,0,1-.57,0l-.89-.81a.44.44,0,0,1,0-.69,7.87,7.87,0,0,0,3.66-5.63l-.09-.1H484.5a.09.09,0,0,0-.09.09v10.64a.44.44,0,0,1-.44.44h-1.14a.44.44,0,0,1-.44-.44V285a.44.44,0,0,1,.44-.44h6.08a.09.09,0,0,0,.09-.09c0-1.46,0-2.08,0-2.56a.44.44,0,0,1,.44-.46l1.33,0a.44.44,0,0,1,.38.62.4.4,0,0,0,0,.17.44.44,0,0,1,0,.07c0,.1,0,.49,0,2.1a.09.09,0,0,0,.09.09h6.2a.44.44,0,0,1,.44.44v11c0,1.52-.58,1.88-3.1,1.91Z"/><path class="cls-2" d="M504.46,297.86a.44.44,0,0,1-.44-.44V286.75a.44.44,0,0,1,.44-.44H510a.09.09,0,0,0,.09-.09v-1.59a.09.09,0,0,0-.09-.09h-6.55a.44.44,0,0,1-.44-.44v-.81a.44.44,0,0,1,.44-.44H510a.09.09,0,0,0,.09-.09v-1a.44.44,0,0,1,.44-.44l1.37.1a.44.44,0,0,1,.41.44v.91a.09.09,0,0,0,.09.09H519a.44.44,0,0,1,.44.44v.81a.44.44,0,0,1-.44.44h-6.65a.09.09,0,0,0-.09.09v1.59a.09.09,0,0,0,.09.09H518a.44.44,0,0,1,.44.44v9c0,1.61-.55,2-2.82,2h0a.44.44,0,0,1-.41-.28l-.39-1a.44.44,0,0,1,.41-.59h.28c.89,0,1-.38,1-.73V288a.09.09,0,0,0-.09-.09h-3a.49.49,0,0,1-.19.1.43.43,0,0,1,.14.06l.67.21a.44.44,0,0,1,.28.57,8.73,8.73,0,0,1-.34.82l.08.13h.68a.44.44,0,0,1,.44.44v.63a.44.44,0,0,1-.44.44h-2.36a.09.09,0,0,0-.09.09v1.19a.09.09,0,0,0,.09.09h2.81a.44.44,0,0,1,.44.44v.54a.44.44,0,0,1-.44.44h-2.81a.09.09,0,0,0-.09.09v2.81a.44.44,0,0,1-.44.44h-1.24a.44.44,0,0,1-.44-.44v-2.81A.09.09,0,0,0,510,294h-2.75a.44.44,0,0,1-.44-.44v-.54a.44.44,0,0,1,.44-.44H510a.09.09,0,0,0,.09-.09v-1.19a.09.09,0,0,0-.09-.09H507.7a.44.44,0,0,1-.44-.44v-.63a.44.44,0,0,1,.44-.44h.7l.47-.32-.39.2-.48-.9a.44.44,0,0,1,.27-.62l.19-.06a.09.09,0,0,0,0-.17h-2.29a.09.09,0,0,0-.09.09v9.46a.44.44,0,0,1-.44.44Zm5-9.85a9.26,9.26,0,0,1,.51.92.44.44,0,0,1-.22.59l-.15.06a.09.09,0,0,0,0,.17H512a7.32,7.32,0,0,0,.67-1.49.44.44,0,0,1,.27-.27.41.41,0,0,1-.21-.09l-3.18,0Z"/><path class="cls-2" d="M532,297.59a.44.44,0,0,1-.43-.36l-1-5.65a.09.09,0,0,0-.09-.07l-5.79.75h-.06a.44.44,0,0,1-.43-.38l-.15-1.07a.44.44,0,0,1,.38-.49l5.7-.75.51-.18-.43.07-.43-2.5a.09.09,0,0,0-.09-.07l-4.18.55h-.06a.44.44,0,0,1-.43-.38l-.13-1a.44.44,0,0,1,.38-.49l4.11-.52.08-.1-.5-2.89a.44.44,0,0,1,.41-.51l1.21-.07a.44.44,0,0,1,.42.56l.46,2.63a.09.09,0,0,0,.09.07l3.72-.48h.06a.44.44,0,0,1,.43.38l.14,1a.44.44,0,0,1-.38.5l-3.64.47-.07.1.45,2.48a.09.09,0,0,0,.09.07l5.13-.67h.06a.44.44,0,0,1,.43.38l.14,1.09a.44.44,0,0,1-.38.49l-5,.65-.51.18.43-.08,1,5.52a.44.44,0,0,1-.35.51l-1.21.24Z"/><path class="cls-2" d="M548.35,297.74a.44.44,0,0,1-.43-.36l-1.24-6.94-.09-.07-3.13.65h-.09a.44.44,0,0,1-.41-.27l-.3-.75a.44.44,0,0,1,.32-.59l3.29-.64a.09.09,0,0,0,.07-.1l-.54-2.92a.44.44,0,0,1,.38-.51l1-.11a.44.44,0,0,1,.43.53l.52,2.66a.09.09,0,0,0,.08.07l4.55-.87a.89.89,0,0,0,.43-.22.44.44,0,0,1,.54,0l.8.58a.44.44,0,0,1,.12.58c-.74,1.23-1.36,2.3-2.37,4.07a.44.44,0,0,1-.38.22.43.43,0,0,1-.17,0l-.79-.34a.44.44,0,0,1-.21-.62c.14-.25.29-.5.63-1.06l.11-.18c.27-.45.34-.55.67-1.12l-.08-.13-3.54.72a.09.09,0,0,0-.07.1l1.36,6.91a.44.44,0,0,1-.33.51l-1,.24Z"/><path class="cls-2" d="M560.57,296.39a.46.46,0,0,1-.37-.2l-.84-1.44a.44.44,0,0,1,.27-.64,18.47,18.47,0,0,0,6.55-3.2,26.29,26.29,0,0,0,5.26-5.36.44.44,0,0,1,.35-.18h0a.44.44,0,0,1,.35.19l.7,1a.44.44,0,0,1,0,.51,26.58,26.58,0,0,1-4.58,4.8A25.8,25.8,0,0,1,561,296.2a.49.49,0,0,1-.38.19Zm1.94-10a.44.44,0,0,1-.27-.09,17.71,17.71,0,0,0-3-1.85.44.44,0,0,1-.18-.63l.61-.94a.44.44,0,0,1,.37-.2.43.43,0,0,1,.18,0,18.57,18.57,0,0,1,3.24,1.89.44.44,0,0,1,.1.6l-.68,1a.44.44,0,0,1-.29.18Z"/><path class="cls-2" d="M578.45,295.32a.44.44,0,0,1-.16,0l-1.39-.55a.44.44,0,0,1-.17-.69,21.33,21.33,0,0,0,4.36-9.48.44.44,0,0,1,.43-.35h.1l1.42.32a.44.44,0,0,1,.23.71,8.49,8.49,0,0,0-.36,1.19c-.07.26-.11.42-.13.49a25.58,25.58,0,0,1-4,8.2A.44.44,0,0,1,578.45,295.32Zm13-.71a.44.44,0,0,1-.42-.33,28.59,28.59,0,0,0-4-8.87.44.44,0,0,1,.14-.64l1.09-.62a.44.44,0,0,1,.57.12,35.76,35.76,0,0,1,4.49,9.11.44.44,0,0,1-.24.53l-1.42.65A.43.43,0,0,1,591.4,294.61Z"/><path class="cls-2" d="M599.21,296.4a.44.44,0,0,1-.31-.13l-.91-.94a.44.44,0,0,1,.13-.7,16.84,16.84,0,0,0,5.52-3.91,15.42,15.42,0,0,0,3.28-5.23.22.22,0,0,0,0-.13.27.27,0,0,0-.08-.08H600a.44.44,0,0,1-.44-.44v-1.2a.44.44,0,0,1,.44-.44h7.83a1.35,1.35,0,0,0,.7-.21.44.44,0,0,1,.54.09l.81.9a.44.44,0,0,1,0,.62,2.28,2.28,0,0,0-.64.87l0,.11A23,23,0,0,1,607,289.8a.09.09,0,0,0,0,.12,36.66,36.66,0,0,1,4.79,4.42.44.44,0,0,1,0,.6l-1,1a.44.44,0,0,1-.32.14h0a.44.44,0,0,1-.32-.16,29.58,29.58,0,0,0-4.36-4.4h-.12a18.36,18.36,0,0,1-6.26,4.79A.43.43,0,0,1,599.21,296.4Z"/><path class="cls-2" d="M620.84,296.22a.44.44,0,0,1-.3-.17,10.16,10.16,0,0,1-2.31-6.46,10.06,10.06,0,0,1,2.31-6.47.44.44,0,0,1,.3-.16h0a.44.44,0,0,1,.29.11l.32.28a.44.44,0,0,1,.06.6,9,9,0,0,0,0,11.28.44.44,0,0,1-.06.6l-.32.28a.44.44,0,0,1-.29.11Z"/><path class="cls-3" d="M620.84,296.22a.44.44,0,0,1-.3-.17,10.16,10.16,0,0,1-2.31-6.46,10.06,10.06,0,0,1,2.31-6.47.44.44,0,0,1,.3-.16h0a.44.44,0,0,1,.29.11l.32.28a.44.44,0,0,1,.06.6,9,9,0,0,0,0,11.28.44.44,0,0,1-.06.6l-.32.28a.44.44,0,0,1-.29.11Z"/><path class="cls-2" d="M629.27,295.51a3.75,3.75,0,0,1-3.86-2.73,15.86,15.86,0,0,1,0-6.11,3.76,3.76,0,0,1,3.86-2.73,4,4,0,0,1,3.59,2,.44.44,0,0,1-.19.6l-.77.37a.44.44,0,0,1-.57-.18,2.26,2.26,0,0,0-2.05-1.24,2.09,2.09,0,0,0-2.12,1.57,16.84,16.84,0,0,0,0,5.24,2.1,2.1,0,0,0,2.12,1.57,2.25,2.25,0,0,0,2.05-1.23.44.44,0,0,1,.57-.18l.77.37a.44.44,0,0,1,.19.6A3.94,3.94,0,0,1,629.27,295.51Z"/><path class="cls-3" d="M629.27,295.51a3.75,3.75,0,0,1-3.86-2.73,15.86,15.86,0,0,1,0-6.11,3.76,3.76,0,0,1,3.86-2.73,4,4,0,0,1,3.59,2,.44.44,0,0,1-.19.6l-.77.37a.44.44,0,0,1-.57-.18,2.26,2.26,0,0,0-2.05-1.24,2.09,2.09,0,0,0-2.12,1.57,16.84,16.84,0,0,0,0,5.24,2.1,2.1,0,0,0,2.12,1.57,2.25,2.25,0,0,0,2.05-1.23.44.44,0,0,1,.57-.18l.77.37a.44.44,0,0,1,.19.6A3.94,3.94,0,0,1,629.27,295.51Z"/><path class="cls-2" d="M639.68,295.46a.44.44,0,0,1-.44-.44v-8.6a.09.09,0,0,0-.09-.09l-1.18.78a.44.44,0,0,1-.69-.36V286a.44.44,0,0,1,.18-.35l1.72-1.25a.44.44,0,0,1,.26-.08h1.06a.44.44,0,0,1,.44.44V295a.44.44,0,0,1-.44.44Z"/><path class="cls-3" d="M639.68,295.46a.44.44,0,0,1-.44-.44v-8.6a.09.09,0,0,0-.09-.09l-1.18.78a.44.44,0,0,1-.69-.36V286a.44.44,0,0,1,.18-.35l1.72-1.25a.44.44,0,0,1,.26-.08h1.06a.44.44,0,0,1,.44.44V295a.44.44,0,0,1-.44.44Z"/><path class="cls-2" d="M648.88,295.46a.44.44,0,0,1-.38-.65l2.17-3.93a.09.09,0,0,0,0-.1.2.2,0,0,0-.12,0,2.26,2.26,0,0,1-.83.14,3.11,3.11,0,0,1-3.15-3.28,3.34,3.34,0,0,1,3.54-3.51,3.3,3.3,0,0,1,3.54,3.43,5.31,5.31,0,0,1-.74,2.57L650,295.24a.44.44,0,0,1-.38.23Zm1.21-9.88a1.9,1.9,0,1,0,1.83,1.9A1.76,1.76,0,0,0,650.09,285.58Z"/><path class="cls-3" d="M648.88,295.46a.44.44,0,0,1-.38-.65l2.17-3.93a.09.09,0,0,0,0-.1.2.2,0,0,0-.12,0,2.26,2.26,0,0,1-.83.14,3.11,3.11,0,0,1-3.15-3.28,3.34,3.34,0,0,1,3.54-3.51,3.3,3.3,0,0,1,3.54,3.43,5.31,5.31,0,0,1-.74,2.57L650,295.24a.44.44,0,0,1-.38.23Zm1.21-9.88a1.9,1.9,0,1,0,1.83,1.9A1.76,1.76,0,0,0,650.09,285.58Z"/><path class="cls-2" d="M657.91,296.22a.44.44,0,0,1-.29-.11l-.32-.28a.44.44,0,0,1-.06-.6,9,9,0,0,0,0-11.28.44.44,0,0,1,.06-.6l.32-.28a.44.44,0,0,1,.29-.11h0a.44.44,0,0,1,.3.17,10.17,10.17,0,0,1,2.31,6.46,10,10,0,0,1-2.31,6.47.43.43,0,0,1-.3.16Z"/><path class="cls-3" d="M657.91,296.22a.44.44,0,0,1-.29-.11l-.32-.28a.44.44,0,0,1-.06-.6,9,9,0,0,0,0-11.28.44.44,0,0,1,.06-.6l.32-.28a.44.44,0,0,1,.29-.11h0a.44.44,0,0,1,.3.17,10.17,10.17,0,0,1,2.31,6.46,10,10,0,0,1-2.31,6.47.43.43,0,0,1-.3.16Z"/><path class="cls-2" d="M674.81,298a.44.44,0,0,1-.32-.14l-.87-.94a.44.44,0,0,1,.22-.72A18.45,18.45,0,0,0,677,295.1a11.66,11.66,0,0,0,3.36-2.07l.33-.42-.32.29a17.82,17.82,0,0,1-2.87-4.17,18.78,18.78,0,0,1-1.29-3.09.09.09,0,0,0-.08-.06h-1.92a.44.44,0,0,1-.44-.44v-.95a.44.44,0,0,1,.44-.44h6.43a.09.09,0,0,0,.09-.09v-1.93a.44.44,0,0,1,.44-.44l1.45.11a.44.44,0,0,1,.37.62.28.28,0,0,0,0,.12v1.53a.09.09,0,0,0,.09.09h6.38a.44.44,0,0,1,.44.44v.95a.44.44,0,0,1-.44.44h-2.19a.08.08,0,0,0-.08.06,20.48,20.48,0,0,1-3.71,7.3v.13a14.24,14.24,0,0,0,5.75,2.73.44.44,0,0,1,.26.67l-.78,1.18a.44.44,0,0,1-.36.2l-.13,0a16.24,16.24,0,0,1-6.22-3.36h-.11a20.15,20.15,0,0,1-6.9,3.5Zm3.66-12.4a.09.09,0,0,0-.07,0,16.27,16.27,0,0,0,3.34,5.88l.47.28-.34-.28a15.2,15.2,0,0,0,2.81-5.81l-.08-.11Z"/><path class="cls-2" d="M708,297.76a.44.44,0,0,1-.44-.44v-4.11l-.09-.09-5.41,1.07H702a.44.44,0,0,1-.43-.34l-.23-1a.44.44,0,0,1,.34-.53l5.82-1.18a.09.09,0,0,0,.07-.09v-9.34a.44.44,0,0,1,.44-.44l1.22.08a.44.44,0,0,1,.36.63.23.23,0,0,0,0,.11v8.53l.09.09,1.21-.24H711a.44.44,0,0,1,.43.37l.17,1a.44.44,0,0,1-.35.5l-1.57.31a.09.09,0,0,0-.07.09v4.53a.44.44,0,0,1-.44.44Zm-9.9,0a.44.44,0,0,1-.44-.44V293a.09.09,0,0,0-.06-.08l-.1,0-.08.14a14.16,14.16,0,0,1-.83,1.3.44.44,0,0,1-.59.1l-1-.64a.44.44,0,0,1-.12-.61,14.92,14.92,0,0,0,2.46-5.17l-.08-.11h-2.17a.44.44,0,0,1-.44-.44v-1a.44.44,0,0,1,.44-.44h2.46a.09.09,0,0,0,.09-.09v-1.63l-.09-.09a19.61,19.61,0,0,1-2,.33h0a.44.44,0,0,1-.4-.26l-.36-.83a.44.44,0,0,1,.38-.61,14.11,14.11,0,0,0,5.46-1.44.44.44,0,0,1,.2,0,.44.44,0,0,1,.32.14l.72.77a.44.44,0,0,1-.26.73,1,1,0,0,0-.28.1c-.17.07-.65.27-1.48.54a.09.09,0,0,0-.06.08v2.21a.09.09,0,0,0,.09.09h2a.44.44,0,0,1,.44.44v1a.44.44,0,0,1-.44.44h-2a.09.09,0,0,0-.09.09v.23a7.15,7.15,0,0,0,2.34,2.28.44.44,0,0,1,.12.65l-.72.89a.44.44,0,0,1-.59.08,5.23,5.23,0,0,1-1-.92h0c-.09,0-.11,0-.11.06v6a.44.44,0,0,1-.44.44Zm7-7.46a.44.44,0,0,1-.3-.12,12,12,0,0,0-1.89-1.47.44.44,0,0,1-.11-.65l.69-.86a.44.44,0,0,1,.57-.1,12.45,12.45,0,0,1,2.09,1.62.44.44,0,0,1,0,.61l-.75.82a.44.44,0,0,1-.31.14Zm.49-3.95a.43.43,0,0,1-.3-.12,16.3,16.3,0,0,0-1.94-1.6.44.44,0,0,1-.08-.65l.75-.85a.44.44,0,0,1,.56-.08,10.84,10.84,0,0,1,2.14,1.78.44.44,0,0,1,0,.61l-.82.78A.44.44,0,0,1,705.62,286.36Z"/><path class="cls-2" d="M723.34,297.84a.44.44,0,0,1-.44-.44V292l-.09-.09-2.59.13-1.8.09c-.71,0-.86.06-1,.24a.44.44,0,0,1-.32.14H717a.44.44,0,0,1-.32-.3l-.06-.22-.29-1.17a.44.44,0,0,1,.42-.54h4.64l.07-.15-.07-.08a17.89,17.89,0,0,0-1.94-2,19.49,19.49,0,0,0-1.73-1.36.44.44,0,0,1-.06-.66l.82-.84a.44.44,0,0,1,.59,0c.5.41.93.78,1.27,1.07l.44.29-.32-.3a14.6,14.6,0,0,0,1.7-2.16l-.07-.14c-1.17.06-2.5.09-4.07.1h0a.44.44,0,0,1-.41-.29l-.32-.86a.44.44,0,0,1,.41-.59h0c.65,0,1.48.07,2.66.07a33.72,33.72,0,0,0,8.66-.91h.11a.44.44,0,0,1,.32.14l.77.83a.44.44,0,0,1-.3.74c-.11,0-.41.06-1.1.17l-1,.16c-.64.09-2,.26-4,.37a.09.09,0,0,0-.08.06.09.09,0,0,0,0,.1l.43.32a.44.44,0,0,1-.11.76.29.29,0,0,0-.17.14l-.1.13c-.62.75-1,1.25-2,2.24a.09.09,0,0,0,0,.12c.44.42.62.62,1,1a.24.24,0,0,0,.1.07h.11c1-1,1.76-1.74,3.75-4a.44.44,0,0,1,.33-.15.43.43,0,0,1,.19,0l1,.48a.44.44,0,0,1,0,.78,1.87,1.87,0,0,0-.42.39c-1.49,1.69-2.47,2.69-3.58,3.76l.06.15c2.55,0,3,0,3.86-.08l.09-.05a4.7,4.7,0,0,0-.72-.82.44.44,0,0,1,0-.67l.84-.66a.44.44,0,0,1,.58,0,18.16,18.16,0,0,1,3,3.86.44.44,0,0,1-.16.6l-1.08.64a.44.44,0,0,1-.22.06l-.12,0a.44.44,0,0,1-.27-.21c-.21-.4-.45-.81-.76-1.32h-.73l-1.6.08-1.61.09-.48,0a.09.09,0,0,0-.08.09v5.52a.44.44,0,0,1-.44.44Zm6.57-.17a.44.44,0,0,1-.28-.1,18.68,18.68,0,0,1-3-3.2.44.44,0,0,1,0-.57l.77-.76a.44.44,0,0,1,.31-.13h0a.44.44,0,0,1,.32.16,18,18,0,0,0,3,3,.44.44,0,0,1,.17.33.43.43,0,0,1-.15.34l-.92.83A.44.44,0,0,1,729.91,297.67Zm-12.29-.12a.44.44,0,0,1-.29-.11l-.89-.78a.44.44,0,0,1,0-.68,12.09,12.09,0,0,0,2.83-2.87.44.44,0,0,1,.55-.15l1,.49a.44.44,0,0,1,0,.76,19,19,0,0,1-3,3.23A.44.44,0,0,1,717.62,297.55Z"/><path class="cls-2" d="M740.2,297.74a.44.44,0,0,1-.44-.44v-6.7l-.09-.09-.58.08-1.13.17a1.1,1.1,0,0,0-.25,0l-.15,0a.44.44,0,0,1-.43-.39l-.11-1a.44.44,0,0,1,.11-.33.44.44,0,0,1,.32-.15l1.1-.05a15,15,0,0,0,.83-1.25l.15-.24a.09.09,0,0,0,0-.11,19.36,19.36,0,0,0-2.26-1.67.44.44,0,0,1-.14-.6l.51-.82a.44.44,0,0,1,.28-.2H738a.43.43,0,0,1,.24.07l.27.19.49.21-.37-.24a17.28,17.28,0,0,0,1.35-2.48.44.44,0,0,1,.4-.26.44.44,0,0,1,.18,0l.68.3a.44.44,0,0,1,.17.66l-.06.1a24.6,24.6,0,0,1-1.57,2.46.09.09,0,0,0,0,.12c.2.16.32.27.46.39l.14.13.13,0c.57-1,.87-1.6,1.06-2a.44.44,0,0,1,.56-.21l.92.39a.44.44,0,0,1,.16.69c-.14.18-.49.72-.79,1.2l-.17.26a27.46,27.46,0,0,1-1.81,2.61.16.16,0,0,0,0,.13h.11a10.74,10.74,0,0,0,1.08,0l.24,0,.49-.25-.42.14c-.06-.18-.11-.32-.17-.45a.44.44,0,0,1,0-.34.44.44,0,0,1,.24-.23l.53-.21a.44.44,0,0,1,.55.22,12.57,12.57,0,0,1,.8,2.18.44.44,0,0,1-.31.53l-.63.17-.12,0a.44.44,0,0,1-.42-.3l0-.12a.09.09,0,0,0-.08-.06c-.31.08-.48.12-.79.18a.09.09,0,0,0-.07.09v7.05a.44.44,0,0,1-.44.44Zm7.34-.14c-1,0-1.15-.86-1.15-1.37v-4a.44.44,0,0,1,.44-.44l.81.06a.44.44,0,0,1,.4.51v3c0,.35.18.51.55.51h.48c.28,0,.53-.07.69-1a.44.44,0,0,1,.43-.36.43.43,0,0,1,.19,0l.64.31a.44.44,0,0,1,.24.46c-.31,1.84-1.17,2.23-1.84,2.23Zm-3.18-1a.44.44,0,0,1-.19,0l-.67-.32a.44.44,0,0,1-.2-.58c.15-.32.3-.68.51-1.21l-.08-.12-.49.12h-.1a.44.44,0,0,1-.42-.32,19.71,19.71,0,0,1-.53-2.34.44.44,0,0,1,.35-.5l.49-.09h.08a.44.44,0,0,1,.43.35,8.46,8.46,0,0,0,.48,1.6.12.12,0,0,0,.09.07l.09-.05.14-.54a.44.44,0,0,1,.42-.33h.11l.62.16a.44.44,0,0,1,.3.56,17.11,17.11,0,0,1-1,3.3.44.44,0,0,1-.25.24Zm-6.4-.43h-.09l-.69-.15a.44.44,0,0,1-.33-.55,20.91,20.91,0,0,0,.66-3.17.44.44,0,0,1,.43-.38h.1l.6.13a.44.44,0,0,1,.34.43,17.24,17.24,0,0,1-.61,3.37A.44.44,0,0,1,738,296.2Zm14.66-.29-.15,0a.44.44,0,0,1-.26-.26,15.17,15.17,0,0,0-1-2.29.44.44,0,0,1,.16-.59l.74-.43a.44.44,0,0,1,.6.15,9.61,9.61,0,0,1,1.11,2.47.44.44,0,0,1-.21.5l-.74.42A.44.44,0,0,1,752.63,295.91Zm-3-3.26a.44.44,0,0,1-.31-.17,9.56,9.56,0,0,0-.93-1.06.44.44,0,0,1,0-.6l.45-.5a.44.44,0,0,1,.61,0,7.45,7.45,0,0,1,1.11,1.21.44.44,0,0,1-.06.58l-.52.47a.44.44,0,0,1-.29.11Zm2.47-2.15-.12,0a.44.44,0,0,1-.27-.22c-.13-.26-.26-.5-.46-.81l-.53,0-2.35.32-.79.09c-1.32.14-2,.22-2.18.27l-.13,0a.44.44,0,0,1-.43-.36l-.18-1a.44.44,0,0,1,.43-.52h.82a18.85,18.85,0,0,0,1.65-3.84.44.44,0,0,1,.42-.3l.13,0,1.1.35a.44.44,0,0,1,.14.76.49.49,0,0,0-.14.22l-.06.13c-.49,1.06-.74,1.59-1.23,2.45l.08.13h.13c.53,0,1.19,0,2.09-.13l.06-.14-.39-.47a.44.44,0,0,1,0-.63l.58-.48a.44.44,0,0,1,.59,0,13.65,13.65,0,0,1,2.2,3,.44.44,0,0,1-.16.58l-.8.48A.43.43,0,0,1,752.05,290.5Zm-7.24-4.16a.43.43,0,0,1-.24-.07l-.77-.52a.43.43,0,0,1-.19-.31.44.44,0,0,1,.11-.35,12.07,12.07,0,0,0,2.11-3.13.44.44,0,0,1,.57-.21l.89.4a.44.44,0,0,1,.12.72.69.69,0,0,0-.12.15l-.25.4a20.9,20.9,0,0,1-1.9,2.75A.44.44,0,0,1,744.81,286.35Zm7.47-.55a.44.44,0,0,1-.31-.13,15.69,15.69,0,0,1-2.09-2.72.44.44,0,0,1,.14-.6l.69-.43a.43.43,0,0,1,.23-.07h.1a.44.44,0,0,1,.27.2,11.17,11.17,0,0,0,2,2.53.44.44,0,0,1-.07.68l-.7.45A.44.44,0,0,1,752.29,285.79Z"/><path class="cls-2" d="M761.23,297.76a.44.44,0,0,1-.44-.44v-6.47a.44.44,0,0,1,.44-.44H771.5a.44.44,0,0,1,.44.44v6.39a.44.44,0,0,1-.44.44h-1.14a.44.44,0,0,1-.44-.44c0-.1,0-.14-.09-.14h-7a.09.09,0,0,0-.09.09v.13a.44.44,0,0,1-.44.44Zm1.59-5.62a.09.09,0,0,0-.09.09v3a.09.09,0,0,0,.09.09h7a.09.09,0,0,0,.09-.09v-3a.09.09,0,0,0-.09-.09Zm-3.8-2.7a.44.44,0,0,1-.31-.13l-.85-.86a.44.44,0,0,1,.12-.7,16.81,16.81,0,0,0,7.21-6.34.44.44,0,0,1,.38-.22h.08l1.46.29a.44.44,0,0,1,.35.43.41.41,0,0,1,0,.08l.08.15a12.41,12.41,0,0,0,3,3,15.17,15.17,0,0,0,4.12,2,.44.44,0,0,1,.2.7l-.89,1a.44.44,0,0,1-.5.12,17.26,17.26,0,0,1-3.29-1.84h0l-.16,0a.44.44,0,0,1,.06.21v.93a.44.44,0,0,1-.44.44h-6.74a.44.44,0,0,1-.44-.44v-.68l-.09-.09a18.89,18.89,0,0,1-3.15,1.87A.43.43,0,0,1,759,289.44Zm10.6-2.51h.1a.36.36,0,0,1,0-.12,21.78,21.78,0,0,1-3.33-3.25l-.15,0a14.67,14.67,0,0,1-2.89,3.19l0,.1c.07,0,4.79.06,6,.06Z"/><path class="cls-2" d="M780,297.78a.44.44,0,0,1-.44-.44v-5.13a.44.44,0,0,1,.44-.44h4.43a.44.44,0,0,1,.44.44v4.84a.44.44,0,0,1-.44.44h-.71a.44.44,0,0,1-.44-.44c0-.14,0-.18-.09-.18h-1.88a.09.09,0,0,0-.09.09v.39a.44.44,0,0,1-.44.44Zm1.31-4.5a.09.09,0,0,0-.09.09v1.81a.09.09,0,0,0,.09.09h1.86a.09.09,0,0,0,.09-.09v-1.81a.09.09,0,0,0-.09-.09Zm5.2,4.4a.44.44,0,0,1-.44-.44v-2.46a.09.09,0,0,0-.09-.09h-.25a.44.44,0,0,1-.44-.44v-.52a.44.44,0,0,1,.44-.44H786a.09.09,0,0,0,.09-.09v-3.93a.44.44,0,0,1,.44-.44h2.85a.09.09,0,0,0,.09-.09V288a.09.09,0,0,0-.09-.09h-3.7a.44.44,0,0,1-.44-.44v-.36a.44.44,0,0,1,.44-.44h1.78a.09.09,0,0,0,.09-.09v-.89a.09.09,0,0,0-.09-.09h-1a.44.44,0,0,1-.44-.44V285a.44.44,0,0,1,.44-.44h1a.09.09,0,0,0,.09-.09v-.8a.09.09,0,0,0-.09-.09h-1.63a.44.44,0,0,1-.44-.44v-.36a.44.44,0,0,1,.44-.44h1.63a.09.09,0,0,0,.09-.09v-.5a.44.44,0,0,1,.44-.44l1.08,0a.44.44,0,0,1,.4.59,1,1,0,0,0,0,.32.09.09,0,0,0,.09.09h1.8a.09.09,0,0,0,.09-.09v-.51a.44.44,0,0,1,.44-.44l1.08,0a.44.44,0,0,1,.39.63.67.67,0,0,0,0,.3.09.09,0,0,0,.09.09h1.92a.44.44,0,0,1,.44.44v.36a.44.44,0,0,1-.44.44h-1.92a.09.09,0,0,0-.09.09v.8a.09.09,0,0,0,.09.09h1a.44.44,0,0,1,.44.44v.23a.44.44,0,0,1-.44.44h-1a.09.09,0,0,0-.09.09v.89a.09.09,0,0,0,.09.09h1.92a.44.44,0,0,1,.44.44v.36a.44.44,0,0,1-.44.44h-3.83a.09.09,0,0,0-.09.09v.72a.09.09,0,0,0,.09.09h3a.44.44,0,0,1,.44.44v3.93a.09.09,0,0,0,.09.09h.35a.44.44,0,0,1,.44.44v.52a.44.44,0,0,1-.44.44h-.35a.09.09,0,0,0-.09.09V296c0,.81-.3,1.57-2.44,1.68h0a.44.44,0,0,1-.4-.26l-.42-1a.44.44,0,0,1,.4-.61l.45,0c.25,0,.83-.07.83-.67v-.41a.09.09,0,0,0-.09-.09h-5.27a.09.09,0,0,0-.09.09v2.46a.44.44,0,0,1-.44.44Zm4.9-5.52a.09.09,0,0,0-.09.09v1a.09.09,0,0,0,.09.09h1.71a.09.09,0,0,0,.09-.09v-1a.09.09,0,0,0-.09-.09Zm-3.57,0a.09.09,0,0,0-.09.09v1a.09.09,0,0,0,.09.09h1.51a.09.09,0,0,0,.09-.09v-1a.09.09,0,0,0-.09-.09Zm3.57-2.17a.09.09,0,0,0-.09.09v.84a.09.09,0,0,0,.09.09h1.71a.09.09,0,0,0,.09-.09v-.84a.09.09,0,0,0-.09-.09Zm-3.57,0a.09.09,0,0,0-.09.09v.84a.09.09,0,0,0,.09.09h1.51a.09.09,0,0,0,.09-.09v-.84a.09.09,0,0,0-.09-.09Zm1.65-4.34a.09.09,0,0,0-.09.09v.89a.09.09,0,0,0,.09.09h1.8a.09.09,0,0,0,.09-.09v-.89a.09.09,0,0,0-.09-.09Zm0-2.07a.09.09,0,0,0-.09.09v.8a.09.09,0,0,0,.09.09h1.8a.09.09,0,0,0,.09-.09v-.8a.09.09,0,0,0-.09-.09Zm-9.3,7.13a.44.44,0,0,1-.44-.44v-.56a.44.44,0,0,1,.44-.44h3.7a.44.44,0,0,1,.44.44v.56a.44.44,0,0,1-.44.44Zm0-2.65a.44.44,0,0,1-.44-.44v-.54a.44.44,0,0,1,.44-.44h3.64a.44.44,0,0,1,.44.44v.54a.44.44,0,0,1-.44.44Zm-.68-2.44a.44.44,0,0,1-.44-.44v-.56a.44.44,0,0,1,.44-.44h4.86a.44.44,0,0,1,.44.44v.56a.44.44,0,0,1-.44.44Zm.7-2.44a.44.44,0,0,1-.44-.44v-.54a.44.44,0,0,1,.44-.44h3.56a.44.44,0,0,1,.44.44v.54a.44.44,0,0,1-.44.44Z"/><path class="cls-2" d="M803.5,298.13a.44.44,0,0,1-.4-.26l-.3-.67a.44.44,0,0,1,.4-.62h.24c.53,0,.69-.12.69-.53v-.41l-.09-.09-.23,0c-1.19.18-2.43.36-2.56.4h-.12a.46.46,0,0,1-.45-.35l-.1-.53a.44.44,0,0,1,.4-.51c1.46-.12,2.46-.27,3.06-.36a.09.09,0,0,0,.08-.09v-1A.09.09,0,0,0,804,293h-3.27a.44.44,0,0,1-.44-.44V292a.44.44,0,0,1,.44-.44H804a.09.09,0,0,0,.09-.09v-.78l-.09-.09c-1.33.19-2.25.29-2.92.33h0a.44.44,0,0,1-.39-.24l-.16-.31a.44.44,0,0,1,.36-.64,17.14,17.14,0,0,0,4.93-.9.09.09,0,0,0,0-.17h-5.08a.44.44,0,0,1-.44-.44v-.52a.44.44,0,0,1,.44-.44h6.65a.09.09,0,0,0,.09-.09v-.8a.09.09,0,0,0-.09-.09h-4.24a.44.44,0,0,1-.44-.44v-.52a.44.44,0,0,1,.44-.44h4.24a.09.09,0,0,0,.09-.09v-.72a.09.09,0,0,0-.09-.09h-6a.44.44,0,0,1-.44-.44v-.42a.44.44,0,0,1,.44-.44h2.85l.08-.13c-.12-.2-.22-.35-.33-.5a.44.44,0,0,1,.18-.66l.8-.36a.43.43,0,0,1,.18,0,.44.44,0,0,1,.34.16,16.71,16.71,0,0,1,1.11,1.49l3.6,0a8,8,0,0,0,.78-1.35.44.44,0,0,1,.4-.25h.08l1.11.21a.44.44,0,0,1,.29.67l-.37.58.08.13h3a.44.44,0,0,1,.44.44v.42a.44.44,0,0,1-.44.44h-5.93a.09.09,0,0,0-.09.09v.72a.09.09,0,0,0,.09.09h4.24a.44.44,0,0,1,.44.44v.52a.44.44,0,0,1-.44.44h-4.24a.09.09,0,0,0-.09.09v.8a.09.09,0,0,0,.09.09h6.74a.44.44,0,0,1,.44.44v.52a.44.44,0,0,1-.44.44h-2.69l-.16,0-.14,0h-5.71l-.07.13.22.36a.44.44,0,0,1-.28.65l-1.43.33a.09.09,0,0,0-.07.09v1.22a.09.09,0,0,0,.09.09h3.33l.51-.21-.43.1c-.13-.55-.23-1.09-.3-1.6a.44.44,0,0,1,.43-.5l.84.06a.44.44,0,0,1,.4.51,8.29,8.29,0,0,0,.27,1.57.09.09,0,0,0,.08.06h5a.44.44,0,0,1,.44.44v.59a.44.44,0,0,1-.44.44h-4.4l-.5.25.42-.13a2.59,2.59,0,0,0,.44.8l.32.41-.21-.39c.5-.27.75-.41,1.09-.62a.44.44,0,0,1,.5,0l.51.4a.44.44,0,0,1,0,.71l-1,.65v.13a1.94,1.94,0,0,0,1.26.7c.21,0,.42-.06.59-.85a.44.44,0,0,1,.26-.31.45.45,0,0,1,.17,0,.44.44,0,0,1,.24.07l.55.35a.44.44,0,0,1,.19.46c-.13.61-.47,2.23-1.61,2.23a4.77,4.77,0,0,1-3.21-1.72l-.1,0a16.71,16.71,0,0,1-3.54,1.39l-.12,0a.44.44,0,0,1-.35-.17l-.45-.59a.44.44,0,0,1,.22-.68,22.63,22.63,0,0,0,3.2-1.28l0-.12a6.9,6.9,0,0,1-.77-1.63.09.09,0,0,0-.08-.06h-3.78a.09.09,0,0,0-.09.09v.74l.09.09.54-.09c.44-.07,1-.16,1.49-.26h.08a.44.44,0,0,1,.44.44v.3a.44.44,0,0,1-.33.43c-.55.13-1.15.24-2.23.44a.09.09,0,0,0-.07.09v1.49c0,1-.58,1.33-2.57,1.36Zm10.57-7.05a.44.44,0,0,1-.34-.16c-.22-.26-.52-.61-.88-1a.44.44,0,0,1,0-.65l.36-.29a.44.44,0,0,1,.59,0c.34.36.64.71.93,1.05a.44.44,0,0,1-.08.63l-.37.27A.43.43,0,0,1,814.08,291.07Z"/><path class="cls-2" d="M832.47,297.88a.44.44,0,0,1-.44-.44v-3.91a.09.09,0,0,0-.06-.08l-.1,0a14.63,14.63,0,0,1-3.32,3.6.44.44,0,0,1-.27.09.44.44,0,0,1-.28-.1l-.82-.69a.44.44,0,0,1,.08-.72,11,11,0,0,0,4.1-3.9l-.07-.14h-2.4a.44.44,0,0,1-.44-.44V286a.44.44,0,0,1,.44-.44h3.06a.09.09,0,0,0,.09-.09v-.8a.09.09,0,0,0-.09-.09h-4l0,0,0,.8a.44.44,0,0,1-.44.44h-1.59l-.51.23.42-.12a7.6,7.6,0,0,0,2.19,3.38.44.44,0,0,1,0,.61l-.6.65a.44.44,0,0,1-.32.14h0a.44.44,0,0,1-.33-.17,8.66,8.66,0,0,1-.78-1.17l-.1,0a.09.09,0,0,0-.07.08v8a.44.44,0,0,1-.44.44h-1a.44.44,0,0,1-.44-.44v-6.26a.09.09,0,0,0-.07-.09h0a.09.09,0,0,0-.09.06,10.84,10.84,0,0,1-1,2.23.44.44,0,0,1-.27.21h-.11a.44.44,0,0,1-.23-.07l-1-.6a.44.44,0,0,1-.2-.28.43.43,0,0,1,.07-.34A15.69,15.69,0,0,0,823.6,286l-.09-.1h-1.66a.44.44,0,0,1-.44-.44v-1.1a.44.44,0,0,1,.44-.44h1.88a.09.09,0,0,0,.09-.09v-2.07a.44.44,0,0,1,.44-.44l1.11.07a.44.44,0,0,1,.38.58v1.85a.09.09,0,0,0,.09.09h1.78l0,0,0-.47a.44.44,0,0,1,.44-.44h3.86a.09.09,0,0,0,.09-.09v-1.13a.44.44,0,0,1,.44-.44l1.08.06a.44.44,0,0,1,.39.58v.92a.09.09,0,0,0,.09.09h3.53a.44.44,0,0,1,.44.44v.77a.44.44,0,0,1-.44.44H834a.09.09,0,0,0-.09.09v.8a.09.09,0,0,0,.09.09h3.1a.44.44,0,0,1,.44.44v5.17a.44.44,0,0,1-.44.44h-2.46l-.46.33.39-.2a7,7,0,0,0,1.65,2,13.12,13.12,0,0,0,2,1.49.44.44,0,0,1,.06.7l-.82.72a.44.44,0,0,1-.58,0,15.56,15.56,0,0,1-2.76-3.13l-.1,0a.09.09,0,0,0-.06.08v3.86a.44.44,0,0,1-.44.44Zm1.55-8.68a.09.09,0,0,0-.09.09v1a.09.09,0,0,0,.09.09h1.67a.09.09,0,0,0,.09-.09v-1a.09.09,0,0,0-.09-.09Zm-3.72,0a.09.09,0,0,0-.09.09v1a.09.09,0,0,0,.09.09h1.65a.09.09,0,0,0,.09-.09v-1a.09.09,0,0,0-.09-.09Zm3.72-2.32a.09.09,0,0,0-.09.09v.93a.09.09,0,0,0,.09.09h1.67a.09.09,0,0,0,.09-.09V287a.09.09,0,0,0-.09-.09Zm-3.72,0a.09.09,0,0,0-.09.09v.93a.09.09,0,0,0,.09.09h1.65a.09.09,0,0,0,.09-.09V287a.09.09,0,0,0-.09-.09Z"/><path class="cls-2" d="M847.14,297.45a.44.44,0,0,1-.44-.44V285.37a.09.09,0,0,0-.09-.09l-.1,0-1.73,1.21a.44.44,0,0,1-.69-.36v-1.5a.44.44,0,0,1,.18-.35l2.37-1.72a.44.44,0,0,1,.25-.08l1.69,0a.44.44,0,0,1,.44.44V297a.44.44,0,0,1-.44.44Z"/><path class="cls-2" d="M857.29,297.25a.44.44,0,0,1-.44-.44v-14.1a.44.44,0,0,1,.44-.44h8.89a.44.44,0,0,1,.44.44V284a.44.44,0,0,1-.44.44h-6.65a.2.2,0,0,0-.22.22v3.86a.2.2,0,0,0,.22.22h5.56a.44.44,0,0,1,.44.44v1.31a.44.44,0,0,1-.44.44h-5.56a.2.2,0,0,0-.22.22v5.64a.44.44,0,0,1-.44.44Z"/><path class="cls-2" d="M882,297.51a3.76,3.76,0,0,1-4.13-4c0-1.67.82-3,2.84-4.58a.09.09,0,0,0,0-.12c-1.14-1.47-1.68-2.29-1.68-3.42a3.46,3.46,0,0,1,3.68-3.39,3.39,3.39,0,0,1,3.6,3.32c0,1.17-.41,2.12-2.59,3.81l-.36.39.35-.27,2.36,3h.14l1.32-1.57a.44.44,0,0,1,.3-.15h0a.44.44,0,0,1,.28.1l.78.67a.44.44,0,0,1,.05.61l-1.59,1.93a.09.09,0,0,0,0,.11l.53.67a1.16,1.16,0,0,0,1,.52.47.47,0,0,1,.47.44v1.18a.44.44,0,0,1-.44.44h-.43a2.29,2.29,0,0,1-2.14-1.14l-.38-.47-.45-.31.32.3A5,5,0,0,1,882,297.51Zm0-7-.05,0c-1.32,1-1.91,1.9-1.91,2.88a2,2,0,0,0,2.16,2.12c.88,0,1.55-.37,2.54-1.43a.09.09,0,0,0,0-.11L882,290.54Zm.78-6.6a1.45,1.45,0,0,0-1.54,1.45c0,.56.18.9,1.2,2.24l.12,0c1.46-1.14,1.71-1.62,1.71-2.28A1.44,1.44,0,0,0,882.71,283.9Z"/><path class="cls-2" d="M901.62,297.45a.44.44,0,0,1-.44-.44v-1.34a.44.44,0,0,1,.1-.27l5.34-6.66a3.76,3.76,0,0,0,1-2.37,2.11,2.11,0,0,0-4.18-.41.44.44,0,0,1-.43.34h-.09l-1.36-.28a.44.44,0,0,1-.34-.51,4.09,4.09,0,0,1,4.37-3.27,4,4,0,0,1,4.37,4.15,5.23,5.23,0,0,1-1.41,3.49l-4.41,5.35c0,.13,0,.19.07.19h5.31a.44.44,0,0,1,.44.44V297a.44.44,0,0,1-.44.44Z"/><path class="cls-2" d="M915.67,297.25a.44.44,0,0,1-.44-.44v-14.1a.44.44,0,0,1,.44-.44h8.89a.44.44,0,0,1,.44.44V284a.44.44,0,0,1-.44.44H917.9a.2.2,0,0,0-.22.22v3.86a.2.2,0,0,0,.22.22h5.56a.44.44,0,0,1,.44.44v1.31a.44.44,0,0,1-.44.44H917.9a.2.2,0,0,0-.22.22v5.64a.44.44,0,0,1-.44.44Z"/><path class="cls-2" d="M398.37,96a.69.69,0,0,1-.69-.69V82a.14.14,0,0,0-.1-.13h0a.14.14,0,0,0-.12.05c-.33.46-.67.89-1,1.32a.69.69,0,0,1-1,.08l-1.71-1.43a.69.69,0,0,1-.07-1,33.43,33.43,0,0,0,6.41-10.52.69.69,0,0,1,.89-.39l2.16.82a.69.69,0,0,1,.19,1.18,1,1,0,0,0-.23.31,35.52,35.52,0,0,1-2.44,4.59.14.14,0,0,0,.07.2.78.78,0,0,1,.48.5.7.7,0,0,1-.11.64c-.29.32-.34.43-.34.62v16.5A.69.69,0,0,1,400,96Zm5.12-.3a.69.69,0,0,1-.69-.69V78.33a.69.69,0,0,1,.69-.69l2,.07a.69.69,0,0,1,.58,1l0,12.09a.14.14,0,0,0,.14.14h3.54a.14.14,0,0,0,.14-.14V70.6a.69.69,0,0,1,.69-.69l2,.07a.69.69,0,0,1,.55,1.06l0,19.78a.14.14,0,0,0,.14.14h3.26a.14.14,0,0,0,.14-.14V78.33a.69.69,0,0,1,.69-.69l2,.07a.69.69,0,0,1,.55,1.06l0,16.12a.69.69,0,0,1-.69.69h-1.88a.69.69,0,0,1-.69-.69v-.73a.14.14,0,0,0-.14-.14H406.22a.14.14,0,0,0-.14.14V95a.69.69,0,0,1-.69.69Z"/><path class="cls-2" d="M447.76,96a.69.69,0,0,1-.69-.69v-.42a.14.14,0,0,0-.14-.14H435a.14.14,0,0,0-.14.14v.42a.69.69,0,0,1-.69.69h-2a.69.69,0,0,1-.69-.69V84.85a.69.69,0,0,1,.69-.69h17.5a.69.69,0,0,1,.69.69V95.29a.69.69,0,0,1-.69.69ZM435,87.17a.14.14,0,0,0-.14.14v4.45a.14.14,0,0,0,.14.14h11.91a.14.14,0,0,0,.14-.14V87.31a.14.14,0,0,0-.14-.14Zm16.6-4.8h-.14a.69.69,0,0,1-.44-.31c-.4-.64-.86-1.31-1.44-2.13a.14.14,0,0,0-.11-.06,179.79,179.79,0,0,1-18.09,1.58,3.53,3.53,0,0,0-1.42.22.69.69,0,0,1-1-.45l-.5-2.08a.69.69,0,0,1,.66-.85h1.21l2.27,0a.14.14,0,0,0,.11-.06,55.7,55.7,0,0,0,4.17-8,.69.69,0,0,1,.83-.39l2.56.79a.69.69,0,0,1,.19,1.22,7,7,0,0,0-1.06,1.44c-.16.26-.31.52-.5.79l-.6.91c-.57.88-1.36,2.08-2,3a.14.14,0,0,0,.11.22c3.52-.09,7.31-.21,11.12-.49a.14.14,0,0,0,.09-.23,28.18,28.18,0,0,0-2.32-2.37.69.69,0,0,1,0-1L446.57,73a.69.69,0,0,1,.89,0,36.18,36.18,0,0,1,6.32,7.21.69.69,0,0,1-.18,1L452,82.25A.69.69,0,0,1,451.63,82.37Z"/><path class="cls-2" d="M464.91,94.34a.69.69,0,0,1-.6-.35,9,9,0,0,1-.75-1.76,26.33,26.33,0,0,1-1.24-8,53.72,53.72,0,0,1,.46-6,58.46,58.46,0,0,1,1.06-6,.69.69,0,0,1,.9-.49l1.94.7a.69.69,0,0,1,.35,1c-.9,1.44-1.78,7.17-1.78,10.39a15.36,15.36,0,0,0,.43,4.21.14.14,0,0,0,.12.09h0a.14.14,0,0,0,.13-.07l.82-1.43a.69.69,0,0,1,.93-.26l.43.23a.69.69,0,0,1,.31.86,27.42,27.42,0,0,0-1.51,5.74.69.69,0,0,1-.43.53l-1.32.52A.69.69,0,0,1,464.91,94.34Zm13-1.63c-5.1,0-6.46-1.18-6.63-5.76a.69.69,0,0,1,.59-.71l1.68-.23h.09a.69.69,0,0,1,.69.65c.11,2,.48,2.95,3.52,2.95a25.45,25.45,0,0,0,6-.68l.16,0a.69.69,0,0,1,.69.69v2a.69.69,0,0,1-.59.68A40,40,0,0,1,477.87,92.72Zm-2.44-15.65c-.45,0-1.38,0-2.48-.09a.69.69,0,0,1-.64-.69V74.65A.69.69,0,0,1,473,74h.09a23.47,23.47,0,0,0,3,.21,21.45,21.45,0,0,0,6.19-.91l.2,0a.69.69,0,0,1,.69.69v1.72a.69.69,0,0,1-.56.68A38.64,38.64,0,0,1,475.43,77.06Z"/><path class="cls-2" d="M507.83,94.51c-5.1,0-5.86-2.66-5.86-4.25,0-2.37,2-3.79,5.22-3.79.58,0,1.18.06,1.84.12h0a.14.14,0,0,0,.11,0,.14.14,0,0,0,0-.11l0-.72c-.21-3.06-.29-4.33-.35-6.25a.14.14,0,0,0,0-.1l-.09-.72,0,.69a39.4,39.4,0,0,1-4.23.27h-.46a.69.69,0,0,1-.67-.68v-1.4a.69.69,0,0,1,.69-.69H504c.52,0,1.12.07,1.85.07a23.93,23.93,0,0,0,2.77-.18.26.26,0,0,0,.2-.14c0-1.56.05-2.21.08-3.43l0-1.26a.69.69,0,0,1,.69-.67h.11l2,.31a.69.69,0,0,1,.56.84,24.44,24.44,0,0,0-.35,2.93l-.08.85a.14.14,0,0,0,0,.12l.26.7-.14-.67a19,19,0,0,0,2.68-.73.69.69,0,0,1,.93.64v1.38a.69.69,0,0,1-.5.66c-.9.25-1.92.43-2.66.57l-.53.1a.14.14,0,0,0-.11.14,75.12,75.12,0,0,0,.43,8.17.14.14,0,0,0,.08.11,23.21,23.21,0,0,1,4.57,2.42.69.69,0,0,1,.22.92l-.84,1.46a.68.68,0,0,1-.48.33h-.12a.69.69,0,0,1-.45-.17,16.51,16.51,0,0,0-2.47-1.75h-.14a.14.14,0,0,0-.07.12C512.44,93.18,511.68,94.51,507.83,94.51Zm-.76-5.57c-1.5,0-2.54.56-2.54,1.36s.74,1.48,2.82,1.48a2.41,2.41,0,0,0,1.71-.44c.36-.38.36-.94.32-1.91a.28.28,0,0,0-.12-.21l-.14,0A10,10,0,0,0,507.07,88.94Zm-11.5,5.53a.69.69,0,0,1-.66-.51,33.62,33.62,0,0,1-.95-8.68A57.31,57.31,0,0,1,495.59,72a.69.69,0,0,1,.67-.53.7.7,0,0,1,.25,0l1.7.67a.69.69,0,0,1,.3,1,8.65,8.65,0,0,0-.62,2l0,.13a76.57,76.57,0,0,0-1.13,9.48,28.48,28.48,0,0,0,.15,3.21.14.14,0,0,0,.1.12h0a.14.14,0,0,0,.13-.06l.78-1.15a.69.69,0,0,1,1-.18l.66.45a.69.69,0,0,1,.24.86,26.68,26.68,0,0,0-2,5.66.69.69,0,0,1-.56.55l-1.49.24Z"/><path class="cls-2" d="M529.88,95.76h-.11a.69.69,0,0,1-.47-.31A25,25,0,0,0,524.55,90a.69.69,0,0,1,0-1l1.21-1.26a.69.69,0,0,1,.86-.11,17.57,17.57,0,0,1,5.75,5.59.69.69,0,0,1-.15.91l-1.87,1.49A.69.69,0,0,1,529.88,95.76Z"/><rect class="cls-2" x="544.33" y="71.46" width="3.86" height="23.53" rx="0.69" ry="0.69"/><path class="cls-2" d="M562.38,95a.69.69,0,0,1-.69-.69V75.25a.32.32,0,0,0-.35-.35h-5.76a.69.69,0,0,1-.69-.69V72.15a.69.69,0,0,1,.69-.69h16.07a.69.69,0,0,1,.69.69v2.06a.69.69,0,0,1-.69.69H565.9a.32.32,0,0,0-.35.35V94.31a.69.69,0,0,1-.69.69Z"/><path class="cls-2" d="M594.32,94.42a.69.69,0,0,1-.56-.29l-1.2-1.67a.69.69,0,0,1,.34-1.05,9.6,9.6,0,0,0,4.47-3,9.7,9.7,0,0,0,2.22-6.15,7.31,7.31,0,0,0-2.24-5.43,7.76,7.76,0,0,0-5.16-2.07h0a.3.3,0,0,0-.25.12,44.09,44.09,0,0,1-3.76,13.5c-1.44,3-2.64,4.37-3.77,4.37s-6-2.8-6-8.05a13.06,13.06,0,0,1,13.29-12.77c6.59,0,11.19,4.5,11.19,10.95A11.27,11.27,0,0,1,601,89.31a14,14,0,0,1-6.42,5.06A.68.68,0,0,1,594.32,94.42Zm-5.91-19.08a9.24,9.24,0,0,0-3.77,2.22,10,10,0,0,0-3.09,6.86c0,2.56,1.46,3.88,2.09,3.88,1.91,0,4.46-9,4.95-12.82a.14.14,0,0,0,0-.12l-.09,0Z"/><path class="cls-2" d="M617.85,95.28a.69.69,0,0,1-.5-.22l-.19-.21c-1-1.11-1.95-2.08-4.27-4.53a.14.14,0,0,0-.19,0l-.15.14a.69.69,0,0,1-.46.18H612a.69.69,0,0,1-.49-.35l-1-1.78a.69.69,0,0,1,.23-.91,78.91,78.91,0,0,1,7-4.24.14.14,0,0,0,.07-.12l0-3.93a.14.14,0,0,0,0-.1l-.09-.72,0,.69a30.08,30.08,0,0,1-3.19.18h-.71a.69.69,0,0,1-.67-.6L612.79,77a.69.69,0,0,1,.68-.78h0c.57,0,1.2.06,2,.06s1.22,0,2.11-.09a.14.14,0,0,0,.13-.14V74.41c0-1.5,0-2.13,0-3.07a.69.69,0,0,1,.69-.7h.09l2.1.28a.69.69,0,0,1,.55.94,27.08,27.08,0,0,0-.22,3.19l0,.58a.14.14,0,0,0,0,.12l.27.7-.15-.67a19,19,0,0,0,3.57-1.08.69.69,0,0,1,1,.63V77a.69.69,0,0,1-.46.65,26.9,26.9,0,0,1-4.18,1.1.14.14,0,0,0-.11.13l0,3a.14.14,0,0,0,.05.11l.12,0a16.8,16.8,0,0,1,4.65-.7c5,0,7.2,3.42,7.2,6.81,0,3.74-2.39,6.56-5.56,6.56-2.94,0-3.52-1.6-3.93-3.53a.69.69,0,0,1,.42-.78l1.37-.54a.69.69,0,0,1,.25,0,.69.69,0,0,1,.65.46c.35,1,.72,1.31,1.43,1.31,1.2,0,2.48-1.18,2.48-3.37A4.14,4.14,0,0,0,625.55,84,13.64,13.64,0,0,0,620.94,85a.28.28,0,0,0-.15.15s0,6.38-.06,8.55a.69.69,0,0,1-.43.63l-2.19.87A.69.69,0,0,1,617.85,95.28Zm-.16-3.61a.14.14,0,0,0,.08-.13V86.82a.14.14,0,0,0-.07-.12l-.07,0-.07,0a31.45,31.45,0,0,0-2.78,1.86.14.14,0,0,0-.05.09.14.14,0,0,0,0,.1,25.72,25.72,0,0,0,2.79,2.88Zm15.45-10.81a.69.69,0,0,1-.43-.15,17.28,17.28,0,0,0-4.38-2.55.69.69,0,0,1-.29-1l1-1.31a.69.69,0,0,1,.81-.23,21.65,21.65,0,0,1,4.71,2.7.69.69,0,0,1,.15,1l-1,1.34a.69.69,0,0,1-.46.28Z"/><path class="cls-2" d="M651.55,96.31a.69.69,0,0,1-.62-.39L650,94.06a.69.69,0,0,1,.62-1h.05c.31,0,.6,0,.87,0,1.07,0,1.26-.37,1.26-1.42V87.83a.14.14,0,0,0-.14-.14H642.39a.69.69,0,0,1-.69-.69V85.61a.69.69,0,0,1,.69-.69h1.06a.14.14,0,0,0,.1,0l.1-.09-.11-.09-1.31-1a.69.69,0,0,1,.11-1.16,17.26,17.26,0,0,0,3.14-2.14.14.14,0,0,0,0-.17,14.58,14.58,0,0,0-1.5-2.09.14.14,0,0,0-.11-.05.14.14,0,0,0-.1,0c-.15.17-.31.32-.47.47a.69.69,0,0,1-.86.05l-1.24-.87a.69.69,0,0,1-.11-1,23.44,23.44,0,0,0,4.45-6.52.69.69,0,0,1,.62-.4h.1l1.69.26a.69.69,0,0,1,.5,1,.15.15,0,0,0,0,.15.14.14,0,0,0,.12.06h4.25a.69.69,0,0,1,.59.34l.24.4a.69.69,0,0,1,.06.57,21.79,21.79,0,0,1-3.73,7,.14.14,0,0,0,.11.22h8.77a.14.14,0,0,0,.11-.23,21.44,21.44,0,0,1-4.67-8.25.69.69,0,0,1,.43-.82L656.3,70a.69.69,0,0,1,.89.43,23,23,0,0,0,1.37,3.35.9.9,0,0,1,.05.13,18.4,18.4,0,0,0,1.76,2.78.14.14,0,0,0,.11.05.14.14,0,0,0,.11-.05,18.1,18.1,0,0,0,1.81-2.76.13.13,0,0,0,0-.13.14.14,0,0,0-.12-.07H659.5a.69.69,0,0,1-.69-.69V71.94a.69.69,0,0,1,.69-.69h5.79a.69.69,0,0,1,.5.22l.78.83a.69.69,0,0,1,.07.85c-1.16,1.73-2.9,4.1-4.14,5.64a.14.14,0,0,0,0,.19,20.36,20.36,0,0,0,4,2.8.69.69,0,0,1,.17,1.08l-1.23,1.26a.69.69,0,0,1-.82.12,19.44,19.44,0,0,1-4.26-3.16.14.14,0,0,0-.09,0c-.11,0-.14.08-.14.14v.73a.69.69,0,0,1-.69.69h-9.92a.69.69,0,0,1-.69-.69v-.64a.14.14,0,0,0-.09-.13h0a.13.13,0,0,0-.1,0,22.38,22.38,0,0,1-4.06,3.48l-.13.11.11.1a.13.13,0,0,0,.1,0h22a.69.69,0,0,1,.69.69V87a.69.69,0,0,1-.69.69h-10.2a.14.14,0,0,0-.14.14v5.09c0,2.31-1,3.39-3.21,3.39Zm-5.6-20.58a.14.14,0,0,0-.1,0c-.09.1-.51.65-.58.77a.14.14,0,0,0,0,.16A12.79,12.79,0,0,1,647,78.64a.2.2,0,0,0,.11.08h.11a5,5,0,0,0,.49-.51l.23-.26a.14.14,0,0,0,0-.18l-.14-.17A14,14,0,0,0,646,75.76Zm1.4-2.16a.14.14,0,0,0-.12.06c-.06.09-.22.35-.28.47a.14.14,0,0,0,0,.18,9.66,9.66,0,0,1,2,1.83.14.14,0,0,0,.1,0,.14.14,0,0,0,.12-.07,9,9,0,0,0,1.08-2.35.13.13,0,0,0,0-.12.14.14,0,0,0-.11-.05Zm16.28,22a.69.69,0,0,1-.48-.25,38.87,38.87,0,0,0-4.26-4.41.69.69,0,0,1,0-1.05l1.33-1.05a.68.68,0,0,1,.84,0A41.94,41.94,0,0,1,665.75,93a.69.69,0,0,1,0,1l-1.58,1.45a.69.69,0,0,1-.46.18Zm-18.91-.09a.69.69,0,0,1-.42-.14l-1.51-1.16a.69.69,0,0,1,0-1.11,20.37,20.37,0,0,0,4.45-4,.69.69,0,0,1,.85-.19l1.62.81a.69.69,0,0,1,.24,1,23.57,23.57,0,0,1-4.88,4.67A.69.69,0,0,1,644.72,95.49Z"/><path class="cls-2" d="M686.28,95.32a.69.69,0,0,1-.32-.08l-1.95-1a.69.69,0,0,1-.12-1.13,13.74,13.74,0,0,0,3.39-4.43,18.63,18.63,0,0,0,1.87-8.22,81.27,81.27,0,0,0-.63-8.56.69.69,0,0,1,.68-.78h2a.69.69,0,0,1,.66.89.33.33,0,0,0,0,.1c0,.2.07.84.14,1.48l0,.38c.19,2.25.36,4.42.36,6.39a22.24,22.24,0,0,1-1.85,9,19.79,19.79,0,0,1-3.8,5.74A.69.69,0,0,1,686.28,95.32Zm-8.9-6.9a.69.69,0,0,1-.65-.47,24.18,24.18,0,0,1-1.17-7.68A53.68,53.68,0,0,1,676.3,72a.69.69,0,0,1,.68-.58l1.94.11a.69.69,0,0,1,.6,1c-.71,1.69-.94,7-1,7.94a7,7,0,0,0,.22,1.91.14.14,0,0,0,.13.11h0a.14.14,0,0,0,.14-.09c.29-.75.76-2,1.37-3.42a.69.69,0,0,1,.43-.39l.2,0a.69.69,0,0,1,.38.11l.73.48a.69.69,0,0,1,.25.85,71.16,71.16,0,0,0-3,8,.69.69,0,0,1-.66.49Z"/><path class="cls-2" d="M710.53,94.15c-.65,0-1.23,0-1.66-.06a.69.69,0,0,1-.62-.54L707.92,92a.69.69,0,0,1,.67-.84h.07a8.85,8.85,0,0,0,.93,0,2.5,2.5,0,0,0,2.21-.9c1.3-1.61,1.65-5.22,1.65-7.09,0-2.43-.63-3.21-2.6-3.21a10.16,10.16,0,0,0-1.67.15.14.14,0,0,0-.11.1c-1.51,6.08-2.92,9.6-5.38,13.46a.69.69,0,0,1-.86.26l-1.62-.73a.69.69,0,0,1-.29-1,31.73,31.73,0,0,0,5-11.11.13.13,0,0,0,0-.13.14.14,0,0,0-.09,0,25.46,25.46,0,0,0-3.35,1.26.69.69,0,0,1-.29.06.69.69,0,0,1-.66-.48L700.89,80a.69.69,0,0,1,.54-.88c1.74-.29,2.83-.52,4.92-1a.14.14,0,0,0,.11-.12,34.91,34.91,0,0,0,.31-4.85.69.69,0,0,1,.69-.69h.1l2.13.3a.69.69,0,0,1,.52,1,1.43,1.43,0,0,0-.09.38l0,.33c-.12,1-.19,1.56-.42,2.8a.14.14,0,0,0,0,.12.14.14,0,0,0,.1,0,13.06,13.06,0,0,1,2.22-.21c3.82,0,4.34,3.13,4.34,6.2,0,4.26-1,8.2-2.45,9.58A4.36,4.36,0,0,1,710.53,94.15ZM720.11,86a.69.69,0,0,1-.6-.35l-.78-1.4a.69.69,0,0,1,.39-1c.68-.22.81-.54.81-1,0-.71-1-3-3.83-6.4a.69.69,0,0,1,.14-1l1.1-.76a.69.69,0,0,1,.92.13c3.38,4.09,5,7.08,5,9.14,0,1.84-1.74,2.37-3,2.6Zm2.28-10a.69.69,0,0,1-.47-.26,12.89,12.89,0,0,0-1.2-1.35.69.69,0,0,1,.07-1l.29-.21a.69.69,0,0,1,.89.06,18.44,18.44,0,0,1,1.31,1.45.69.69,0,0,1-.09,1l-.29.24a.69.69,0,0,1-.44.16Zm3.26-1.75a.69.69,0,0,1-.56-.29,12.07,12.07,0,0,0-1.06-1.3.69.69,0,0,1,.1-1l.27-.2a.69.69,0,0,1,.87.05,13.84,13.84,0,0,1,1.29,1.38.69.69,0,0,1-.15,1l-.38.25A.68.68,0,0,1,725.65,74.21Z"/><path class="cls-2" d="M746.31,95.94a.69.69,0,0,1-.54-.26l-1-1.26a.69.69,0,0,1,.39-1.1,8.08,8.08,0,0,0,3.93-2A5.84,5.84,0,0,0,750.9,87a4.48,4.48,0,0,0-3.11-4.32h-.06c-.08,0-.12,0-.14.06a27.19,27.19,0,0,1-4.94,7.64.14.14,0,0,0,0,.13c.12.39.19.61.27.88l.1.29a.69.69,0,0,1-.33.82l-1.5.82a.69.69,0,0,1-1-.39l-.07-.21a.13.13,0,0,0-.08-.09h-.12a8.47,8.47,0,0,1-4.28,1.5c-1.92,0-3.21-1.54-3.21-3.82,0-.94.32-5.81,6.57-9.26a.14.14,0,0,0,.07-.11c.05-1,.12-1.69.24-2.8l.06-.57a.14.14,0,0,0-.14-.15c-1.7.08-2.49.09-3.76.09h0a.69.69,0,0,1-.65-.47l-.42-1.25a.69.69,0,0,1,.65-.91h.05c.78.06,2,.13,3.28.13l1.28,0a.14.14,0,0,0,.13-.12c.31-1.86.56-3,.91-4.33a.69.69,0,0,1,.67-.52l.18,0,1.85.5a.69.69,0,0,1,.45.93,23.3,23.3,0,0,0-.92,2.93.13.13,0,0,0,0,.13.14.14,0,0,0,.1,0,31.22,31.22,0,0,0,6.39-1.6.69.69,0,0,1,.93.64v1.42a.69.69,0,0,1-.5.66,41,41,0,0,1-7.42,1.44.14.14,0,0,0-.12.12l-.05.33c-.14.84-.18,1.08-.31,2.17a.14.14,0,0,0,.14.15,12.63,12.63,0,0,1,2.59-.25h.72a.14.14,0,0,0,.15-.1c.08-.3.14-.55.19-.79a.69.69,0,0,1,.67-.53l.15,0,1.79.39a.69.69,0,0,1,.5.9l-.18.52a.14.14,0,0,0,0,.11.14.14,0,0,0,.08.07c3.52,1.2,5.39,3.57,5.39,6.87,0,4.28-2.57,7.23-7.65,8.75Zm-7.46-11.81a.14.14,0,0,0-.09,0c-2.93,2.45-3.55,4.37-3.55,5.56s.41,1.57,1.26,1.57A4.76,4.76,0,0,0,739.31,90l.08-.06a.14.14,0,0,0,.05-.13,43.4,43.4,0,0,1-.46-5.56.14.14,0,0,0-.08-.12Zm5.22-2.08a6.82,6.82,0,0,0-2.24.35.14.14,0,0,0-.1.13,30.68,30.68,0,0,0,.14,4.25v.15a.14.14,0,0,0,.1.12h0a.14.14,0,0,0,.13-.06,24.59,24.59,0,0,0,2.51-4.74.14.14,0,0,0,0-.13.14.14,0,0,0-.11-.06Z"/><path class="cls-2" d="M771.34,95c-3.41,0-5.62-1.58-5.62-4A4.14,4.14,0,0,1,770.07,87c3.08,0,5,2.36,5.88,3.49a.17.17,0,0,0,.1.06l.11,0a5.47,5.47,0,0,0,2.05-4.15c0-2.83-2.63-4.13-5.07-4.13a8.43,8.43,0,0,0-3.54.78,29.86,29.86,0,0,0-5.71,4.87.69.69,0,0,1-.49.2h0a.69.69,0,0,1-.49-.21l-1.33-1.4a.69.69,0,0,1,.08-1A60.58,60.58,0,0,0,772.21,75a.14.14,0,0,0-.11-.22,27.45,27.45,0,0,1-6.44.75h0A.69.69,0,0,1,765,75l-.34-1.67a.69.69,0,0,1,.67-.83h0c.57,0,1.64.1,2.34.1a37.17,37.17,0,0,0,8.67-1.32.68.68,0,0,1,.79.28l.84,1.31a.69.69,0,0,1-.13.9,85.46,85.46,0,0,0-6.21,6.06.14.14,0,0,0,.1.23,24.38,24.38,0,0,1,3-.18,6.54,6.54,0,0,1,6.62,6.59C781.32,91.24,776.94,95,771.34,95Zm-1.16-5.54a1.48,1.48,0,0,0-1.66,1.42c0,1.11,1.36,1.51,2.63,1.51a8.13,8.13,0,0,0,1.92-.24l.17,0a.14.14,0,0,0,.1-.08.14.14,0,0,0,0-.12C772.94,91.14,772,89.43,770.19,89.43Z"/><path class="cls-2" d="M794.32,95.53a.69.69,0,0,1-.63-.42l-.82-1.91a.69.69,0,0,1,.63-1h.08a21.12,21.12,0,0,0,2.4.16c5.76,0,8.39-3.05,8.39-5.89,0-2-1.56-3.33-4-3.33-1.19,0-4.35.43-8,4.44a.69.69,0,0,1-.83.15l-1.6-.85a.69.69,0,0,1-.36-.66,56.14,56.14,0,0,1,2.08-10.19.69.69,0,0,1,.91-.45l1.91.75a.69.69,0,0,1,.4.87,38.3,38.3,0,0,0-1.57,6,.14.14,0,0,0,.07.14h.08a.11.11,0,0,0,.08,0,11.68,11.68,0,0,1,7.4-3,6.44,6.44,0,0,1,6.62,6.53c0,7.43-7.56,8.53-13.25,8.71Zm5.91-19.59a.69.69,0,0,1-.36-.1,27.46,27.46,0,0,0-5.46-2.55.69.69,0,0,1-.39-.92l.66-1.52a.69.69,0,0,1,.63-.41.7.7,0,0,1,.22,0,36.88,36.88,0,0,1,5.86,2.5.69.69,0,0,1,.29.9l-.82,1.68a.69.69,0,0,1-.42.36Z"/><path class="cls-2" d="M822.38,95.21A6.67,6.67,0,0,1,818,93.69c-1.43-1.25-1.87-2.79-1.87-10,0-.64,0-2.13.06-3.89.05-2.77.12-6.21.11-8.09A.69.69,0,0,1,817,71h.1l2.79.4a.69.69,0,0,1,.38,1.18,105,105,0,0,0-.9,12.28c0,1.53,0,4.39.6,5.46a3.11,3.11,0,0,0,2.8,1.35c.82,0,5.08-.29,8.42-6.12a.69.69,0,0,1,.47-.33h.12a.69.69,0,0,1,.44.16l1.62,1.34a.69.69,0,0,1,.12.93,20.93,20.93,0,0,1-5.6,5.64A10.91,10.91,0,0,1,822.38,95.21Z"/><path class="cls-2" d="M846.5,93a3.14,3.14,0,0,1-2.16-1c-2.09-2-3.06-5.63-3.06-11.32a29.63,29.63,0,0,1,.71-7,.69.69,0,0,1,.67-.54l.18,0,2,.54a.69.69,0,0,1,.31,1.15,29.78,29.78,0,0,0-.62,6.88c0,5.29,1.19,7.17,2.21,7.17s1.9-2,2.61-3.7a.69.69,0,0,1,.48-.41l.15,0a.69.69,0,0,1,.46.17l1.2,1.07a.69.69,0,0,1,.17.8C850.13,90.31,848.71,93,846.5,93Zm16.12-5.62a.69.69,0,0,1-.68-.58A27.86,27.86,0,0,0,858.06,76a.69.69,0,0,1,.29-1l1.67-.81a.68.68,0,0,1,.3-.07.69.69,0,0,1,.57.3,25.44,25.44,0,0,1,4.47,11.57.69.69,0,0,1-.51.76l-2.06.53Z"/><path class="cls-2" d="M876.58,97A5.39,5.39,0,1,1,882,91.57,5.41,5.41,0,0,1,876.58,97Zm0-7.95A2.56,2.56,0,0,0,874,91.57,2.56,2.56,0,1,0,876.58,89Z"/><path class="cls-2" d="M470.38,240.92a.88.88,0,0,1-.9-.9v-3.11a1.12,1.12,0,0,1,.35-.88l9.92-12.37a6.23,6.23,0,0,0,1.72-4,3,3,0,0,0-3.25-3.25,3.17,3.17,0,0,0-3.34,3.11.82.82,0,0,1-.81.71h-.15l-3.71-.69a1,1,0,0,1-.57-.36.94.94,0,0,1-.16-.69c.4-3.54,3.3-7.17,8.86-7.17,5.25,0,8.78,3.36,8.78,8.37a10.45,10.45,0,0,1-2.77,6.91l-7.63,9.25h9.5a.88.88,0,0,1,.9.9V240a.88.88,0,0,1-.9.9Z"/><path class="cls-2" d="M503.28,241.38c-4.26,0-7.27-2.08-8.47-5.86-.38-1.17-.6-2.37-.6-9.19s.23-8,.6-9.19c1.2-3.77,4.21-5.85,8.47-5.85s7.27,2.08,8.51,5.85c.38,1.17.6,2.37.6,9.2s-.23,8-.6,9.19C510.55,239.3,507.53,241.38,503.28,241.38Zm0-25a2.86,2.86,0,0,0-3,1.92c-.27.81-.34,1.9-.34,8s.07,7.2.35,8a2.83,2.83,0,0,0,3,1.91,2.89,2.89,0,0,0,3-1.92c.27-.81.34-1.9.34-8s-.07-7.2-.35-8A2.86,2.86,0,0,0,503.28,216.41Z"/><path class="cls-2" d="M526.44,240.92a.88.88,0,0,1-.9-.9V218.66l-3.56,2.5a.81.81,0,0,1-1.28-.67v-4.16a1.16,1.16,0,0,1,.47-1l4.54-3.29a1.54,1.54,0,0,1,1-.34h3.53a.88.88,0,0,1,.9.9V240a.88.88,0,0,1-.9.9Z"/><path class="cls-2" d="M544.63,240.92a.81.81,0,0,1-.76-1.11l9-23h-6.12v3a.88.88,0,0,1-.9.9h-3.57a.88.88,0,0,1-.9-.9v-7.22a.88.88,0,0,1,.9-.9h15.81a.88.88,0,0,1,.9.9v3.24a2.36,2.36,0,0,1-.16.93l-9.33,23.44a1.19,1.19,0,0,1-.3.46.82.82,0,0,1-.3.17,1.31,1.31,0,0,1-.39,0Z"/><rect class="cls-2" x="566.83" y="234.53" width="5.95" height="6.03" rx="0.9" ry="0.9"/><path class="cls-2" d="M588.94,240.92a.88.88,0,0,1-.9-.9V218.66l-3.56,2.5a.81.81,0,0,1-1.28-.67v-4.16a1.16,1.16,0,0,1,.47-1l4.54-3.29a1.54,1.54,0,0,1,1-.34h3.53a.88.88,0,0,1,.9.9V240a.88.88,0,0,1-.9.9Z"/><path class="cls-2" d="M615.66,241.38c-4.26,0-7.27-2.08-8.47-5.86-.38-1.17-.6-2.37-.6-9.19s.23-8,.6-9.19c1.2-3.77,4.21-5.85,8.47-5.85s7.27,2.08,8.51,5.85c.38,1.17.6,2.37.6,9.2s-.23,8-.6,9.19C622.93,239.3,619.91,241.38,615.66,241.38Zm0-25a2.86,2.86,0,0,0-3,1.92c-.27.81-.34,1.9-.34,8s.07,7.2.35,8a2.83,2.83,0,0,0,3,1.91,2.89,2.89,0,0,0,3-1.92c.27-.81.34-1.9.34-8s-.07-7.2-.35-8A2.86,2.86,0,0,0,615.66,216.41Z"/><rect class="cls-2" x="632.57" y="234.53" width="5.95" height="6.03" rx="0.9" ry="0.9"/><path class="cls-2" d="M647.42,240.92a.88.88,0,0,1-.9-.9v-3.11a1.12,1.12,0,0,1,.35-.88l9.92-12.37a6.23,6.23,0,0,0,1.72-4,3,3,0,0,0-3.25-3.25,3.17,3.17,0,0,0-3.34,3.11.81.81,0,0,1-.81.71H651l-3.71-.69a.81.81,0,0,1-.59-.46.89.89,0,0,1-.13-.61c.4-3.54,3.29-7.15,8.85-7.15,5.25,0,8.78,3.36,8.78,8.37a10.45,10.45,0,0,1-2.77,6.91l-7.63,9.25h9.5a.88.88,0,0,1,.9.9V240a.88.88,0,0,1-.9.9Z"/><path class="cls-2" d="M681.41,241.38c-5.63,0-9.57-3.68-9.57-8.95a8.43,8.43,0,0,1,3.24-6.82,7.65,7.65,0,0,1-2.62-5.79c0-4.11,2.8-8.53,8.95-8.53s9,4.42,9,8.53a7.65,7.65,0,0,1-2.62,5.79,8.42,8.42,0,0,1,3.24,6.82C691,237.7,687.07,241.38,681.41,241.38Zm0-13.19a4,4,0,1,0,4,4A3.76,3.76,0,0,0,681.41,228.19Zm0-11.78a3.33,3.33,0,1,0,3.33,3.33A3.24,3.24,0,0,0,681.41,216.41Z"/><path class="cls-2" d="M732.93,228.06h-11.4a1,1,0,0,1-.6-.18.81.81,0,0,1-.33-.66l0-2.2a.82.82,0,0,1,.81-.8h11.49a1,1,0,0,1,.6.18.81.81,0,0,1,.33.66l0,2.2a.82.82,0,0,1-.81.8Z"/><path class="cls-2" d="M748.37,240.92a.88.88,0,0,1-.9-.9v-3.11a1.12,1.12,0,0,1,.35-.88l9.92-12.37a6.23,6.23,0,0,0,1.72-4,3,3,0,0,0-3.25-3.25,3.17,3.17,0,0,0-3.34,3.11.81.81,0,0,1-.81.71h-.15l-3.71-.69a.81.81,0,0,1-.59-.46.89.89,0,0,1-.13-.61c.4-3.54,3.29-7.15,8.85-7.15,5.25,0,8.78,3.36,8.78,8.37a10.45,10.45,0,0,1-2.77,6.91l-7.63,9.25h9.5a.88.88,0,0,1,.9.9V240a.88.88,0,0,1-.9.9Z"/><path class="cls-2" d="M777.71,240.92a.81.81,0,0,1-.71-1.21l5.68-10.31a7.62,7.62,0,0,1-1.28.11,8.4,8.4,0,0,1-8.53-8.82c0-5.62,3.81-9.4,9.49-9.4s9.49,3.7,9.49,9.2a13.89,13.89,0,0,1-1.93,6.71l-7.34,13.23-.06.09a1,1,0,0,1-.86.4Zm4.64-24.52a4,4,0,1,0,3.83,4A3.65,3.65,0,0,0,782.35,216.41Z"/><path class="cls-2" d="M702.3,221.23c-2.07,0-3.41-1.61-3.41-4.1a6.09,6.09,0,0,1,1.42-3.94.35.35,0,0,1,.25-.11.34.34,0,0,1,.22.08l1.13.92a.35.35,0,0,1,.05.48,4.41,4.41,0,0,0-1.06,2.7c0,1.07.49,1.74,1.28,1.74.51,0,1-.21,1.22-1.71l.08-.55c.37-2.72,1.92-3.29,3.16-3.29,2,0,3.32,1.49,3.32,3.7a5.91,5.91,0,0,1-1.08,3.47.35.35,0,0,1-.46.08l-1.15-.73a.35.35,0,0,1-.11-.48,4.33,4.33,0,0,0,.77-2.39c0-.88-.45-1.42-1.18-1.42-.44,0-1,.2-1.2,1.72l-.08.55C705.21,220.13,704.13,221.23,702.3,221.23Z"/><path class="cls-2" d="M699.41,232a.35.35,0,0,1-.35-.35v-1.45a.35.35,0,0,1,.23-.33l1.93-.7v-3.6l-1.86-.64a.35.35,0,0,1-.24-.32l-.06-1.54a.35.35,0,0,1,.14-.29.34.34,0,0,1,.21-.07l.12,0,10,3.57a.35.35,0,0,1,.23.31l.06,1.46a.35.35,0,0,1-.23.34l-10,3.55Zm3.81-3.5,3.24-1.11-3.24-1.11Z"/><path class="cls-2" d="M708.14,240.62a.35.35,0,0,1-.35-.35v-2.6h-8.36a.35.35,0,0,1-.35-.34v-1.5a.35.35,0,0,1,.35-.35h8.37v-2.59a.35.35,0,0,1,.34-.35h1.32a.35.35,0,0,1,.35.35v7.39a.35.35,0,0,1-.1.25.39.39,0,0,1-.26.11Z"/><path class="cls-2" d="M802.87,220.41c-2.06,0-3.4-1.6-3.4-4.08a6.07,6.07,0,0,1,1.42-3.93.32.32,0,0,1,.43,0l1.14.92a.32.32,0,0,1,.05.44,4.55,4.55,0,0,0-1.06,2.73c0,1.08.5,1.76,1.3,1.76.5,0,1-.21,1.24-1.72l.08-.55c.37-2.71,1.91-3.28,3.14-3.28,2,0,3.31,1.48,3.31,3.68a5.88,5.88,0,0,1-1.07,3.46.32.32,0,0,1-.25.13.32.32,0,0,1-.17,0l-1.16-.73a.32.32,0,0,1-.1-.44,4.4,4.4,0,0,0,.77-2.41c0-.89-.46-1.44-1.19-1.44-.45,0-1,.2-1.21,1.74l-.08.55C805.76,219.31,804.69,220.41,802.87,220.41Z"/><path class="cls-2" d="M803.46,230.39a4,4,0,0,1,0-8H810a.32.32,0,0,1,.32.31l0,1.51a.32.32,0,0,1-.32.32l-6.54,0a1.84,1.84,0,1,0,0,3.65H810a.32.32,0,0,1,.32.31l0,1.51a.32.32,0,0,1-.09.23.39.39,0,0,1-.25.12Z"/><path class="cls-2" d="M800,241a.32.32,0,0,1-.32-.31l0-1.4a.46.46,0,0,1,.25-.43l6.62-3.93H800a.32.32,0,0,1-.32-.31l0-1.34a.32.32,0,0,1,.09-.23.32.32,0,0,1,.23-.1l10,0a.32.32,0,0,1,.32.31l0,1.42a.46.46,0,0,1-.25.43L803.48,239H810a.32.32,0,0,1,.32.31l0,1.34a.31.31,0,0,1-.09.23.39.39,0,0,1-.25.12Z"/><polyline class="cls-4" points="728.5 218.25 736.5 226.25 728.5 234.25"/><path class="cls-2" d="M593,281.5a1,1,0,1,1-1,1,1,1,0,0,1,1-1m0-1.5a2.5,2.5,0,1,0,2.5,2.5A2.5,2.5,0,0,0,593,280Z"/></g></g></svg>