<svg xmlns="http://www.w3.org/2000/svg" viewBox="0 0 642 64.88"><defs><style>.cls-1{fill:#fff;}</style></defs><title>アセット 1100</title><g id="レイヤー_2" data-name="レイヤー 2"><g id="レイヤー_1-2" data-name="レイヤー 1"><path class="cls-1" d="M597.66.07H559a5.33,5.33,0,0,0-2,1.1l-5.88,4.58a4.14,4.14,0,0,0-1.41,2.88V18c0,1,.63,1.29,1.41.69L559.69,12a6.08,6.08,0,0,1,3.2-1.1H576c1,0,1.15.49.38,1.1L569,17.76a2.42,2.42,0,0,1-2.82,0l-2.66-2.07a2.33,2.33,0,0,0-2.79,0l-5.28,4.37a1.38,1.38,0,0,0,0,2.24l2.39,1.86a1.33,1.33,0,0,1,0,2.19L551,31.61a4.14,4.14,0,0,0-1.41,2.88v9.35c0,1,.63,1.29,1.41.69L606.78,1.1c.78-.6.61-1.1-.38-1.1Z"/><path class="cls-1" d="M531,25.67a2.11,2.11,0,0,0,1.77-2V16.36a1.52,1.52,0,0,0-1.48-1.56l-.29,0-24.36,3.35a1.52,1.52,0,0,1-1.77-1.54V1.86A1.79,1.79,0,0,0,503.08.07H491.36a1.79,1.79,0,0,0-1.79,1.79V63.08a1.79,1.79,0,0,0,1.79,1.79H531a1.79,1.79,0,0,0,1.79-1.79V55.83A1.79,1.79,0,0,0,531,54H506.69a1.79,1.79,0,0,1-1.79-1.79V31a2.11,2.11,0,0,1,1.77-2Z"/><path class="cls-1" d="M375.88,33.36,362.65,22.12a1.19,1.19,0,0,1,.77-2.1h27.81a1.19,1.19,0,0,1,.77,2.1L378.77,33.36a2.23,2.23,0,0,1-2.89,0m47.63-15.12V11a1.79,1.79,0,0,0-1.79-1.79h-35A1.79,1.79,0,0,1,385,7.36V1.86A1.79,1.79,0,0,0,383.21.07h-11.8a1.79,1.79,0,0,0-1.79,1.79v5.5a1.79,1.79,0,0,1-1.79,1.79h-34.9a1.79,1.79,0,0,0-1.79,1.79v7.25A1.79,1.79,0,0,0,332.93,20h5.41a1.49,1.49,0,0,1,1,.35L365.13,42.2a1.79,1.79,0,0,1,0,2.72L345.39,61.68a1.79,1.79,0,0,0,1.16,3.15h15.81a1.49,1.49,0,0,0,1-.35l12.88-10.92a1.79,1.79,0,0,1,2.31,0l12.88,10.92a1.48,1.48,0,0,0,1,.35h15.81a1.79,1.79,0,0,0,1.16-3.15L389.66,44.92a1.79,1.79,0,0,1,0-2.72l25.68-21.84a1.49,1.49,0,0,1,1-.35h5.41a1.79,1.79,0,0,0,1.79-1.79"/><path class="cls-1" d="M563.91,42a1.79,1.79,0,0,0-1.79,1.79v7.25a1.79,1.79,0,0,0,1.79,1.79h22.51a1.79,1.79,0,0,1,1.79,1.79v8.43A1.79,1.79,0,0,0,590,64.86h11.76a1.79,1.79,0,0,0,1.79-1.79V54.64a1.79,1.79,0,0,1,1.79-1.79h22.51a1.79,1.79,0,0,0,1.79-1.79V43.81A1.79,1.79,0,0,0,627.85,42Z"/><rect class="cls-1" x="581.03" y="26.37" width="29.69" height="10.82" rx="1.79" ry="1.79"/><rect class="cls-1" x="556.87" y="57.68" width="20.58" height="7.18" rx="1.79" ry="1.79"/><rect class="cls-1" x="614.29" y="57.68" width="20.58" height="7.18" rx="1.79" ry="1.79"/><path class="cls-1" d="M472.72.09a1.22,1.22,0,0,1,1.47,1.24v8a1.85,1.85,0,0,1-1.46,1.75l-6.48,1.17A1.84,1.84,0,0,0,464.79,14L465,52.51A1.5,1.5,0,0,0,466.5,54h3.16a1.49,1.49,0,0,1,1.49,1.49v7.87a1.49,1.49,0,0,1-1.49,1.49H444.89a1.49,1.49,0,0,1-1.49-1.49V55.51A1.49,1.49,0,0,1,444.89,54H448a1.49,1.49,0,0,0,1.48-1.49l-.1-35.75a1.23,1.23,0,0,0-1.47-1.24l-6.08,1a1.2,1.2,0,0,1-1.45-1.24l.1-8.24A1.86,1.86,0,0,1,442,5.32Z"/><path class="cls-1" d="M618.83,14.73l-2.3-1.79a.74.74,0,0,1,0-1.19l1-.71a.73.73,0,0,1,.44-.15h3.81a1.19,1.19,0,0,1,.73,2.13l-2.19,1.71a1.19,1.19,0,0,1-1.46,0M640.25.07h-23.8a1.79,1.79,0,0,0-1.09.37l-14,10.76a1.79,1.79,0,0,0,0,2.83l37.76,29.42A1.79,1.79,0,0,0,642,42v-8.4a1.79,1.79,0,0,0-.69-1.41l-11.61-9a1.79,1.79,0,0,1,0-2.82l11.6-8.94A1.79,1.79,0,0,0,642,10V1.86A1.79,1.79,0,0,0,640.2.07"/><path class="cls-1" d="M32.35.09a1.22,1.22,0,0,1,1.47,1.24v8a1.85,1.85,0,0,1-1.46,1.75l-6.48,1.17A1.84,1.84,0,0,0,24.42,14l.21,38.51A1.5,1.5,0,0,0,26.13,54h3.16a1.49,1.49,0,0,1,1.49,1.49v7.87a1.49,1.49,0,0,1-1.49,1.49H4.52A1.49,1.49,0,0,1,3,63.39V55.51A1.49,1.49,0,0,1,4.49,54H7.58a1.49,1.49,0,0,0,1.48-1.49L9,16.78a1.23,1.23,0,0,0-1.47-1.24l-6.08,1A1.2,1.2,0,0,1,0,15.36L.1,7.12A1.86,1.86,0,0,1,1.58,5.38Z"/><path class="cls-1" d="M77.67.78a1.49,1.49,0,0,1,1.49,1.49v7.85a1.49,1.49,0,0,1-1.49,1.49h-3.1a1.49,1.49,0,0,0-1.49,1.49V52.55A1.49,1.49,0,0,0,74.57,54h6.25a1.49,1.49,0,0,0,1.49-1.49V40.6a1.49,1.49,0,0,1,1.49-1.49h7.15a1.49,1.49,0,0,1,1.49,1.49V63.36a1.49,1.49,0,0,1-1.49,1.49H39.81a1.49,1.49,0,0,1-1.49-1.49V40.6a1.49,1.49,0,0,1,1.49-1.49h7.28a1.49,1.49,0,0,1,1.49,1.49V52.55A1.49,1.49,0,0,0,50.07,54h6a1.49,1.49,0,0,0,1.49-1.49V13.1a1.49,1.49,0,0,0-1.49-1.49l-3-.26a1.49,1.49,0,0,1-1.49-1.49V2A1.49,1.49,0,0,1,53.07.52Z"/><path class="cls-1" d="M188.68,10.87h-9.94a1.79,1.79,0,0,0-1.49,2.78l3.3,4.95a1.79,1.79,0,0,1-1.49,2.78H137.61a1.79,1.79,0,0,1-1.07-3.21L142,14.06V3.66a1.79,1.79,0,0,0-2.86-1.43L115.26,20.16a1.79,1.79,0,0,0-.71,1.43v8.77a1.79,1.79,0,0,0,1.79,1.79h78.35a1.79,1.79,0,0,0,1.79-1.79V21.85a1.8,1.8,0,0,0-.29-1l-6-9.25a1.79,1.79,0,0,0-1.5-.81"/><path class="cls-1" d="M244.85,10.9a1.79,1.79,0,0,0,1.79-1.79V1.86A1.79,1.79,0,0,0,244.85.07H220.37a1.79,1.79,0,0,0-1.79,1.79V9.11a1.79,1.79,0,0,0,1.79,1.79h2.79a1.79,1.79,0,0,1,1.79,1.79V52.26A1.79,1.79,0,0,1,223.16,54h-2.79a1.79,1.79,0,0,0-1.79,1.79v7.25a1.79,1.79,0,0,0,1.79,1.79h24.48a1.79,1.79,0,0,0,1.79-1.79V55.84A1.79,1.79,0,0,0,244.85,54h-2.79a1.79,1.79,0,0,1-1.79-1.79V12.68a1.79,1.79,0,0,1,1.79-1.79Z"/><path class="cls-1" d="M181.14,52.25A1.79,1.79,0,0,1,179.35,54h-47.7a1.79,1.79,0,0,1-1.79-1.79h0V50a1.79,1.79,0,0,1,1.79-1.79h47.7A1.79,1.79,0,0,1,181.14,50h0ZM116.33,37.42a1.79,1.79,0,0,0-1.79,1.79h0V63.08a1.79,1.79,0,0,0,1.79,1.79h78.36a1.79,1.79,0,0,0,1.79-1.79V39.2a1.79,1.79,0,0,0-1.79-1.79Z"/><path class="cls-1" d="M271.67,64.6a1.49,1.49,0,0,1-1.49-1.49V55.26a1.49,1.49,0,0,1,1.49-1.49h3.1a1.49,1.49,0,0,0,1.49-1.49V12.83a1.49,1.49,0,0,0-1.49-1.49h-6.25A1.49,1.49,0,0,0,267,12.83V24.78a1.49,1.49,0,0,1-1.49,1.49H258.4a1.49,1.49,0,0,1-1.49-1.49V2A1.49,1.49,0,0,1,258.4.52h51.13A1.49,1.49,0,0,1,311,2V24.78a1.49,1.49,0,0,1-1.49,1.49h-7.28a1.49,1.49,0,0,1-1.49-1.49V12.83a1.49,1.49,0,0,0-1.49-1.49h-6a1.49,1.49,0,0,0-1.49,1.49V52.28a1.49,1.49,0,0,0,1.49,1.49l3,.26a1.49,1.49,0,0,1,1.49,1.49v7.84a1.49,1.49,0,0,1-1.49,1.49Z"/></g></g></svg>