<svg xmlns="http://www.w3.org/2000/svg" viewBox="0 0 750 729.37"><defs><style>.cls-1{fill:#8fc41f;}.cls-2{fill:#fff;}.cls-3,.cls-4{fill:none;stroke:#fff;stroke-linecap:round;stroke-linejoin:round;}.cls-3{stroke-width:0.6px;}.cls-4{stroke-width:4.26px;}</style></defs><title>headerit_top_sp</title><g id="レイヤー_2" data-name="レイヤー 2"><g id="bg"><rect class="cls-1" width="750" height="729.37"/></g><g id="content"><path class="cls-2" d="M160.25,597.41c-7.65,0-13-5.28-13-12.85s5.34-12.86,13-12.86,13,5.29,13,12.86c0,4.24-2.1,7-5.35,7a4.17,4.17,0,0,1-3.89-2,.13.13,0,0,0-.11-.07.2.2,0,0,0-.15.07c-.47.92-1.59,2-4.26,2a4.45,4.45,0,0,1-4.66-3.15,15.91,15.91,0,0,1,0-7.31,4.36,4.36,0,0,1,4.52-3.15,4,4,0,0,1,3.48,1.62.13.13,0,0,0,.11.06.22.22,0,0,0,.2-.13v-.54a.65.65,0,0,1,.65-.65h1.4a.65.65,0,0,1,.65.65v7.71c0,2.28,1.58,2.46,2.06,2.46,1.7,0,2.56-1.52,2.56-4.52,0-6.23-4.1-10.42-10.21-10.42S150,578.23,150,584.56s4,10.4,10.21,10.4a15.65,15.65,0,0,0,6.75-1.32.65.65,0,0,1,.86.34l.43,1a.65.65,0,0,1-.31.84A16.49,16.49,0,0,1,160.25,597.41Zm-.07-17a2.67,2.67,0,0,0-2.75,2,7.34,7.34,0,0,0-.24,2.37,7.76,7.76,0,0,0,.24,2.4,2.65,2.65,0,0,0,2.75,1.92,2.6,2.6,0,0,0,2.72-1.92,7.78,7.78,0,0,0,.24-2.4,7.34,7.34,0,0,0-.24-2.37A2.6,2.6,0,0,0,160.18,580.37Z"/><path class="cls-2" d="M191.24,594.18a.65.65,0,0,1-.65-.65v-6a.13.13,0,0,0-.08-.12h0a.12.12,0,0,0-.1,0,25.82,25.82,0,0,1-7.92,6.1.65.65,0,0,1-.74-.1l-1.18-1.09a.65.65,0,0,1,.2-1.08c2.31-.94,4.38-2.19,7.56-5.5a.13.13,0,0,0-.09-.22h-4.47a.65.65,0,0,1-.65-.65v-7.95a.65.65,0,0,1,.65-.65h6.74a.13.13,0,0,0,.13-.13v-1.53a.13.13,0,0,0-.13-.13h-9.74a.65.65,0,0,1-.65-.65v-1.17a.65.65,0,0,1,.65-.65h9.74a.13.13,0,0,0,.13-.13v-1.56a.65.65,0,0,1,.65-.65l1.93.13a.65.65,0,0,1,.6.78v1.31a.13.13,0,0,0,.13.13h9.74a.65.65,0,0,1,.65.65v1.17a.65.65,0,0,1-.65.65h-9.74a.13.13,0,0,0-.13.13v1.53a.13.13,0,0,0,.13.13h6.83a.65.65,0,0,1,.65.65v7.95a.65.65,0,0,1-.65.65H195.9a.13.13,0,0,0-.09.22c1.69,1.74,3.49,3.15,7.63,5.19a.65.65,0,0,1,.19,1l-1.17,1.27a.65.65,0,0,1-.78.14,24.48,24.48,0,0,1-7.71-5.84.13.13,0,0,0-.1,0c-.1,0-.13.08-.13.13v5.91a.65.65,0,0,1-.65.65Zm2.65-12.37a.13.13,0,0,0-.13.13v1.39a.13.13,0,0,0,.13.13h4.3a.13.13,0,0,0,.13-.13v-1.39a.13.13,0,0,0-.13-.13Zm-7.67,0a.13.13,0,0,0-.13.13v1.39a.13.13,0,0,0,.13.13h4.24a.13.13,0,0,0,.13-.13v-1.39a.13.13,0,0,0-.13-.13Zm7.67-3.63a.13.13,0,0,0-.13.13v1.33a.13.13,0,0,0,.13.13h4.3a.13.13,0,0,0,.13-.13v-1.33a.13.13,0,0,0-.13-.13Zm-7.67,0a.13.13,0,0,0-.13.13v1.33a.13.13,0,0,0,.13.13h4.24a.13.13,0,0,0,.13-.13v-1.33a.13.13,0,0,0-.13-.13Z"/><path class="cls-2" d="M219.38,594a.65.65,0,0,1-.65-.65V589a.13.13,0,0,0-.05-.11l-.12,0c-1.37.48-4.14,1.36-4.48,1.44a7.68,7.68,0,0,0-1.49.46.65.65,0,0,1-.95-.4l-.51-1.92a.65.65,0,0,1,.5-.81c1.68-.33,4.27-.89,7-1.69a.13.13,0,0,0,.09-.12v-7a.13.13,0,0,0-.13-.13H212a.65.65,0,0,1-.65-.65v-1.87a.65.65,0,0,1,.65-.65h6.63a.13.13,0,0,0,.13-.13v-5a.65.65,0,0,1,.65-.65l2,.15a.65.65,0,0,1,.57.85.61.61,0,0,0,0,.19v22.46a.65.65,0,0,1-.65.65Zm8.24-.46a2.42,2.42,0,0,1-2.75-2.75V570.43a.65.65,0,0,1,.65-.65l1.82.1a.65.65,0,0,1,.53,1,.45.45,0,0,0-.06.22v7.53a.13.13,0,0,0,.07.12l.14,0a28.2,28.2,0,0,0,4.79-4.56.65.65,0,0,1,.9-.1l1.61,1.25a.65.65,0,0,1,0,1.06,19.47,19.47,0,0,0-2,1.86,60.7,60.7,0,0,1-5.41,4.46.13.13,0,0,0-.05.1v6.63c0,1,.41,1.46,1.34,1.46h2.1c1.1,0,1.64-.66,2-2.43a.65.65,0,0,1,.93-.46l1.29.65a.65.65,0,0,1,.36.65c-.37,3.72-2,4.27-2.88,4.27Z"/><path class="cls-2" d="M244.79,594.43a.65.65,0,0,1-.43-.17l-1.52-1.36a.65.65,0,0,1,.17-1.08c5.48-2.48,8.22-5.9,9.74-12.18a.13.13,0,0,0-.13-.16h-9.22a.65.65,0,0,1-.65-.65v-1.55a.65.65,0,0,1,.65-.65H253a.13.13,0,0,0,.13-.12c.08-.84.12-1.91.12-3.18,0-1,0-2-.07-3a.65.65,0,0,1,.65-.68l2.27.12a.65.65,0,0,1,.56.92l0,.31a10.85,10.85,0,0,0,0,1.42c0,.23-.06,2.7-.12,4.06a.13.13,0,0,0,.13.14h10.06a.65.65,0,0,1,.65.65v1.55a.65.65,0,0,1-.65.65h-9.77a.13.13,0,0,0-.12.17c1.64,5.16,3.65,8.39,10.11,11.72a.65.65,0,0,1,.15,1.05L265.28,594a.65.65,0,0,1-.79.08c-5.54-3.47-7.42-6.1-9.3-10.32a.13.13,0,0,0-.24,0c-2.59,5.44-5.18,8.21-9.87,10.6A.65.65,0,0,1,244.79,594.43Z"/><path class="cls-2" d="M283.53,594.59a.65.65,0,0,1-.6-.4l-.58-1.39a.65.65,0,0,1,.6-.9H283c.51,0,.88.07,1,.07.49,0,.82-.4.82-1v-3.12a.13.13,0,0,0-.13-.13h-9.17a.65.65,0,0,1-.65-.65v-1.26a.65.65,0,0,1,.65-.65h9.17a.13.13,0,0,0,.13-.13v-.87a.65.65,0,0,1,.65-.65h.11l.48.08.11,0a5.35,5.35,0,0,0,1.12-1.24.13.13,0,0,0,0-.13.13.13,0,0,0-.11-.07H280.3a.65.65,0,0,1-.65-.65v-1.12a.65.65,0,0,1,.65-.65h11.85a.65.65,0,0,1,.55.3l.22.35a.65.65,0,0,1-.12.84c-1.19,1-3.14,2.66-4.62,3.73a.13.13,0,0,0,.08.24h9a.65.65,0,0,1,.65.65v1.26a.65.65,0,0,1-.65.65h-9a.13.13,0,0,0-.13.13v4.36c0,1.6-1.08,2.38-3.3,2.38Zm-8-12.86a.65.65,0,0,1-.65-.65v-4.72a.65.65,0,0,1,.65-.65h13.52a.13.13,0,0,0,.1,0,24.66,24.66,0,0,0,3.25-4.83.65.65,0,0,1,.79-.33l1.4.47a.65.65,0,0,1,.27,1.06,24.82,24.82,0,0,1-2.26,3.47.13.13,0,0,0,0,.14.13.13,0,0,0,.12.07h4.64a.65.65,0,0,1,.65.65v4.58a.65.65,0,0,1-.65.65h-1.61a.65.65,0,0,1-.65-.65v-2.68a.13.13,0,0,0-.13-.13H277.9a.13.13,0,0,0-.13.13v2.82a.65.65,0,0,1-.65.65Zm3.94-6.88-.17,0a.65.65,0,0,1-.41-.32,17,17,0,0,0-1.56-2.42.65.65,0,0,1,.18-1l1.32-.81a.65.65,0,0,1,.84.14,17.06,17.06,0,0,1,1.76,2.53.65.65,0,0,1-.22.87l-1.4.88A.65.65,0,0,1,279.51,574.85Zm6.57-.52-.19,0a.65.65,0,0,1-.38-.32,19.12,19.12,0,0,0-1.79-2.78.65.65,0,0,1,.18-1l1.28-.76a.65.65,0,0,1,.84.15,19.37,19.37,0,0,1,2,3,.65.65,0,0,1-.27.89l-1.38.73A.65.65,0,0,1,286.08,574.33Z"/><path class="cls-2" d="M307.91,594.06a.65.65,0,0,1-.2,0l-1.88-.61a.65.65,0,0,1-.34-1,17.08,17.08,0,0,0,2.58-9.6V570.95a.65.65,0,0,1,.65-.65l2,0a.65.65,0,0,1,.58.92.61.61,0,0,0-.05.26v10.38a27.54,27.54,0,0,1-1,7.84,15.52,15.52,0,0,1-1.8,4A.65.65,0,0,1,307.91,594.06ZM325.1,594a.65.65,0,0,1-.65-.65V570.44a.65.65,0,0,1,.65-.65l1.87.13a.65.65,0,0,1,.55.91.5.5,0,0,0,0,.21V593.3a.65.65,0,0,1-.65.65Zm-8.19-2.48a.65.65,0,0,1-.65-.65V572.21a.65.65,0,0,1,.65-.65l2,.15a.65.65,0,0,1,.56.87.47.47,0,0,0,0,.17v18.08a.65.65,0,0,1-.65.65Z"/><path class="cls-2" d="M355,594.18a.65.65,0,0,1-.61-.43l-.59-1.65a.65.65,0,0,1,.61-.87h.82c1.15,0,1.51-.26,1.51-1.05v-12.8a.13.13,0,0,0-.13-.13h-6.89a.13.13,0,0,0-.13.16,11.47,11.47,0,0,0,5.85,8.17.65.65,0,0,1,.12,1l-1.28,1.18a.65.65,0,0,1-.79.07,13.29,13.29,0,0,1-5.21-5.92.13.13,0,0,0-.23,0A18.14,18.14,0,0,1,343,588a.65.65,0,0,1-.85,0l-1.32-1.2a.65.65,0,0,1,.07-1,11.72,11.72,0,0,0,5.44-8.37.13.13,0,0,0,0-.11.13.13,0,0,0-.1,0h-6.34a.13.13,0,0,0-.13.13v15.83a.65.65,0,0,1-.65.65h-1.7a.65.65,0,0,1-.65-.65V575a.65.65,0,0,1,.65-.65h9.05a.13.13,0,0,0,.13-.13c0-2.28,0-3.14,0-3.8a.65.65,0,0,1,.65-.68l2,.07a.65.65,0,0,1,.56.93.6.6,0,0,0-.06.23c0,.25,0,1.31,0,3.25a.13.13,0,0,0,.13.13H359a.65.65,0,0,1,.65.65v16.32c0,2.26-.86,2.79-4.62,2.84Z"/><path class="cls-2" d="M369.59,594.21a.65.65,0,0,1-.65-.65V577.68a.65.65,0,0,1,.65-.65h8.24a.13.13,0,0,0,.13-.13v-2.37a.13.13,0,0,0-.13-.13h-9.74a.65.65,0,0,1-.65-.65v-1.2a.65.65,0,0,1,.65-.65h9.74a.13.13,0,0,0,.13-.13v-1.5a.65.65,0,0,1,.65-.65l2,.14a.65.65,0,0,1,.6.68c0,.06,0,1.32,0,1.32a.13.13,0,0,0,.13.13h9.89a.65.65,0,0,1,.65.65v1.2a.65.65,0,0,1-.65.65h-9.89a.13.13,0,0,0-.13.13v2.37a.13.13,0,0,0,.13.13h8.36a.65.65,0,0,1,.65.65v13.4c0,2.4-.82,3-4.2,3h0a.65.65,0,0,1-.61-.42l-.58-1.53a.65.65,0,0,1,.61-.88H386c1.32,0,1.43-.56,1.43-1.08V579.49a.13.13,0,0,0-.13-.13h-4.47a.72.72,0,0,1-.28.15.65.65,0,0,1,.21.09l1,.31a.65.65,0,0,1,.42.85,13,13,0,0,1-.5,1.22.13.13,0,0,0,.12.19h1a.65.65,0,0,1,.65.65v.94a.65.65,0,0,1-.65.65h-3.52a.13.13,0,0,0-.13.13v1.76a.13.13,0,0,0,.13.13h4.18a.65.65,0,0,1,.65.65v.8a.65.65,0,0,1-.65.65h-4.18a.13.13,0,0,0-.13.13v4.18a.65.65,0,0,1-.65.65h-1.84a.65.65,0,0,1-.65-.65v-4.18a.13.13,0,0,0-.13-.13H373.8a.65.65,0,0,1-.65-.65v-.8a.65.65,0,0,1,.65-.65h4.09a.13.13,0,0,0,.13-.13v-1.76a.13.13,0,0,0-.13-.13h-3.49a.65.65,0,0,1-.65-.65v-.94a.65.65,0,0,1,.65-.65h1a.13.13,0,0,0,.11-.06.13.13,0,0,0,0-.13l-.71-1.34a.65.65,0,0,1,.4-.93l.29-.08a.13.13,0,0,0,0-.26h-3.4a.13.13,0,0,0-.13.13v14.07a.65.65,0,0,1-.65.65Zm7.58-14.85a.13.13,0,0,0-.11.2,13.43,13.43,0,0,1,.75,1.38.65.65,0,0,1-.33.88l-.22.09a.13.13,0,0,0,.05.25h3.49a.13.13,0,0,0,.12-.07,16.58,16.58,0,0,0,.88-2.15.65.65,0,0,1,.4-.41.61.61,0,0,1-.3-.14Z"/><path class="cls-2" d="M410.56,593.81a.65.65,0,0,1-.64-.54l-1.42-8.41a.13.13,0,0,0-.13-.11l-8.62,1.11h-.08a.65.65,0,0,1-.64-.56l-.22-1.6a.65.65,0,0,1,.56-.73l8.48-1.11a.13.13,0,0,0,.09-.05.13.13,0,0,0,0-.1l-.63-3.72a.13.13,0,0,0-.13-.11l-6.22.82h-.09a.65.65,0,0,1-.64-.56l-.19-1.45a.65.65,0,0,1,.56-.73l6.11-.77a.13.13,0,0,0,.09-.05.13.13,0,0,0,0-.1l-.74-4.3a.65.65,0,0,1,.6-.76l1.8-.1a.65.65,0,0,1,.62.83.2.2,0,0,0,0,.11l.69,3.8a.13.13,0,0,0,.13.11l5.54-.71h.08a.65.65,0,0,1,.64.56l.21,1.45a.65.65,0,0,1-.56.74l-5.41.71a.13.13,0,0,0-.11.15l.66,3.69a.13.13,0,0,0,.13.11l7.63-1h.08a.65.65,0,0,1,.65.57l.21,1.62a.65.65,0,0,1-.56.73l-7.44,1a.13.13,0,0,0-.09.05.13.13,0,0,0,0,.1l1.45,8.21a.65.65,0,0,1-.51.75l-1.81.36Z"/><path class="cls-2" d="M434.88,594a.65.65,0,0,1-.64-.54l-1.84-10.32a.13.13,0,0,0-.05-.08l-.1,0-4.64,1h-.13a.65.65,0,0,1-.6-.41l-.44-1.11a.65.65,0,0,1,.48-.88l4.9-.95a.13.13,0,0,0,.1-.15l-.8-4.34a.65.65,0,0,1,.57-.76l1.41-.16h.07a.65.65,0,0,1,.64.79.35.35,0,0,0,0,.15l.78,3.81a.13.13,0,0,0,.13.1l6.77-1.3a1.33,1.33,0,0,0,.64-.32.65.65,0,0,1,.81,0l1.19.86a.65.65,0,0,1,.17.86c-1.09,1.82-2,3.4-3.53,6.05a.65.65,0,0,1-.82.28l-1.17-.5a.65.65,0,0,1-.31-.93c.21-.37.44-.75.94-1.57l.16-.27c.4-.66.5-.82,1-1.67a.13.13,0,0,0-.11-.2l-5.27,1.07a.13.13,0,0,0-.1.15l2,10.27a.65.65,0,0,1-.49.76L435,594Z"/><path class="cls-2" d="M453.06,592a.68.68,0,0,1-.56-.3l-1.25-2.15a.65.65,0,0,1,.4-1,27.49,27.49,0,0,0,9.74-4.76,39.11,39.11,0,0,0,7.83-8,.65.65,0,0,1,.52-.26h0a.65.65,0,0,1,.52.28l1,1.52a.65.65,0,0,1,0,.76,39.49,39.49,0,0,1-6.82,7.14,38.39,38.39,0,0,1-10.84,6.41.72.72,0,0,1-.56.29Zm2.89-14.92a.65.65,0,0,1-.4-.13,26.3,26.3,0,0,0-4.49-2.76.65.65,0,0,1-.26-.94l.91-1.4a.65.65,0,0,1,.82-.24,27.59,27.59,0,0,1,4.82,2.82.65.65,0,0,1,.14.89l-1,1.48a.65.65,0,0,1-.43.27Z"/><path class="cls-2" d="M479.66,590.44a.65.65,0,0,1-.24,0l-2.07-.81a.65.65,0,0,1-.26-1,31.73,31.73,0,0,0,6.48-14.11.65.65,0,0,1,.64-.52l.14,0,2.11.47a.65.65,0,0,1,.33,1.08,10.92,10.92,0,0,0-.52,1.76c-.1.38-.16.62-.19.73a38,38,0,0,1-5.91,12.19A.65.65,0,0,1,479.66,590.44Zm19.27-1.05a.65.65,0,0,1-.63-.49,42.53,42.53,0,0,0-6-13.19.65.65,0,0,1,.2-1l1.62-.92a.65.65,0,0,1,.85.19,53.14,53.14,0,0,1,6.68,13.56.65.65,0,0,1-.35.79l-2.11,1A.65.65,0,0,1,498.93,589.39Z"/><path class="cls-2" d="M510.54,592.05a.65.65,0,0,1-.47-.2l-1.36-1.4a.65.65,0,0,1,.2-1,24.94,24.94,0,0,0,8.22-5.81,23,23,0,0,0,4.87-7.78l.05-.13a.13.13,0,0,0,0-.12.13.13,0,0,0-.11-.06h-10.2a.65.65,0,0,1-.65-.65v-1.78a.65.65,0,0,1,.65-.65h11.65a2,2,0,0,0,1-.32.65.65,0,0,1,.81.13l1.21,1.34a.65.65,0,0,1-.05.93,3.4,3.4,0,0,0-1,1.29l-.07.17a34.13,34.13,0,0,1-3.26,6.27.13.13,0,0,0,0,.17,54.45,54.45,0,0,1,7.13,6.57.65.65,0,0,1,0,.89l-1.46,1.56a.65.65,0,0,1-.48.21h0a.65.65,0,0,1-.48-.23,44,44,0,0,0-6.49-6.54l-.1,0a.09.09,0,0,0-.08,0,27.28,27.28,0,0,1-9.31,7.12A.65.65,0,0,1,510.54,592.05Z"/><path class="cls-2" d="M542.73,591.77a.65.65,0,0,1-.45-.25,15.12,15.12,0,0,1-3.43-9.61,15,15,0,0,1,3.43-9.62.65.65,0,0,1,.45-.24h.06a.65.65,0,0,1,.43.16l.48.42a.65.65,0,0,1,.08.89,13.44,13.44,0,0,0,0,16.79.65.65,0,0,1-.08.89l-.47.42a.65.65,0,0,1-.43.16Z"/><path class="cls-3" d="M542.73,591.77a.65.65,0,0,1-.45-.25,15.12,15.12,0,0,1-3.43-9.61,15,15,0,0,1,3.43-9.62.65.65,0,0,1,.45-.24h.06a.65.65,0,0,1,.43.16l.48.42a.65.65,0,0,1,.08.89,13.44,13.44,0,0,0,0,16.79.65.65,0,0,1-.08.89l-.47.42a.65.65,0,0,1-.43.16Z"/><path class="cls-2" d="M555.26,590.72a5.58,5.58,0,0,1-5.74-4.06c-.33-1-.44-1.79-.44-4.54s.11-3.55.44-4.54a5.59,5.59,0,0,1,5.74-4.06,5.87,5.87,0,0,1,5.34,3,.65.65,0,0,1-.29.9l-1.15.55a.65.65,0,0,1-.85-.26,3.35,3.35,0,0,0-3.05-1.84,3.11,3.11,0,0,0-3.16,2.33,25.12,25.12,0,0,0,0,7.8,3.12,3.12,0,0,0,3.16,2.33,3.34,3.34,0,0,0,3.06-1.83.65.65,0,0,1,.85-.26l1.15.56a.65.65,0,0,1,.29.9A5.87,5.87,0,0,1,555.26,590.72Z"/><path class="cls-3" d="M555.26,590.72a5.58,5.58,0,0,1-5.74-4.06c-.33-1-.44-1.79-.44-4.54s.11-3.55.44-4.54a5.59,5.59,0,0,1,5.74-4.06,5.87,5.87,0,0,1,5.34,3,.65.65,0,0,1-.29.9l-1.15.55a.65.65,0,0,1-.85-.26,3.35,3.35,0,0,0-3.05-1.84,3.11,3.11,0,0,0-3.16,2.33,25.12,25.12,0,0,0,0,7.8,3.12,3.12,0,0,0,3.16,2.33,3.34,3.34,0,0,0,3.06-1.83.65.65,0,0,1,.85-.26l1.15.56a.65.65,0,0,1,.29.9A5.87,5.87,0,0,1,555.26,590.72Z"/><path class="cls-2" d="M570.75,590.65a.65.65,0,0,1-.65-.65V577.2a.13.13,0,0,0-.13-.13l-.13,0-1.62,1.14a.65.65,0,0,1-1-.53v-1.2a.65.65,0,0,1,.27-.53l2.56-1.86a.65.65,0,0,1,.38-.12H572a.65.65,0,0,1,.65.65V590a.65.65,0,0,1-.65.65Z"/><path class="cls-3" d="M570.75,590.65a.65.65,0,0,1-.65-.65V577.2a.13.13,0,0,0-.13-.13l-.13,0-1.62,1.14a.65.65,0,0,1-1-.53v-1.2a.65.65,0,0,1,.27-.53l2.56-1.86a.65.65,0,0,1,.38-.12H572a.65.65,0,0,1,.65.65V590a.65.65,0,0,1-.65.65Z"/><path class="cls-2" d="M584.44,590.65a.65.65,0,0,1-.57-1l3.23-5.85a.13.13,0,0,0,0-.16.29.29,0,0,0-.18-.07,3.35,3.35,0,0,1-1.23.21,4.63,4.63,0,0,1-4.69-4.87,5,5,0,0,1,5.26-5.22,4.91,4.91,0,0,1,5.27,5.1,7.91,7.91,0,0,1-1.1,3.82l-4.26,7.67a.65.65,0,0,1-.57.33Zm1.8-14.7a2.83,2.83,0,1,0,2.72,2.82A2.61,2.61,0,0,0,586.24,575.95Z"/><path class="cls-3" d="M584.44,590.65a.65.65,0,0,1-.57-1l3.23-5.85a.13.13,0,0,0,0-.16.29.29,0,0,0-.18-.07,3.35,3.35,0,0,1-1.23.21,4.63,4.63,0,0,1-4.69-4.87,5,5,0,0,1,5.26-5.22,4.91,4.91,0,0,1,5.27,5.1,7.91,7.91,0,0,1-1.1,3.82l-4.26,7.67a.65.65,0,0,1-.57.33Zm1.8-14.7a2.83,2.83,0,1,0,2.72,2.82A2.61,2.61,0,0,0,586.24,575.95Z"/><path class="cls-2" d="M597.87,591.78a.65.65,0,0,1-.43-.16l-.48-.42a.65.65,0,0,1-.08-.89,13.44,13.44,0,0,0,0-16.79.65.65,0,0,1,.08-.89l.47-.42a.65.65,0,0,1,.43-.16h.06a.65.65,0,0,1,.45.25,15.13,15.13,0,0,1,3.43,9.61,15,15,0,0,1-3.43,9.62.65.65,0,0,1-.45.24Z"/><path class="cls-3" d="M597.87,591.78a.65.65,0,0,1-.43-.16l-.48-.42a.65.65,0,0,1-.08-.89,13.44,13.44,0,0,0,0-16.79.65.65,0,0,1,.08-.89l.47-.42a.65.65,0,0,1,.43-.16h.06a.65.65,0,0,1,.45.25,15.13,15.13,0,0,1,3.43,9.61,15,15,0,0,1-3.43,9.62.65.65,0,0,1-.45.24Z"/><path class="cls-2" d="M196,643.67a.65.65,0,0,1-.48-.21l-1.3-1.4a.65.65,0,0,1,.32-1.07,27.1,27.1,0,0,0,4.7-1.62,17.35,17.35,0,0,0,5-3.08.13.13,0,0,0,0-.19,26.58,26.58,0,0,1-4.28-6.2,27.79,27.79,0,0,1-1.92-4.59.13.13,0,0,0-.12-.09h-2.85a.65.65,0,0,1-.65-.65v-1.41a.65.65,0,0,1,.65-.65h9.57a.13.13,0,0,0,.13-.13v-2.88a.65.65,0,0,1,.65-.65l2.16.16a.65.65,0,0,1,.55.91.43.43,0,0,0,0,.18v2.28a.13.13,0,0,0,.13.13h9.48a.65.65,0,0,1,.65.65v1.41a.65.65,0,0,1-.65.65H214.5a.13.13,0,0,0-.12.09c-1.31,3.95-2.54,7.25-5.51,10.86a.13.13,0,0,0,0,.19,21.19,21.19,0,0,0,8.56,4.07.65.65,0,0,1,.39,1l-1.16,1.75a.65.65,0,0,1-.54.29l-.19,0a24.13,24.13,0,0,1-9.26-5h-.16c-2.63,2.06-4.83,3.36-10.26,5.21A.65.65,0,0,1,196,643.67Zm5.45-18.45a.13.13,0,0,0-.12.18,24.87,24.87,0,0,0,5,8.63.13.13,0,0,0,.2,0,22.58,22.58,0,0,0,4.18-8.64.13.13,0,0,0-.13-.16Z"/><path class="cls-2" d="M245.47,643.33a.65.65,0,0,1-.65-.65v-6.11a.13.13,0,0,0,0-.1l-.11,0-8,1.58h-.13a.65.65,0,0,1-.63-.51l-.34-1.47a.65.65,0,0,1,.51-.78l8.67-1.75a.13.13,0,0,0,.1-.13V619.5a.65.65,0,0,1,.65-.65l1.81.12a.65.65,0,0,1,.54.94.35.35,0,0,0,0,.17v12.69a.13.13,0,0,0,0,.1l.11,0,1.77-.36h.13a.65.65,0,0,1,.64.54l.26,1.54a.65.65,0,0,1-.52.75l-2.34.46a.13.13,0,0,0-.1.13v6.74a.65.65,0,0,1-.65.65Zm-14.73,0a.65.65,0,0,1-.65-.65v-6.4a.13.13,0,0,0-.1-.13h0a.13.13,0,0,0-.12.06l-.13.22a21.52,21.52,0,0,1-1.24,1.94.65.65,0,0,1-.88.15l-1.43-1a.65.65,0,0,1-.18-.91,22.23,22.23,0,0,0,3.66-7.69.13.13,0,0,0,0-.11.13.13,0,0,0-.1-.05h-3.23a.65.65,0,0,1-.65-.65v-1.44a.65.65,0,0,1,.65-.65H230a.13.13,0,0,0,.13-.13v-2.42a.13.13,0,0,0,0-.1l-.24-.66.13.64a28,28,0,0,1-3,.49h-.07a.65.65,0,0,1-.6-.39l-.54-1.23a.65.65,0,0,1,.56-.91,21,21,0,0,0,8.13-2.14.65.65,0,0,1,.77.14l1.07,1.15a.65.65,0,0,1-.38,1.09,1.54,1.54,0,0,0-.42.14c-.25.11-1,.4-2.21.8a.13.13,0,0,0-.09.12v3.29a.13.13,0,0,0,.13.13h3a.65.65,0,0,1,.65.65v1.44a.65.65,0,0,1-.65.65h-3a.13.13,0,0,0-.13.13v.35a10.61,10.61,0,0,0,3.48,3.39.65.65,0,0,1,.17,1L235.73,635a.65.65,0,0,1-.88.12,7.83,7.83,0,0,1-1.48-1.36.13.13,0,0,0-.1,0c-.1,0-.13.08-.13.13v8.88a.65.65,0,0,1-.65.65Zm10.43-11.09a.65.65,0,0,1-.45-.18,17.92,17.92,0,0,0-2.81-2.19.65.65,0,0,1-.16-1l1-1.28a.65.65,0,0,1,.85-.15,18.47,18.47,0,0,1,3.1,2.41.65.65,0,0,1,0,.91L241.65,632a.65.65,0,0,1-.46.21Zm.73-5.87a.65.65,0,0,1-.45-.18,24.39,24.39,0,0,0-2.89-2.39.65.65,0,0,1-.12-1l1.12-1.26a.65.65,0,0,1,.84-.11,16.17,16.17,0,0,1,3.19,2.65.65.65,0,0,1,0,.91l-1.22,1.16A.65.65,0,0,1,241.89,626.37Z"/><path class="cls-2" d="M268.24,643.45a.65.65,0,0,1-.65-.65v-8.07a.13.13,0,0,0,0-.09l-.1,0-3.86.19-2.65.13c-1.06.05-1.28.09-1.53.35a.65.65,0,0,1-.48.21l-.14,0a.65.65,0,0,1-.48-.45l-.09-.32-.43-1.74a.65.65,0,0,1,.63-.81h6.9a.13.13,0,0,0,.1-.21l-.1-.12a26.57,26.57,0,0,0-2.88-2.95,29.16,29.16,0,0,0-2.57-2,.65.65,0,0,1-.09-1L261,624.6a.65.65,0,0,1,.88,0c.74.6,1.38,1.16,1.89,1.6l.11,0a.09.09,0,0,0,.07,0,21.53,21.53,0,0,0,2.52-3.22.13.13,0,0,0-.11-.2c-1.75.09-3.67.14-6.06.14h0a.65.65,0,0,1-.61-.43l-.47-1.28a.65.65,0,0,1,.61-.87h0c1,.05,2.2.1,4,.1A50.2,50.2,0,0,0,276.71,619l.17,0a.65.65,0,0,1,.48.21l1.15,1.23a.65.65,0,0,1-.44,1.09c-.15,0-.63.09-1.64.26l-.14,0L275,622c-.94.14-3,.39-6,.55a.13.13,0,0,0-.07.23l.65.47a.65.65,0,0,1-.17,1.14.41.41,0,0,0-.24.18l-.07.1c-1,1.21-1.58,1.94-3,3.46a.13.13,0,0,0,0,.18c.65.63.93.93,1.47,1.52l.11.12a.13.13,0,0,0,.09,0l.55.43-.45-.47c1.58-1.53,2.66-2.62,5.61-5.94a.65.65,0,0,1,.77-.16l1.52.72a.65.65,0,0,1,0,1.16,2.79,2.79,0,0,0-.62.58c-2.22,2.51-3.69,4-5.33,5.59a.13.13,0,0,0,.09.22c3.78,0,4.43-.06,5.74-.11a.16.16,0,0,0,.13-.08.14.14,0,0,0,0-.14,13.73,13.73,0,0,0-1.05-1.08.65.65,0,0,1,0-1l1.24-1a.65.65,0,0,1,.86,0,26.89,26.89,0,0,1,4.5,5.74.65.65,0,0,1-.23.89l-1.6.95a.65.65,0,0,1-.33.09l-.18,0a.65.65,0,0,1-.4-.32c-.32-.59-.67-1.2-1.13-2a.13.13,0,0,0-.11-.06l-1,0-2.39.13c-1.37.06-1.87.09-2.4.13l-.71,0a.13.13,0,0,0-.12.13v8.21a.65.65,0,0,1-.65.65Zm9.78-.25a.65.65,0,0,1-.42-.15,27.69,27.69,0,0,1-4.5-4.76.65.65,0,0,1,.07-.85l1.14-1.13a.65.65,0,0,1,.46-.19h0a.65.65,0,0,1,.47.24,26.79,26.79,0,0,0,4.52,4.45.65.65,0,0,1,0,1L278.46,643A.65.65,0,0,1,278,643.2ZM259.74,643a.65.65,0,0,1-.43-.16L258,641.7a.65.65,0,0,1,0-1,18,18,0,0,0,4.21-4.28.65.65,0,0,1,.82-.22l1.52.73a.65.65,0,0,1,.07,1.13,28.35,28.35,0,0,1-4.48,4.8A.65.65,0,0,1,259.74,643Z"/><path class="cls-2" d="M293.33,643.3a.65.65,0,0,1-.65-.65v-10a.13.13,0,0,0,0-.1l-.09-.68v.65l-.87.13-1.68.25a1.62,1.62,0,0,0-.37.07.65.65,0,0,1-.87-.54l-.16-1.5a.65.65,0,0,1,.63-.72l1.63-.08a.13.13,0,0,0,.1-.06c.42-.63.9-1.42,1.19-1.89l.17-.27a.13.13,0,0,0,0-.17,28.77,28.77,0,0,0-3.37-2.48.65.65,0,0,1-.2-.89l.77-1.23a.65.65,0,0,1,.41-.29H290a.65.65,0,0,1,.36.11l.41.28.1,0a.13.13,0,0,0,.08-.06,25.65,25.65,0,0,0,2-3.69.65.65,0,0,1,.86-.33l1,.44a.65.65,0,0,1,.26,1l-.09.15a36.5,36.5,0,0,1-2.33,3.65.13.13,0,0,0,0,.18c.32.25.49.41.7.61l.18.17.11,0a.13.13,0,0,0,.09-.06c.88-1.55,1.32-2.43,1.58-2.95a.65.65,0,0,1,.84-.31l1.37.59a.65.65,0,0,1,.25,1c-.23.28-.77,1.14-1.16,1.76l-.27.43a40.58,40.58,0,0,1-2.69,3.88l-.07.09a.13.13,0,0,0,.1.21l1.7-.17.34,0a.13.13,0,0,0,.1-.17c-.09-.27-.17-.47-.24-.66a.65.65,0,0,1,.36-.85l.79-.31a.65.65,0,0,1,.83.32,18.59,18.59,0,0,1,1.19,3.24.65.65,0,0,1-.46.79l-.94.26-.17,0a.65.65,0,0,1-.62-.45l-.06-.18a.13.13,0,0,0-.12-.09c-.46.12-.72.18-1.18.26a.13.13,0,0,0-.11.13v10.49a.65.65,0,0,1-.65.65Zm10.93-.2c-1.49,0-1.72-1.27-1.72-2v-6a.65.65,0,0,1,.65-.65l1.21.08a.65.65,0,0,1,.59.77v4.52c0,.51.27.76.82.76h.72c.42,0,.78-.11,1-1.44a.65.65,0,0,1,.93-.47l.95.46a.65.65,0,0,1,.36.69c-.46,2.74-1.74,3.32-2.73,3.32Zm-4.73-1.46a.65.65,0,0,1-.29-.07l-1-.48a.65.65,0,0,1-.3-.86c.24-.51.47-1.06.75-1.8a.13.13,0,0,0-.12-.18l-.72.17-.16,0a.65.65,0,0,1-.62-.47,29.52,29.52,0,0,1-.79-3.47.65.65,0,0,1,.52-.75l.73-.14h.12a.65.65,0,0,1,.64.52,12.65,12.65,0,0,0,.71,2.37.19.19,0,0,0,.14.11c.06,0,.12,0,.13-.07s.16-.6.21-.81a.65.65,0,0,1,.63-.5l.17,0,.92.24a.65.65,0,0,1,.45.84l0,.11a24.58,24.58,0,0,1-1.5,4.8.65.65,0,0,1-.6.39ZM290,641h-.14l-1-.22a.65.65,0,0,1-.49-.82,31.13,31.13,0,0,0,1-4.71.65.65,0,0,1,.65-.57l.14,0,.89.2a.65.65,0,0,1,.5.7,25.45,25.45,0,0,1-.9,5A.65.65,0,0,1,290,641Zm21.81-.43a.65.65,0,0,1-.61-.43,22.41,22.41,0,0,0-1.52-3.4.65.65,0,0,1,.24-.88l1.1-.64a.65.65,0,0,1,.89.23,14.26,14.26,0,0,1,1.65,3.68.65.65,0,0,1-.31.74l-1.11.63A.65.65,0,0,1,311.81,640.57Zm-4.53-4.84a.65.65,0,0,1-.46-.26,14.1,14.1,0,0,0-1.39-1.58.65.65,0,0,1,0-.9l.66-.74a.65.65,0,0,1,.91-.06,11,11,0,0,1,1.66,1.79.65.65,0,0,1-.08.87l-.77.7a.65.65,0,0,1-.44.17Zm3.67-3.2-.18,0a.65.65,0,0,1-.4-.33c-.19-.39-.39-.74-.68-1.21a.13.13,0,0,0-.11-.06l-.65.09c-1,.14-2.24.32-3.52.49l-1.06.11h-.12c-2,.2-3,.32-3.25.4a.65.65,0,0,1-.83-.5l-.27-1.44a.65.65,0,0,1,.64-.77h1.22a.13.13,0,0,0,.11-.07,33.19,33.19,0,0,0,2.34-5.65.65.65,0,0,1,.82-.42l1.63.52a.65.65,0,0,1,.2,1.13.71.71,0,0,0-.21.33l-.08.17c-.77,1.65-1.12,2.4-1.84,3.68a.13.13,0,0,0,.11.19H305c.8,0,1.78-.06,3.11-.2a.13.13,0,0,0,.09-.21c-.24-.3-.42-.52-.58-.69a.65.65,0,0,1,.07-.94l.87-.71a.65.65,0,0,1,.88,0,20.27,20.27,0,0,1,3.27,4.39.65.65,0,0,1-.24.86l-1.19.72A.65.65,0,0,1,311,632.53Zm-10.77-6.18a.65.65,0,0,1-.36-.11l-1.14-.77a.65.65,0,0,1-.12-1,17.94,17.94,0,0,0,3.14-4.66.65.65,0,0,1,.85-.31l1.33.59a.65.65,0,0,1,.18,1.07,1.06,1.06,0,0,0-.18.23l-.37.6a31,31,0,0,1-2.82,4.09A.65.65,0,0,1,300.19,626.35Zm11.12-.83a.65.65,0,0,1-.47-.2,23.36,23.36,0,0,1-3.11-4,.65.65,0,0,1,.21-.9l1-.64a.65.65,0,0,1,.34-.1l.16,0a.65.65,0,0,1,.41.3,16.61,16.61,0,0,0,2.94,3.76.65.65,0,0,1-.1,1l-1,.67A.65.65,0,0,1,311.31,625.53Z"/><path class="cls-2" d="M324.61,643.33a.65.65,0,0,1-.65-.65v-9.62a.65.65,0,0,1,.65-.65h15.28a.65.65,0,0,1,.65.65v9.51a.65.65,0,0,1-.65.65h-1.7a.65.65,0,0,1-.65-.65c0-.16-.06-.21-.13-.21H327a.13.13,0,0,0-.13.13v.2a.65.65,0,0,1-.65.65ZM327,635a.13.13,0,0,0-.13.13v4.41a.13.13,0,0,0,.13.13h10.44a.13.13,0,0,0,.13-.13V635.1a.13.13,0,0,0-.13-.13Zm-5.65-4a.65.65,0,0,1-.46-.19l-1.26-1.28a.65.65,0,0,1,.18-1c3.35-1.64,7.93-4.6,10.73-9.43a.65.65,0,0,1,.56-.32h.13l2.17.43a.65.65,0,0,1,.53.64.71.71,0,0,1,0,.16h0l0,.06.09.12a18.45,18.45,0,0,0,4.49,4.43,22.56,22.56,0,0,0,6.13,3,.65.65,0,0,1,.29,1l-1.32,1.54a.65.65,0,0,1-.75.17,25.62,25.62,0,0,1-4.9-2.73h-.06a.74.74,0,0,1-.23,0,.65.65,0,0,1,.08.32v1.38a.65.65,0,0,1-.65.65h-10a.65.65,0,0,1-.65-.65v-1a.13.13,0,0,0-.07-.12h-.14a26.38,26.38,0,0,1-4.61,2.76A.65.65,0,0,1,321.32,630.95Zm15.77-3.74.15,0a.55.55,0,0,1-.07-.17,32.33,32.33,0,0,1-5-4.84.13.13,0,0,0-.1,0,.13.13,0,0,0-.11.06,22,22,0,0,1-4.3,4.76.13.13,0,0,0,.09.23Z"/><path class="cls-2" d="M352.61,643.36a.65.65,0,0,1-.65-.65v-7.63a.65.65,0,0,1,.65-.65h6.59a.65.65,0,0,1,.65.65v7.2a.65.65,0,0,1-.65.65h-1.06a.65.65,0,0,1-.65-.65v-.14a.13.13,0,0,0-.13-.13h-2.8a.13.13,0,0,0-.13.13v.57a.65.65,0,0,1-.65.65Zm2-6.69a.13.13,0,0,0-.13.13v2.69a.13.13,0,0,0,.13.13h2.77a.13.13,0,0,0,.13-.13V636.8a.13.13,0,0,0-.13-.13Zm7.73,6.54a.65.65,0,0,1-.65-.65V638.9a.13.13,0,0,0-.13-.13h-.37a.65.65,0,0,1-.65-.65v-.77a.65.65,0,0,1,.65-.65h.37a.13.13,0,0,0,.13-.13v-5.85a.65.65,0,0,1,.65-.65h4.24a.13.13,0,0,0,.13-.13v-1.07a.13.13,0,0,0-.13-.13H361a.65.65,0,0,1-.65-.65v-.54a.65.65,0,0,1,.65-.65h2.65a.13.13,0,0,0,.13-.13v-1.33a.13.13,0,0,0-.13-.13h-1.47a.65.65,0,0,1-.65-.65v-.34a.65.65,0,0,1,.65-.65h1.47a.13.13,0,0,0,.13-.13v-1.19a.13.13,0,0,0-.13-.13h-2.42a.65.65,0,0,1-.65-.65V621a.65.65,0,0,1,.65-.65h2.42a.13.13,0,0,0,.13-.13v-.75a.65.65,0,0,1,.65-.65l1.6,0a.65.65,0,0,1,.59.89,1.43,1.43,0,0,0,0,.46.13.13,0,0,0,.13.13h2.68a.13.13,0,0,0,.13-.13v-.76a.65.65,0,0,1,.65-.65l1.6,0a.65.65,0,0,1,.58.92,1.15,1.15,0,0,0-.06.46l.13.13h2.85a.65.65,0,0,1,.65.65v.54a.65.65,0,0,1-.65.65h-2.85a.13.13,0,0,0-.13.13v1.19a.13.13,0,0,0,.13.13h1.44a.65.65,0,0,1,.65.65v.34a.65.65,0,0,1-.65.65h-1.44a.13.13,0,0,0-.13.13v1.33a.13.13,0,0,0,.13.13h2.85a.65.65,0,0,1,.65.65v.54a.65.65,0,0,1-.65.65h-5.71a.13.13,0,0,0-.13.13v1.07a.13.13,0,0,0,.13.13H374a.65.65,0,0,1,.65.65v5.85a.13.13,0,0,0,.13.13h.52a.65.65,0,0,1,.65.65v.77a.65.65,0,0,1-.65.65h-.52a.13.13,0,0,0-.13.13v1.79c0,1.2-.44,2.34-3.63,2.5h0a.65.65,0,0,1-.6-.39l-.62-1.41a.65.65,0,0,1,.6-.91h0l.63,0c.37,0,1.23-.1,1.23-1v-.61a.13.13,0,0,0-.13-.13h-7.85a.13.13,0,0,0-.13.13v3.66a.65.65,0,0,1-.65.65Zm7.29-8.22a.13.13,0,0,0-.13.13v1.45a.13.13,0,0,0,.13.13h2.54a.13.13,0,0,0,.13-.13v-1.45a.13.13,0,0,0-.13-.13Zm-5.3,0a.13.13,0,0,0-.13.13v1.45a.13.13,0,0,0,.13.13h2.25a.13.13,0,0,0,.13-.13v-1.45a.13.13,0,0,0-.13-.13Zm5.3-3.23a.13.13,0,0,0-.13.13v1.24a.13.13,0,0,0,.13.13h2.54a.13.13,0,0,0,.13-.13V631.9a.13.13,0,0,0-.13-.13Zm-5.3,0a.13.13,0,0,0-.13.13v1.24a.13.13,0,0,0,.13.13h2.25a.13.13,0,0,0,.13-.13V631.9a.13.13,0,0,0-.13-.13Zm2.45-6.46a.13.13,0,0,0-.13.13v1.33a.13.13,0,0,0,.13.13h2.68a.13.13,0,0,0,.13-.13v-1.33a.13.13,0,0,0-.13-.13Zm0-3.09a.13.13,0,0,0-.13.13v1.19a.13.13,0,0,0,.13.13h2.68a.13.13,0,0,0,.13-.13v-1.19a.13.13,0,0,0-.13-.13ZM352.9,632.83a.65.65,0,0,1-.65-.65v-.83a.65.65,0,0,1,.65-.65h5.5a.65.65,0,0,1,.65.65v.83a.65.65,0,0,1-.65.65Zm.06-3.95a.65.65,0,0,1-.65-.65v-.8a.65.65,0,0,1,.65-.65h5.42a.65.65,0,0,1,.65.65v.8a.65.65,0,0,1-.65.65Zm-1-3.63a.65.65,0,0,1-.65-.65v-.83a.65.65,0,0,1,.65-.65h7.23a.65.65,0,0,1,.65.65v.83a.65.65,0,0,1-.65.65Zm1-3.63a.65.65,0,0,1-.65-.65v-.8a.65.65,0,0,1,.65-.65h5.3a.65.65,0,0,1,.65.65v.8a.65.65,0,0,1-.65.65Z"/><path class="cls-2" d="M387.5,643.87a.65.65,0,0,1-.59-.38l-.45-1a.65.65,0,0,1,.59-.92h.35c.78,0,1-.19,1-.79v-.61a.13.13,0,0,0,0-.1l-.1,0-.41.06c-1.74.26-3.54.53-3.73.58l-.17,0a.69.69,0,0,1-.67-.52l-.14-.79a.65.65,0,0,1,.59-.76c2.19-.18,3.74-.42,4.57-.54a.13.13,0,0,0,.11-.13v-1.53a.13.13,0,0,0-.13-.13h-4.87a.65.65,0,0,1-.65-.65v-.89a.65.65,0,0,1,.65-.65h4.87a.13.13,0,0,0,.13-.13v-1.16a.13.13,0,0,0,0-.1l-.1,0c-2,.28-3.33.43-4.33.49h0a.65.65,0,0,1-.58-.35l-.24-.45a.65.65,0,0,1,.54-1,25.52,25.52,0,0,0,7.33-1.34.13.13,0,0,0,0-.25h-7.55a.65.65,0,0,1-.65-.65v-.77a.65.65,0,0,1,.65-.65h9.89a.13.13,0,0,0,.13-.13v-1.19a.13.13,0,0,0-.13-.13h-6.31a.65.65,0,0,1-.65-.65v-.77a.65.65,0,0,1,.65-.65h6.31a.13.13,0,0,0,.13-.13V623a.13.13,0,0,0-.13-.13h-8.88a.65.65,0,0,1-.65-.65v-.63a.65.65,0,0,1,.65-.65h4.24a.13.13,0,0,0,.11-.2c-.17-.29-.33-.52-.49-.75a.65.65,0,0,1,.26-1l1.19-.53a.65.65,0,0,1,.76.18,24.33,24.33,0,0,1,1.66,2.22.13.13,0,0,0,.11.06h5.25a.13.13,0,0,0,.11-.06,19.17,19.17,0,0,0,1.05-1.95.65.65,0,0,1,.59-.37h.12l1.66.31a.65.65,0,0,1,.42,1l-.54.86a.13.13,0,0,0,.11.2h4.52a.65.65,0,0,1,.65.65v.63a.65.65,0,0,1-.65.65h-8.82a.13.13,0,0,0-.13.13v1.07a.13.13,0,0,0,.13.13H403a.65.65,0,0,1,.65.65v.77a.65.65,0,0,1-.65.65h-6.31a.13.13,0,0,0-.13.13v1.19a.13.13,0,0,0,.13.13h10a.65.65,0,0,1,.65.65v.77a.65.65,0,0,1-.65.65h-4a.79.79,0,0,1-.24,0,.67.67,0,0,1-.21,0h-8.49a.13.13,0,0,0-.11.2l.32.53a.65.65,0,0,1-.42,1l-1.64.38-.49.11a.13.13,0,0,0-.1.13V634a.13.13,0,0,0,.13.13h5a.13.13,0,0,0,.13-.16c-.19-.81-.34-1.61-.44-2.38a.65.65,0,0,1,.65-.74l1.26.09a.65.65,0,0,1,.59.77A12.57,12.57,0,0,0,399,634a.13.13,0,0,0,.13.1h7.41a.65.65,0,0,1,.65.65v.89a.65.65,0,0,1-.65.65H400a.13.13,0,0,0-.12.17,3.82,3.82,0,0,0,.65,1.19.13.13,0,0,0,.1.05c.8-.41,1.17-.62,1.67-.93a.65.65,0,0,1,.75,0l.76.6a.65.65,0,0,1,0,1.06l-1.45,1a.13.13,0,0,0-.05.1.13.13,0,0,0,0,.1,2.9,2.9,0,0,0,1.88,1c.32,0,.63-.1.88-1.26a.65.65,0,0,1,1-.41l.81.52a.65.65,0,0,1,.29.68c-.19.91-.69,3.32-2.39,3.32-2.33,0-4.11-1.86-4.78-2.55a.13.13,0,0,0-.09,0,25.78,25.78,0,0,1-5.32,2.09l-.17,0a.65.65,0,0,1-.52-.26l-.67-.87a.65.65,0,0,1,.32-1A33.84,33.84,0,0,0,398.3,639a.13.13,0,0,0,.06-.18,10.25,10.25,0,0,1-1.14-2.43.13.13,0,0,0-.12-.09h-5.62a.13.13,0,0,0-.13.13v1.1a.13.13,0,0,0,0,.1l.11,0,.76-.13c.66-.11,1.46-.24,2.23-.39h.13a.65.65,0,0,1,.65.65v.45a.65.65,0,0,1-.5.63c-.81.2-1.65.35-3.32.65a.13.13,0,0,0-.11.13v2.22c0,1.53-.86,2-3.83,2Zm15.73-10.49a.65.65,0,0,1-.5-.24c-.41-.49-.86-1-1.3-1.46a.65.65,0,0,1,.06-1l.54-.44a.65.65,0,0,1,.88.05c.44.46.87.95,1.38,1.57a.65.65,0,0,1-.12.94l-.55.4A.65.65,0,0,1,403.23,633.38Z"/><path class="cls-2" d="M430.6,643.5a.65.65,0,0,1-.65-.65V637a.13.13,0,0,0-.09-.12h0a.13.13,0,0,0-.12.05,21.82,21.82,0,0,1-4.94,5.35.65.65,0,0,1-.82,0l-1.22-1a.65.65,0,0,1,.12-1.07,16.39,16.39,0,0,0,6.1-5.8.13.13,0,0,0,0-.13.13.13,0,0,0-.11-.07h-3.57a.65.65,0,0,1-.65-.65v-7.69a.65.65,0,0,1,.65-.65h4.55a.13.13,0,0,0,.13-.13v-1.19a.13.13,0,0,0-.13-.13h-6l0,0,0,1.18a.65.65,0,0,1-.65.65H420.7a.13.13,0,0,0-.13.17,11.28,11.28,0,0,0,3.25,5,.65.65,0,0,1,0,.91l-.89,1a.65.65,0,0,1-.48.21h0a.65.65,0,0,1-.49-.25,12.81,12.81,0,0,1-1.16-1.74.13.13,0,0,0-.11-.07c-.09,0-.13.07-.13.13v11.88a.65.65,0,0,1-.65.65h-1.55a.65.65,0,0,1-.65-.65v-9.31a.13.13,0,0,0-.11-.13h0a.13.13,0,0,0-.14.09,16.06,16.06,0,0,1-1.45,3.32.65.65,0,0,1-.41.31l-.16,0a.65.65,0,0,1-.34-.1l-1.44-.9a.65.65,0,0,1-.19-.93,23.3,23.3,0,0,0,3.92-9.44.13.13,0,0,0-.13-.15H414.8a.65.65,0,0,1-.65-.65v-1.64a.65.65,0,0,1,.65-.65h2.79a.13.13,0,0,0,.13-.13v-3.08a.65.65,0,0,1,.65-.65l1.65.11a.65.65,0,0,1,.57.87.42.42,0,0,0,0,.14v2.62a.13.13,0,0,0,.13.13h2.65l0,0,0-.69a.65.65,0,0,1,.65-.65h5.74a.13.13,0,0,0,.13-.13v-1.68a.65.65,0,0,1,.65-.65l1.61.09a.65.65,0,0,1,.58.87.3.3,0,0,0,0,.1v1.27a.13.13,0,0,0,.13.13h5.25a.65.65,0,0,1,.65.65v1.14a.65.65,0,0,1-.65.65H432.9a.13.13,0,0,0-.13.13v1.19a.13.13,0,0,0,.13.13h4.61a.65.65,0,0,1,.65.65v7.69a.65.65,0,0,1-.65.65h-3.66a.13.13,0,0,0-.12.19,10.48,10.48,0,0,0,2.45,3,19.58,19.58,0,0,0,2.92,2.21.65.65,0,0,1,.08,1L438,641.7a.65.65,0,0,1-.86,0A23.14,23.14,0,0,1,433,637a.13.13,0,0,0-.11-.06c-.09,0-.13.07-.13.13v5.74a.65.65,0,0,1-.65.65Zm2.3-12.92a.13.13,0,0,0-.13.13v1.42a.13.13,0,0,0,.13.13h2.48a.13.13,0,0,0,.13-.13v-1.42a.13.13,0,0,0-.13-.13Zm-5.54,0a.13.13,0,0,0-.13.13v1.42a.13.13,0,0,0,.13.13h2.45a.13.13,0,0,0,.13-.13v-1.42a.13.13,0,0,0-.13-.13Zm5.54-3.46a.13.13,0,0,0-.13.13v1.39a.13.13,0,0,0,.13.13h2.48a.13.13,0,0,0,.13-.13v-1.39a.13.13,0,0,0-.13-.13Zm-5.54,0a.13.13,0,0,0-.13.13v1.39a.13.13,0,0,0,.13.13h2.45a.13.13,0,0,0,.13-.13v-1.39a.13.13,0,0,0-.13-.13Z"/><path class="cls-2" d="M452.43,642.87a.65.65,0,0,1-.65-.65V624.9a.13.13,0,0,0-.13-.13.46.46,0,0,0-.15,0l-2.57,1.8a.65.65,0,0,1-1-.53v-2.23a.65.65,0,0,1,.27-.53l3.52-2.55.16-.08.14-.05a.65.65,0,0,1,.22,0h2.37a.65.65,0,0,1,.65.65v21a.65.65,0,0,1-.65.65Z"/><path class="cls-2" d="M467.52,642.58a.65.65,0,0,1-.65-.65v-21a.65.65,0,0,1,.65-.65h13.23a.65.65,0,0,1,.65.65v2a.65.65,0,0,1-.65.65h-9.9a.3.3,0,0,0-.33.33v5.75a.3.3,0,0,0,.33.33h8.27a.65.65,0,0,1,.65.65v2a.65.65,0,0,1-.65.65h-8.27a.3.3,0,0,0-.33.33v8.39a.65.65,0,0,1-.65.65Z"/><path class="cls-2" d="M504.22,643c-3.79,0-6.14-2.27-6.14-5.91,0-2.48,1.23-4.45,4.23-6.81a.13.13,0,0,0,0-.18c-1.69-2.19-2.49-3.4-2.49-5.09a5.16,5.16,0,0,1,5.47-5,5,5,0,0,1,5.36,4.94c0,1.74-.61,3.16-3.85,5.67l0,.18,3.5,4.51a.13.13,0,0,0,.1.05h0a.13.13,0,0,0,.1,0l2-2.33a.65.65,0,0,1,.44-.23H513a.65.65,0,0,1,.42.16l1.16,1a.65.65,0,0,1,.08.91l-2.36,2.86a.13.13,0,0,0,0,.16l.8,1a1.72,1.72,0,0,0,1.46.78.69.69,0,0,1,.7.65v1.76a.65.65,0,0,1-.65.65h-.65c-1.46,0-2.11-.35-3.18-1.7l-.56-.7a.13.13,0,0,0-.1,0h0a.13.13,0,0,0-.1,0C508.08,642.15,506.41,643,504.22,643Zm0-10.42a.13.13,0,0,0-.08,0c-2,1.51-2.83,2.83-2.83,4.29a3,3,0,0,0,3.21,3.15c1.31,0,2.3-.56,3.77-2.13a.13.13,0,0,0,0-.17l-4-5.11A.13.13,0,0,0,504.18,632.53Zm1.16-9.82a2.15,2.15,0,0,0-2.28,2.16c0,.84.27,1.34,1.78,3.33l.09.05c2.27-1.72,2.63-2.44,2.63-3.41A2.15,2.15,0,0,0,505.34,622.71Z"/><path class="cls-2" d="M533.46,642.87a.65.65,0,0,1-.65-.65v-2a.65.65,0,0,1,.14-.41l8-9.91a5.59,5.59,0,0,0,1.49-3.53,3.14,3.14,0,0,0-6.22-.61.65.65,0,0,1-.63.51h-.13l-2-.42a.65.65,0,0,1-.51-.76c.45-2.35,2.4-4.87,6.5-4.87,3.89,0,6.5,2.48,6.5,6.17a7.78,7.78,0,0,1-2.09,5.19l-6.56,8c0,.19.06.28.1.28h7.9a.65.65,0,0,1,.65.65v1.75a.65.65,0,0,1-.65.65Z"/><path class="cls-2" d="M554.36,642.58a.65.65,0,0,1-.65-.65v-21a.65.65,0,0,1,.65-.65h13.23a.65.65,0,0,1,.65.65v2a.65.65,0,0,1-.65.65h-9.9a.3.3,0,0,0-.33.33v5.75a.3.3,0,0,0,.33.33H566a.65.65,0,0,1,.65.65v2a.65.65,0,0,1-.65.65h-8.27a.3.3,0,0,0-.33.33v8.39a.65.65,0,0,1-.65.65Z"/><path class="cls-2" d="M109.61,115.79a.78.78,0,0,1-.78-.78V99.93a.16.16,0,0,0-.11-.15h0a.15.15,0,0,0-.14.06c-.37.52-.76,1-1.17,1.5a.78.78,0,0,1-1.09.09l-1.93-1.61a.78.78,0,0,1-.08-1.11,37.81,37.81,0,0,0,7.24-11.88.78.78,0,0,1,1-.44l2.43.93a.78.78,0,0,1,.21,1.33,1.11,1.11,0,0,0-.26.35,40.15,40.15,0,0,1-2.75,5.19.15.15,0,0,0,.08.23.89.89,0,0,1,.54.56.8.8,0,0,1-.12.73c-.33.36-.38.49-.38.7V115a.78.78,0,0,1-.78.78Zm5.78-.34a.78.78,0,0,1-.78-.78V95.84a.78.78,0,0,1,.78-.78l2.29.08a.78.78,0,0,1,.66,1.14l0,13.65a.16.16,0,0,0,.16.16h4a.16.16,0,0,0,.16-.16V87.11a.78.78,0,0,1,.78-.78l2.3.08a.78.78,0,0,1,.63,1.19l0,22.33a.16.16,0,0,0,.16.16h3.68a.16.16,0,0,0,.16-.16V95.84a.78.78,0,0,1,.78-.78l2.3.08a.78.78,0,0,1,.63,1.2l0,18.2a.78.78,0,0,1-.78.78h-2.13a.78.78,0,0,1-.78-.78v-.82a.16.16,0,0,0-.16-.16H118.47a.16.16,0,0,0-.16.16v1a.78.78,0,0,1-.78.78Z"/><path class="cls-2" d="M165.37,115.76a.78.78,0,0,1-.78-.78v-.48a.16.16,0,0,0-.16-.16H151a.16.16,0,0,0-.16.16V115a.78.78,0,0,1-.78.78h-2.23a.78.78,0,0,1-.78-.78V103.2a.78.78,0,0,1,.78-.78H167.6a.78.78,0,0,1,.78.78V115a.78.78,0,0,1-.78.78ZM151,105.82a.16.16,0,0,0-.16.16v5a.16.16,0,0,0,.16.16h13.44a.16.16,0,0,0,.16-.16v-5a.16.16,0,0,0-.16-.16Zm18.75-5.42-.16,0a.78.78,0,0,1-.5-.35c-.44-.71-1-1.5-1.63-2.4a.16.16,0,0,0-.13-.06,203.19,203.19,0,0,1-20.43,1.79,4,4,0,0,0-1.6.25.78.78,0,0,1-1.12-.5l-.56-2.34a.78.78,0,0,1,.74-1l1.37,0,2.56,0a.15.15,0,0,0,.13-.07,62.86,62.86,0,0,0,4.71-9,.78.78,0,0,1,.94-.43l2.89.89a.78.78,0,0,1,.22,1.38A7.86,7.86,0,0,0,156,90.15c-.18.29-.35.58-.56.89s-.4.6-.68,1c-.65,1-1.54,2.35-2.3,3.33a.16.16,0,0,0,0,.17.15.15,0,0,0,.14.08c4-.1,8.24-.23,12.56-.55a.16.16,0,0,0,.1-.26,31.77,31.77,0,0,0-2.62-2.68.78.78,0,0,1,0-1.18L164,89.79a.78.78,0,0,1,1,0,40.7,40.7,0,0,1,7.14,8.14A.78.78,0,0,1,172,99l-1.8,1.25A.78.78,0,0,1,169.74,100.41Z"/><path class="cls-2" d="M184.74,113.92a.78.78,0,0,1-.68-.4,10.21,10.21,0,0,1-.84-2,29.72,29.72,0,0,1-1.4-9,60.62,60.62,0,0,1,.52-6.75,65.5,65.5,0,0,1,1.2-6.8.78.78,0,0,1,1-.56l2.18.79a.78.78,0,0,1,.39,1.14c-1,1.63-2,8.09-2,11.73a17.31,17.31,0,0,0,.49,4.76.15.15,0,0,0,.13.11h0a.16.16,0,0,0,.15-.08l.93-1.61a.78.78,0,0,1,1-.3l.48.26a.78.78,0,0,1,.35,1,31,31,0,0,0-1.7,6.48.78.78,0,0,1-.48.6l-1.49.58A.77.77,0,0,1,184.74,113.92Zm14.63-1.84c-5.75,0-7.29-1.34-7.49-6.5a.78.78,0,0,1,.67-.8l1.89-.26h.11a.78.78,0,0,1,.77.73c.13,2.31.54,3.33,4,3.33a28.72,28.72,0,0,0,6.73-.77l.18,0a.78.78,0,0,1,.78.78v2.25a.78.78,0,0,1-.66.77A45.15,45.15,0,0,1,199.37,112.08Zm-2.75-17.67c-.51,0-1.55,0-2.8-.1a.78.78,0,0,1-.72-.77V91.68a.78.78,0,0,1,.78-.78h.1a26.36,26.36,0,0,0,3.37.24,24.24,24.24,0,0,0,7-1,.78.78,0,0,1,1,.74V92.8a.78.78,0,0,1-.63.76A43.61,43.61,0,0,1,196.62,94.41Z"/><path class="cls-2" d="M233.2,114.11c-5.76,0-6.62-3-6.62-4.8,0-2.68,2.2-4.28,5.9-4.28.66,0,1.33.06,2.08.14h0a.16.16,0,0,0,.12,0,.15.15,0,0,0,0-.12l0-.71c-.24-3.62-.33-5-.4-7.15a.15.15,0,0,0-.05-.11.15.15,0,0,0-.1,0,44.67,44.67,0,0,1-4.79.31h-.52a.78.78,0,0,1-.76-.77l0-1.58a.78.78,0,0,1,.78-.78h.07c.59.05,1.27.08,2.08.08a27.09,27.09,0,0,0,3.14-.2.27.27,0,0,0,.21-.16c0-1.8.06-2.53.09-4l0-1.33a.78.78,0,0,1,.78-.76h.12l2.2.35a.78.78,0,0,1,.63.95,27.35,27.35,0,0,0-.39,3.28l-.09,1a.16.16,0,0,0,.05.13.15.15,0,0,0,.1,0,21.09,21.09,0,0,0,3.06-.83.78.78,0,0,1,1,.73V95a.78.78,0,0,1-.57.75c-1,.28-2.16.49-3,.64l-.61.11a.15.15,0,0,0-.12.15,84.62,84.62,0,0,0,.48,9.23.15.15,0,0,0,.1.13l.1,0a25.92,25.92,0,0,1,5.05,2.69.78.78,0,0,1,.25,1l-.95,1.65a.78.78,0,0,1-.54.38H242a.78.78,0,0,1-.51-.19,18.71,18.71,0,0,0-2.79-2h-.15a.16.16,0,0,0-.08.13C238.4,112.6,237.54,114.11,233.2,114.11Zm-.86-6.29c-1.69,0-2.87.63-2.87,1.53s.83,1.67,3.18,1.67a2.72,2.72,0,0,0,1.93-.5c.41-.42.4-1.06.36-2.15a.32.32,0,0,0-.13-.24l-.16,0A11.38,11.38,0,0,0,232.34,107.82Zm-13,6.24a.78.78,0,0,1-.75-.58,38,38,0,0,1-1.07-9.8,64.7,64.7,0,0,1,1.84-15,.78.78,0,0,1,1-.54l1.92.75a.78.78,0,0,1,.35,1.18,9.69,9.69,0,0,0-.71,2.22l0,.13a87.2,87.2,0,0,0-1.28,10.7,32,32,0,0,0,.17,3.63.16.16,0,0,0,.12.13h0a.16.16,0,0,0,.15-.06l.88-1.29a.78.78,0,0,1,1.08-.2l.74.51a.78.78,0,0,1,.27,1,30.11,30.11,0,0,0-2.29,6.39.78.78,0,0,1-.64.62l-1.68.27Z"/><path class="cls-2" d="M258.09,115.52H258a.77.77,0,0,1-.53-.35,28.23,28.23,0,0,0-5.36-6.16.78.78,0,0,1-.05-1.13l1.37-1.43a.78.78,0,0,1,1-.12,19.83,19.83,0,0,1,6.49,6.31.78.78,0,0,1-.17,1l-2.11,1.69A.77.77,0,0,1,258.09,115.52Z"/><rect class="cls-2" x="274.41" y="88.09" width="4.35" height="26.57" rx="0.78" ry="0.78"/><path class="cls-2" d="M294.45,114.66a.78.78,0,0,1-.78-.78V92.36a.36.36,0,0,0-.39-.39h-6.5a.78.78,0,0,1-.78-.78V88.86a.78.78,0,0,1,.78-.78h18.14a.78.78,0,0,1,.78.78v2.33a.78.78,0,0,1-.78.78h-6.5a.36.36,0,0,0-.39.39v21.53a.78.78,0,0,1-.78.78Z"/><path class="cls-2" d="M330.16,114a.78.78,0,0,1-.63-.32l-1.36-1.89a.78.78,0,0,1,.38-1.19,10.73,10.73,0,0,0,7.56-10.29,8.26,8.26,0,0,0-2.52-6.13,8.76,8.76,0,0,0-5.83-2.34h-.15a.15.15,0,0,0-.13.13,49.8,49.8,0,0,1-4.25,15.25c-1.63,3.36-3,4.93-4.26,4.93s-6.72-3.16-6.72-9.09c0-8,6.73-14.42,15-14.42,7.44,0,12.63,5.08,12.63,12.36a12.73,12.73,0,0,1-2.17,7.24,15.83,15.83,0,0,1-7.25,5.71A.77.77,0,0,1,330.16,114Zm-6.67-21.54A10.44,10.44,0,0,0,319.24,95a11.32,11.32,0,0,0-3.48,7.74c0,2.89,1.65,4.38,2.36,4.38,2.16,0,5-10.16,5.59-14.47a.16.16,0,0,0-.15-.18Z"/><path class="cls-2" d="M356.72,115a.78.78,0,0,1-.57-.25l-.17-.18c-1.17-1.25-2.18-2.34-4.87-5.17a.16.16,0,0,0-.22,0l-.17.16a.78.78,0,0,1-.52.2h-.13a.78.78,0,0,1-.55-.39l-1.1-2a.78.78,0,0,1,.26-1,89.11,89.11,0,0,1,7.86-4.78.15.15,0,0,0,.08-.14l0-4.44a.16.16,0,0,0-.16-.15,34.3,34.3,0,0,1-3.62.2H352a.78.78,0,0,1-.75-.67L351,94.36a.78.78,0,0,1,.77-.88h.05c.65,0,1.36.07,2.24.07s1.44,0,2.38-.1a.16.16,0,0,0,.15-.16V91.77c0-2,0-2.71,0-3.83a.78.78,0,0,1,.78-.79h.1l2.37.32a.78.78,0,0,1,.62,1.06,30.7,30.7,0,0,0-.24,3.58l0,.67a.16.16,0,0,0,.05.13.15.15,0,0,0,.1,0,21.27,21.27,0,0,0,4.06-1.23.78.78,0,0,1,1.07.72v1.84a.78.78,0,0,1-.52.73,30.45,30.45,0,0,1-4.72,1.24.16.16,0,0,0-.13.15l0,3.4a.16.16,0,0,0,.06.12l.1,0a19.34,19.34,0,0,1,5.29-.79c5.62,0,8.13,3.86,8.13,7.68,0,4.22-2.7,7.41-6.27,7.41-3.32,0-4-1.81-4.44-4a.78.78,0,0,1,.47-.88l1.54-.61a.78.78,0,0,1,1,.46c.39,1.1.81,1.48,1.61,1.48,1.36,0,2.8-1.33,2.8-3.8a4.67,4.67,0,0,0-4.93-4.73,15.42,15.42,0,0,0-5.21,1.19.31.31,0,0,0-.17.18s0,7.16-.06,9.65a.78.78,0,0,1-.49.72l-2.47,1A.78.78,0,0,1,356.72,115Zm-.25-9.7a.15.15,0,0,0-.08,0,35.45,35.45,0,0,0-3.14,2.1.16.16,0,0,0-.06.1.16.16,0,0,0,0,.12,29,29,0,0,0,3.15,3.25.16.16,0,0,0,.1,0c.12,0,.16-.09.16-.16v-5.33a.15.15,0,0,0-.08-.14ZM374,98.7a.78.78,0,0,1-.49-.17,19.53,19.53,0,0,0-4.95-2.88.78.78,0,0,1-.33-1.18L369.31,93a.78.78,0,0,1,.92-.26,24.45,24.45,0,0,1,5.32,3,.78.78,0,0,1,.17,1.08l-1.11,1.52a.78.78,0,0,1-.52.31Z"/><path class="cls-2" d="M394.77,116.14a.78.78,0,0,1-.7-.44l-1-2.1a.78.78,0,0,1,.7-1.11h.06q.53,0,1,0c1.21,0,1.43-.42,1.43-1.6v-4.37a.16.16,0,0,0-.16-.16H384.43a.78.78,0,0,1-.78-.78v-1.58a.78.78,0,0,1,.78-.78h1.2a.16.16,0,0,0,.11-.05l.12-.11-.12-.1-1.48-1.14a.78.78,0,0,1,.12-1.31,19.5,19.5,0,0,0,3.55-2.42.15.15,0,0,0,0-.2,16.43,16.43,0,0,0-1.7-2.36.15.15,0,0,0-.12-.06h0a.16.16,0,0,0-.12.05c-.17.19-.35.36-.53.52a.78.78,0,0,1-1,.06l-1.4-1A.78.78,0,0,1,383,94a26.42,26.42,0,0,0,5-7.36.78.78,0,0,1,.7-.45h.12l1.91.29a.78.78,0,0,1,.56,1.14.17.17,0,0,0,0,.18.16.16,0,0,0,.13.07h4.8a.78.78,0,0,1,.67.38l.27.45a.78.78,0,0,1,.07.64,24.54,24.54,0,0,1-4.21,7.9.16.16,0,0,0,.12.25h9.9a.16.16,0,0,0,.12-.26A24.25,24.25,0,0,1,397.91,88a.78.78,0,0,1,.49-.93l1.74-.63a.78.78,0,0,1,1,.49,25.25,25.25,0,0,0,1.54,3.75.94.94,0,0,1,.06.15,20.77,20.77,0,0,0,2,3.14.15.15,0,0,0,.12.06A.16.16,0,0,0,405,94a20.6,20.6,0,0,0,2-3.12.15.15,0,0,0,0-.15.16.16,0,0,0-.13-.08h-3.13a.78.78,0,0,1-.78-.78v-1.2a.78.78,0,0,1,.78-.78h6.54a.78.78,0,0,1,.56.24l.87.92a.78.78,0,0,1,.08,1c-1.32,2-3.29,4.63-4.67,6.35a.15.15,0,0,0,0,.21,23.06,23.06,0,0,0,4.57,3.16.78.78,0,0,1,.19,1.22l-1.39,1.42a.78.78,0,0,1-.93.14A21.85,21.85,0,0,1,404.78,99a.15.15,0,0,0-.11,0c-.12,0-.16.09-.16.16v.82a.78.78,0,0,1-.78.78h-11.2a.78.78,0,0,1-.78-.78v-.72a.15.15,0,0,0-.1-.14h-.06a.14.14,0,0,0-.11,0,25.13,25.13,0,0,1-4.58,3.93.79.79,0,0,1-.15.13l.12.11a.16.16,0,0,0,.12.05h24.78a.78.78,0,0,1,.78.78v1.58a.78.78,0,0,1-.78.78H400.27a.16.16,0,0,0-.16.16v5.74c0,2.61-1.15,3.83-3.63,3.83ZM388.45,92.9a.15.15,0,0,0-.11,0c-.1.11-.57.73-.65.88a.15.15,0,0,0,0,.18,14.66,14.66,0,0,1,1.88,2.21.21.21,0,0,0,.12.08h.13a5.29,5.29,0,0,0,.55-.58l.26-.3a.16.16,0,0,0,0-.21l-.16-.19a15.77,15.77,0,0,0-2-2.07A.15.15,0,0,0,388.45,92.9ZM390,90.46a.16.16,0,0,0-.13.07c-.07.11-.25.39-.32.53a.16.16,0,0,0,.05.2,10.85,10.85,0,0,1,2.31,2.07.16.16,0,0,0,.12.05.16.16,0,0,0,.13-.08,10.09,10.09,0,0,0,1.22-2.65.16.16,0,0,0-.15-.2Zm18.38,24.87a.78.78,0,0,1-.54-.29,44,44,0,0,0-4.81-5,.78.78,0,0,1,0-1.19l1.51-1.19a.78.78,0,0,1,1,0,47.37,47.37,0,0,1,5.27,4.7.78.78,0,0,1,0,1.11L409,115.12a.78.78,0,0,1-.52.2Zm-21.35-.11a.77.77,0,0,1-.47-.16l-1.71-1.31a.78.78,0,0,1,0-1.26,23,23,0,0,0,5-4.54.78.78,0,0,1,1-.21l1.83.91a.78.78,0,0,1,.27,1.16,26.57,26.57,0,0,1-5.51,5.28A.78.78,0,0,1,387.06,115.22Z"/><path class="cls-2" d="M434,115a.77.77,0,0,1-.36-.09l-2.2-1.17a.78.78,0,0,1-.14-1.28,15.54,15.54,0,0,0,3.83-5,21.06,21.06,0,0,0,2.11-9.28,91.92,91.92,0,0,0-.71-9.66.78.78,0,0,1,.77-.88h2.31a.78.78,0,0,1,.74,1,.39.39,0,0,0,0,.12c0,.22.08.95.16,1.68l0,.43c.22,2.54.41,5,.41,7.21a25.11,25.11,0,0,1-2.08,10.18,22.37,22.37,0,0,1-4.29,6.48A.78.78,0,0,1,434,115Zm-10-7.79a.78.78,0,0,1-.74-.53A27.33,27.33,0,0,1,421.88,98a60.54,60.54,0,0,1,.83-9.32.78.78,0,0,1,.77-.66l2.19.12a.78.78,0,0,1,.67,1.07c-.8,1.91-1.07,7.87-1.09,9a7.86,7.86,0,0,0,.24,2.16.16.16,0,0,0,.14.12h0a.16.16,0,0,0,.16-.1c.33-.86.87-2.27,1.55-3.86a.78.78,0,0,1,1.14-.34l.83.54a.78.78,0,0,1,.29,1,80.68,80.68,0,0,0-3.35,9,.78.78,0,0,1-.74.56Z"/><path class="cls-2" d="M461.37,113.7c-.62,0-1.25,0-1.88-.07a.78.78,0,0,1-.7-.61l-.38-1.7a.78.78,0,0,1,.76-.94h.08a10,10,0,0,0,1,.05,2.82,2.82,0,0,0,2.49-1c1.47-1.82,1.86-5.89,1.86-8,0-2.75-.71-3.63-2.94-3.63a11.5,11.5,0,0,0-1.88.17.16.16,0,0,0-.12.12c-1.71,6.87-3.3,10.84-6.07,15.19a.78.78,0,0,1-1,.29l-1.83-.83a.78.78,0,0,1-.32-1.14A35.83,35.83,0,0,0,456.12,99a.16.16,0,0,0-.15-.19,28.78,28.78,0,0,0-3.78,1.42.78.78,0,0,1-1.06-.48l-.64-2.08a.78.78,0,0,1,.61-1c2-.32,3.19-.59,5.56-1.1a.16.16,0,0,0,.12-.13,39.18,39.18,0,0,0,.35-5.48.78.78,0,0,1,.78-.78H458l2.4.34a.78.78,0,0,1,.59,1.1,1.64,1.64,0,0,0-.1.43l0,.36c-.14,1.14-.22,1.77-.47,3.18a.16.16,0,0,0,.15.18,14.64,14.64,0,0,1,2.51-.24c4.32,0,4.9,3.54,4.9,7,0,4.81-1.14,9.26-2.77,10.82A4.92,4.92,0,0,1,461.37,113.7Zm10.81-9.2a.78.78,0,0,1-.68-.4l-.88-1.59a.78.78,0,0,1,.44-1.12c.76-.25.92-.61.92-1.09,0-.8-1.15-3.39-4.33-7.23a.78.78,0,0,1,.16-1.13l1.24-.86a.78.78,0,0,1,1,.14c3.82,4.62,5.67,8,5.67,10.31,0,2.08-2,2.68-3.44,2.94Zm2.58-11.33a.78.78,0,0,1-.53-.3,14.6,14.6,0,0,0-1.35-1.52.78.78,0,0,1,.08-1.18l.33-.24a.78.78,0,0,1,1,.07,21,21,0,0,1,1.48,1.63.78.78,0,0,1-.11,1.09l-.33.27a.78.78,0,0,1-.49.18Zm3.69-2a.77.77,0,0,1-.63-.33,13.48,13.48,0,0,0-1.2-1.46.78.78,0,0,1,.11-1.16L477,88a.78.78,0,0,1,1,.06,15.48,15.48,0,0,1,1.46,1.56.78.78,0,0,1-.17,1.13l-.42.29A.77.77,0,0,1,478.44,91.19Z"/><path class="cls-2" d="M501.76,115.72a.78.78,0,0,1-.61-.29L500,114a.78.78,0,0,1,.44-1.24,9.12,9.12,0,0,0,4.43-2.24,6.59,6.59,0,0,0,2-4.86,5.06,5.06,0,0,0-3.51-4.88h-.07c-.09,0-.14,0-.16.07a30.73,30.73,0,0,1-5.58,8.63.16.16,0,0,0,0,.15c.14.47.22.71.32,1l.09.29a.78.78,0,0,1-.37.92l-1.7.92a.78.78,0,0,1-1.11-.44l-.07-.24a.15.15,0,0,0-.1-.1h-.14a9.58,9.58,0,0,1-4.83,1.7c-2.17,0-3.63-1.73-3.63-4.31,0-1.06.36-6.55,7.41-10.45a.16.16,0,0,0,.08-.13c.06-1.17.14-1.94.28-3.23l.06-.58a.15.15,0,0,0,0-.12.16.16,0,0,0-.11,0c-1.91.09-2.8.1-4.24.1h0a.78.78,0,0,1-.74-.53L488.3,93a.78.78,0,0,1,.74-1h.06c.88.07,2.24.14,3.71.14.48,0,1,0,1.44,0a.15.15,0,0,0,.15-.13c.36-2.11.64-3.34,1-4.88a.78.78,0,0,1,.75-.58l.2,0,2.09.56a.78.78,0,0,1,.51,1.06,26.2,26.2,0,0,0-1,3.31.16.16,0,0,0,.15.2,35.3,35.3,0,0,0,7.22-1.81.78.78,0,0,1,1.05.73v1.6a.78.78,0,0,1-.56.75,46.42,46.42,0,0,1-8.37,1.62.16.16,0,0,0-.14.13l-.06.4c-.15.93-.2,1.21-.35,2.43a.15.15,0,0,0,.15.17,14.22,14.22,0,0,1,2.92-.29h.82a.16.16,0,0,0,.15-.12c.08-.34.15-.62.22-.89a.78.78,0,0,1,.76-.6l.17,0,2,.44a.78.78,0,0,1,.57,1l-.2.59a.15.15,0,0,0,.1.2c4,1.37,6.08,4,6.08,7.76,0,4.83-2.9,8.16-8.63,9.88A.77.77,0,0,1,501.76,115.72Zm-8.42-13.34a.16.16,0,0,0-.1,0c-3.31,2.76-4,4.94-4,6.27s.47,1.77,1.43,1.77a5.38,5.38,0,0,0,3.2-1.44L494,109a.16.16,0,0,0,.06-.15,48.77,48.77,0,0,1-.52-6.27.15.15,0,0,0-.09-.14Zm5.89-2.35a7.69,7.69,0,0,0-2.53.39.15.15,0,0,0-.11.14,34.83,34.83,0,0,0,.16,4.79l0,.18a.16.16,0,0,0,.12.14h0a.16.16,0,0,0,.15-.07,27.79,27.79,0,0,0,2.83-5.36.15.15,0,0,0,0-.14.16.16,0,0,0-.13-.07Z"/><path class="cls-2" d="M530,114.63c-3.85,0-6.34-1.79-6.34-4.55a4.68,4.68,0,0,1,4.9-4.42c3.48,0,5.61,2.66,6.64,3.94a.19.19,0,0,0,.12.07h0a.18.18,0,0,0,.12,0,6.18,6.18,0,0,0,2.32-4.69c0-3.2-3-4.66-5.72-4.66a9.52,9.52,0,0,0-4,.88c-1.85,1-4.3,3.33-6.45,5.5a.77.77,0,0,1-.55.23h0a.78.78,0,0,1-.55-.24l-1.5-1.58a.78.78,0,0,1,.09-1.15A68.37,68.37,0,0,0,531,92.12a.16.16,0,0,0-.12-.25,30.94,30.94,0,0,1-7.27.85h0a.78.78,0,0,1-.76-.62l-.39-1.89a.78.78,0,0,1,.76-.93h.05c1.13.08,2.06.12,2.64.12a42,42,0,0,0,9.79-1.49.78.78,0,0,1,.89.32l.95,1.47a.78.78,0,0,1-.15,1,96.61,96.61,0,0,0-7,6.84.16.16,0,0,0,.11.26,27.5,27.5,0,0,1,3.34-.21,7.39,7.39,0,0,1,7.48,7.44C541.28,110.42,536.34,114.63,530,114.63Zm-1.31-6.26a1.67,1.67,0,0,0-1.87,1.6c0,1.26,1.54,1.7,3,1.7a9.17,9.17,0,0,0,2.18-.27l.19,0a.16.16,0,0,0,.11-.09.16.16,0,0,0,0-.14C531.83,110.3,530.73,108.37,528.72,108.37Z"/><path class="cls-2" d="M556,115.26a.78.78,0,0,1-.71-.47l-.93-2.15a.78.78,0,0,1,.71-1.08h.09a23.82,23.82,0,0,0,2.71.18c6.51,0,9.47-3.45,9.47-6.65,0-2.29-1.76-3.77-4.49-3.77-1.34,0-4.91.49-9,5a.78.78,0,0,1-.94.16l-1.81-1a.78.78,0,0,1-.41-.75A63.27,63.27,0,0,1,553,93.29a.78.78,0,0,1,1-.51l2.16.85a.78.78,0,0,1,.45,1,43.42,43.42,0,0,0-1.77,6.74.16.16,0,0,0,.08.16H555a.12.12,0,0,0,.09,0,13.19,13.19,0,0,1,8.35-3.43,7.28,7.28,0,0,1,7.48,7.37c0,8.38-8.54,9.63-15,9.83Zm6.68-22.12a.77.77,0,0,1-.4-.11,31,31,0,0,0-6.17-2.88.78.78,0,0,1-.45-1l.75-1.72a.78.78,0,0,1,1-.43,41.57,41.57,0,0,1,6.61,2.83.78.78,0,0,1,.32,1l-.92,1.89a.78.78,0,0,1-.7.44Z"/><path class="cls-2" d="M587.65,114.9a7.53,7.53,0,0,1-4.92-1.71c-1.61-1.41-2.11-3.15-2.11-11.3,0-.69,0-2.28.07-4.17V97.5c.06-3.16.14-7,.12-9.15a.78.78,0,0,1,.78-.78h.11l3.15.45a.78.78,0,0,1,.43,1.33,118.79,118.79,0,0,0-1,13.86c0,1.73,0,5,.67,6.16a3.52,3.52,0,0,0,3.16,1.52c.93,0,5.73-.33,9.51-6.91a.78.78,0,0,1,.53-.38h.14a.78.78,0,0,1,.49.18l1.83,1.51a.78.78,0,0,1,.13,1.05,23.63,23.63,0,0,1-6.32,6.37A12.33,12.33,0,0,1,587.65,114.9Z"/><path class="cls-2" d="M614.88,112.39a3.55,3.55,0,0,1-2.44-1.09C610.08,109,609,104.95,609,98.52a33.5,33.5,0,0,1,.81-8,.78.78,0,0,1,.76-.61l.2,0,2.23.61a.78.78,0,0,1,.35,1.3,33.71,33.71,0,0,0-.7,7.77c0,6,1.34,8.1,2.49,8.1s2.14-2.23,3-4.17a.78.78,0,0,1,.54-.46l.17,0a.78.78,0,0,1,.52.2l1.35,1.2a.78.78,0,0,1,.19.91C619,109.36,617.37,112.39,614.88,112.39Zm18.2-6.35a.78.78,0,0,1-.77-.65,31.47,31.47,0,0,0-4.37-12.13.78.78,0,0,1,.32-1.1l1.89-.92a.78.78,0,0,1,1,.26,28.71,28.71,0,0,1,5,13.07.78.78,0,0,1-.57.86l-2.33.6Z"/><path class="cls-2" d="M648.84,116.9a6.09,6.09,0,1,1,6.07-6.1,6.11,6.11,0,0,1-6.07,6.1Zm0-9a2.89,2.89,0,0,0-2.9,2.87,2.89,2.89,0,1,0,2.9-2.87Z"/><path class="cls-2" d="M105.51,519.27a1.38,1.38,0,0,1-1.41-1.41V513a1.75,1.75,0,0,1,.49-1.33l15.66-19.5c1.87-2.29,2.7-4.23,2.7-6.31a4.79,4.79,0,0,0-5.11-5.11c-3.79,0-4.95,2.66-5.25,4.89a1.65,1.65,0,0,1-.28.69,1.28,1.28,0,0,1-1,.51l-.25,0-5.81-1.18a1.43,1.43,0,0,1-1.12-1.65c.63-5.58,5.18-11.27,13.93-11.27,8.26,0,13.81,5.29,13.81,13.16,0,3.85-1.38,7.3-4.35,10.86l-12,14.54h14.93a1.38,1.38,0,0,1,1.41,1.41v5.22a1.38,1.38,0,0,1-1.41,1.41Z"/><path class="cls-2" d="M159,520c-6.7,0-11.43-3.27-13.32-9.21-.59-1.84-.95-3.73-.95-14.45s.36-12.62.95-14.46c1.89-5.93,6.61-9.21,13.32-9.21s11.43,3.27,13.38,9.2c.59,1.85,1,3.73,1,14.46s-.36,12.62-.95,14.46C170.38,516.72,165.63,520,159,520Zm0-39.27c-2.39,0-4,1-4.7,3-.42,1.27-.54,3-.54,12.59s.12,11.32.55,12.61c.73,2,2.26,3,4.69,3s4-1,4.76-3c.42-1.27.54-3,.54-12.59s-.12-11.32-.55-12.61C163,481.7,161.43,480.71,159,480.71Z"/><path class="cls-2" d="M198.77,519.27a1.38,1.38,0,0,1-1.41-1.41v-33.6l-5.62,3.94a1.28,1.28,0,0,1-2-1V480.6a1.81,1.81,0,0,1,.74-1.51l7.14-5.18a2.43,2.43,0,0,1,1.62-.54h5.55a1.38,1.38,0,0,1,1.41,1.41v43.06a1.38,1.38,0,0,1-1.41,1.41Z"/><path class="cls-2" d="M232.47,519.27a1.28,1.28,0,0,1-1.19-1.75l14.16-36.09h-9.62v4.72a1.38,1.38,0,0,1-1.41,1.41h-5.61a1.38,1.38,0,0,1-1.41-1.41V474.79a1.38,1.38,0,0,1,1.41-1.41h24.86a1.38,1.38,0,0,1,1.41,1.41v5.09a3.72,3.72,0,0,1-.25,1.46L240.13,518.2a1.87,1.87,0,0,1-.47.73,1.28,1.28,0,0,1-.46.26,2,2,0,0,1-.63.08Z"/><rect class="cls-2" x="267.39" y="509.22" width="9.35" height="9.48" rx="1.41" ry="1.41"/><path class="cls-2" d="M302.15,519.27a1.38,1.38,0,0,1-1.41-1.41v-33.6l-5.62,3.94a1.28,1.28,0,0,1-2-1V480.6a1.81,1.81,0,0,1,.74-1.51l7.14-5.18a2.43,2.43,0,0,1,1.62-.54h5.55a1.38,1.38,0,0,1,1.41,1.41v43.06a1.38,1.38,0,0,1-1.41,1.41Z"/><path class="cls-2" d="M344.18,520c-6.7,0-11.43-3.27-13.32-9.21-.59-1.84-.95-3.73-.95-14.45s.36-12.62.95-14.46c1.89-5.93,6.61-9.21,13.32-9.21s11.43,3.27,13.38,9.2c.59,1.85,1,3.73,1,14.46s-.36,12.62-.95,14.46C355.61,516.72,350.86,520,344.18,520Zm0-39.27c-2.39,0-4,1-4.7,3-.42,1.27-.54,3-.54,12.59s.12,11.32.55,12.61c.73,2,2.26,3,4.69,3s4-1,4.76-3c.42-1.27.54-3,.54-12.59s-.12-11.32-.55-12.61C348.22,481.7,346.66,480.71,344.18,480.71Z"/><rect class="cls-2" x="370.78" y="509.22" width="9.35" height="9.48" rx="1.41" ry="1.41"/><path class="cls-2" d="M394.13,519.27a1.38,1.38,0,0,1-1.41-1.41V513a1.75,1.75,0,0,1,.49-1.33l15.66-19.5c1.87-2.29,2.7-4.23,2.7-6.31a4.79,4.79,0,0,0-5.11-5.11c-3.79,0-4.95,2.66-5.25,4.89a1.65,1.65,0,0,1-.28.69,1.28,1.28,0,0,1-1,.51l-.25,0-5.81-1.18a1.43,1.43,0,0,1-1.12-1.65c.63-5.58,5.18-11.27,13.93-11.27,8.26,0,13.81,5.29,13.81,13.16,0,3.85-1.38,7.3-4.35,10.86l-12,14.54H419a1.38,1.38,0,0,1,1.41,1.41v5.22a1.38,1.38,0,0,1-1.41,1.41Z"/><path class="cls-2" d="M447.57,520c-8.86,0-15-5.79-15-14.07a13.25,13.25,0,0,1,5.1-10.73,12,12,0,0,1-4.12-9.11c0-6.46,4.4-13.42,14.07-13.42s14.13,7,14.13,13.42a12,12,0,0,1-4.12,9.11,13.25,13.25,0,0,1,5.1,10.73C462.69,514.2,456.47,520,447.57,520Zm0-20.75c-3.68,0-6.15,2.55-6.15,6.35s2.47,6.35,6.15,6.35,6.22-2.49,6.22-6.35A6,6,0,0,0,447.57,499.24Zm0-18.53a5.24,5.24,0,1,0,5.24,5.24A5.09,5.09,0,0,0,447.57,480.71Z"/><path class="cls-2" d="M507.84,498.82l-.31,0a1.28,1.28,0,0,1-1.11-1.27v-2.17a1.28,1.28,0,0,1,1.11-1.27l.31,0h17.94l.31,0a1.28,1.28,0,0,1,1.11,1.27v2.17a1.28,1.28,0,0,1-1.11,1.27l-.31,0Z"/><path class="cls-2" d="M546.06,519.27a1.38,1.38,0,0,1-1.41-1.41V513a1.75,1.75,0,0,1,.49-1.33l15.66-19.5c1.87-2.29,2.7-4.23,2.7-6.31a4.79,4.79,0,0,0-5.11-5.11c-3.79,0-4.95,2.66-5.25,4.89a1.66,1.66,0,0,1-.28.69,1.28,1.28,0,0,1-1,.51l-.25,0-5.81-1.18a1.43,1.43,0,0,1-1.12-1.65c.63-5.58,5.18-11.27,13.93-11.27,8.26,0,13.81,5.29,13.81,13.16,0,3.85-1.38,7.3-4.35,10.86l-12,14.54H571a1.38,1.38,0,0,1,1.41,1.41v5.22a1.38,1.38,0,0,1-1.41,1.41Z"/><path class="cls-2" d="M592.21,519.27a1.28,1.28,0,0,1-1.12-1.9L600,501.16a12,12,0,0,1-2,.17c-6.67,0-13.42-4.77-13.42-13.87,0-8.84,6-14.79,14.92-14.79s14.92,5.81,14.92,14.46a21.85,21.85,0,0,1-3,10.55l-11.55,20.81a1.75,1.75,0,0,1-.38.47,1.28,1.28,0,0,1-.64.28,2.51,2.51,0,0,1-.43,0Zm7.29-38.56c-3.62,0-6,2.47-6,6.28s2.34,6.28,6,6.28,6-2.47,6-6.28S603.17,480.71,599.51,480.71Z"/><path class="cls-2" d="M481.23,488.3c-3.26,0-5.37-2.53-5.37-6.45a9.58,9.58,0,0,1,2.24-6.2.55.55,0,0,1,.74,0l1.77,1.45a.55.55,0,0,1,.08.76,6.93,6.93,0,0,0-1.66,4.25c0,1.69.77,2.74,2,2.74.81,0,1.6-.33,1.93-2.69l.12-.86c.59-4.28,3-5.18,5-5.18,3.13,0,5.22,2.34,5.22,5.82a9.3,9.3,0,0,1-1.69,5.46.55.55,0,0,1-.73.13l-1.81-1.15a.55.55,0,0,1-.17-.75,6.81,6.81,0,0,0,1.21-3.75c0-1.38-.71-2.23-1.85-2.23-.7,0-1.54.31-1.88,2.71l-.12.86C485.79,486.57,484.1,488.3,481.23,488.3Z"/><path class="cls-2" d="M476.68,505.3a.55.55,0,0,1-.55-.55v-2.28a.61.61,0,0,1,.47-.62l2.91-1v-5.65l-2.93-1a.6.6,0,0,1-.46-.62v-2.32a.55.55,0,0,1,.73-.51l15.71,5.61a.63.63,0,0,1,.45.62v2.2a.63.63,0,0,1-.46.62l-15.7,5.47A.54.54,0,0,1,476.68,505.3Zm6-5.52,5.09-1.73-5.09-1.75Z"/><path class="cls-2" d="M490.4,518.78a.55.55,0,0,1-.55-.54l0-4.09H476.69a.55.55,0,0,1-.55-.54l0-2.36a.55.55,0,0,1,.55-.55l13.17,0v-4.07a.55.55,0,0,1,.54-.55l2.08,0a.55.55,0,0,1,.55.55l0,11.63a.55.55,0,0,1-.16.39.6.6,0,0,1-.4.18Z"/><path class="cls-2" d="M633.09,487c-3.25,0-5.34-2.52-5.34-6.42A9.55,9.55,0,0,1,630,474.4a.5.5,0,0,1,.68,0l1.8,1.45a.5.5,0,0,1,.08.7,7.16,7.16,0,0,0-1.67,4.3c0,1.7.78,2.76,2,2.76.78,0,1.62-.32,2-2.71L635,480c.59-4.26,3-5.16,4.94-5.16,3.11,0,5.2,2.33,5.2,5.79a9.27,9.27,0,0,1-1.69,5.44.5.5,0,0,1-.67.12L640.95,485a.5.5,0,0,1-.16-.69,6.93,6.93,0,0,0,1.21-3.8c0-1.39-.72-2.26-1.88-2.26-.71,0-1.56.31-1.9,2.73l-.12.86C637.63,485.28,635.94,487,633.09,487Z"/><path class="cls-2" d="M634,502.7a6.29,6.29,0,0,1,0-12.58h10.3a.5.5,0,0,1,.5.49l0,2.38a.5.5,0,0,1-.5.51l-10.29,0c-2,0-3.19,1.1-3.19,2.86s1.22,2.88,3.19,2.88h10.25a.5.5,0,0,1,.5.49l0,2.38a.5.5,0,0,1-.15.37.63.63,0,0,1-.39.18Z"/><path class="cls-2" d="M628.55,519.33a.5.5,0,0,1-.5-.49l0-2.21a.72.72,0,0,1,.39-.67l10.4-6.18H628.55a.5.5,0,0,1-.5-.49l0-2.11a.5.5,0,0,1,.5-.51l15.8,0a.5.5,0,0,1,.5.49l0,2.23a.72.72,0,0,1-.39.67L634,516.18h10.27a.5.5,0,0,1,.5.49l0,2.11a.5.5,0,0,1-.15.37.63.63,0,0,1-.39.18Z"/><polyline class="cls-4" points="519.69 486.99 529.27 496.56 519.69 506.14"/><path class="cls-2" d="M501.85,569.43a1.49,1.49,0,1,1-1.49,1.49,1.49,1.49,0,0,1,1.49-1.49m0-2.23a3.72,3.72,0,1,0,3.72,3.72,3.72,3.72,0,0,0-3.72-3.72Z"/><path class="cls-2" d="M160.38,162.46a2.12,2.12,0,0,1,2.55,2.15v14a3.23,3.23,0,0,1-2.55,3.05l-11.27,2a3.2,3.2,0,0,0-2.54,3.05l.36,67a2.61,2.61,0,0,0,2.6,2.59H155a2.6,2.6,0,0,1,2.59,2.59v13.66a2.6,2.6,0,0,1-2.59,2.59H112a2.6,2.6,0,0,1-2.59-2.59V258.91a2.6,2.6,0,0,1,2.59-2.59h5.38a2.59,2.59,0,0,0,2.58-2.59l-.17-62.21a2.13,2.13,0,0,0-2.56-2.16l-10.58,1.77a2.1,2.1,0,0,1-2.52-2.16l.17-14.34a3.23,3.23,0,0,1,2.58-3Z"/><path class="cls-2" d="M239.24,163.66a2.6,2.6,0,0,1,2.59,2.59v13.66a2.6,2.6,0,0,1-2.59,2.59h-5.4a2.6,2.6,0,0,0-2.59,2.59v68.64a2.6,2.6,0,0,0,2.59,2.59h10.87a2.6,2.6,0,0,0,2.59-2.59V232.94a2.6,2.6,0,0,1,2.59-2.59h12.44a2.6,2.6,0,0,1,2.59,2.59v39.63a2.6,2.6,0,0,1-2.59,2.59h-89a2.6,2.6,0,0,1-2.59-2.59V232.94a2.6,2.6,0,0,1,2.59-2.59H186a2.6,2.6,0,0,1,2.59,2.59v20.79a2.6,2.6,0,0,0,2.59,2.59h10.42a2.6,2.6,0,0,0,2.59-2.59V185.09a2.6,2.6,0,0,0-2.59-2.59l-5.3-.46a2.6,2.6,0,0,1-2.59-2.59V165.79a2.6,2.6,0,0,1,2.59-2.59Z"/><path class="cls-2" d="M568,318.44H500.61a9.28,9.28,0,0,0-3.49,1.91l-10.23,8a7.2,7.2,0,0,0-2.45,5V349.6c0,1.71,1.1,2.25,2.45,1.2l14.91-11.62a10.58,10.58,0,0,1,5.56-1.91h22.88c1.71,0,2,.86.66,1.91l-12.91,10a4.22,4.22,0,0,1-4.91,0l-4.63-3.6a4.06,4.06,0,0,0-4.85.08l-9.18,7.61a2.4,2.4,0,0,0,.06,3.89l4.16,3.24a2.31,2.31,0,0,1,0,3.82l-11.76,9.15a7.2,7.2,0,0,0-2.45,5v16.28c0,1.71,1.1,2.25,2.45,1.2l97-75.57c1.35-1.05,1.05-1.91-.66-1.91Z"/><path class="cls-2" d="M432.4,181.21H415.11a3.11,3.11,0,0,0-2.58,4.84l5.75,8.61a3.11,3.11,0,0,1-2.58,4.84H343.53a3.11,3.11,0,0,1-1.87-5.59l9.52-7.15v-18.1a3.11,3.11,0,0,0-5-2.49l-41.57,31.22a3.11,3.11,0,0,0-1.24,2.49v15.35a3.11,3.11,0,0,0,3.11,3.11H442.85a3.11,3.11,0,0,0,3.11-3.11V200.41a3.11,3.11,0,0,0-.5-1.69L435,182.62A3.11,3.11,0,0,0,432.4,181.21Z"/><path class="cls-2" d="M530.14,181.26a3.12,3.12,0,0,0,3.11-3.11V165.53a3.12,3.12,0,0,0-3.11-3.11h-42.6a3.12,3.12,0,0,0-3.11,3.11v12.62a3.12,3.12,0,0,0,3.11,3.11h4.85a3.12,3.12,0,0,1,3.11,3.11v68.85a3.12,3.12,0,0,1-3.11,3.11h-4.85a3.12,3.12,0,0,0-3.11,3.11v12.62a3.12,3.12,0,0,0,3.11,3.11h42.6a3.12,3.12,0,0,0,3.11-3.11V259.43a3.12,3.12,0,0,0-3.11-3.11h-4.85a3.12,3.12,0,0,1-3.11-3.11V184.37a3.12,3.12,0,0,1,3.11-3.11Z"/><path class="cls-2" d="M452,363a3.68,3.68,0,0,0,3.08-3.53V346.82a2.64,2.64,0,0,0-3.08-2.68L409.64,350a2.64,2.64,0,0,1-3.08-2.68V321.54a3.12,3.12,0,0,0-3.11-3.11H383a3.12,3.12,0,0,0-3.11,3.11V428.06a3.12,3.12,0,0,0,3.11,3.11h69a3.12,3.12,0,0,0,3.11-3.11V415.44a3.12,3.12,0,0,0-3.11-3.11H409.67a3.12,3.12,0,0,1-3.11-3.11V372.34a3.68,3.68,0,0,1,3.08-3.53Z"/><path class="cls-2" d="M264.92,350V337.4a3.11,3.11,0,0,0-3.11-3.11H200.95a3.11,3.11,0,0,1-3.11-3.11v-9.64a3.11,3.11,0,0,0-3.11-3.11H174.28a3.11,3.11,0,0,0-3.11,3.11v9.64a3.11,3.11,0,0,1-3.11,3.11H107.32a3.11,3.11,0,0,0-3.11,3.11V350a3.11,3.11,0,0,0,3.11,3.11h9.41a2.59,2.59,0,0,1,1.68.61l44.87,38a3.11,3.11,0,0,1,0,4.74l-34.34,29.16a3.11,3.11,0,0,0,2,5.48h27.51a2.59,2.59,0,0,0,1.68-.61l22.42-19a3.11,3.11,0,0,1,4,0l22.42,19a2.59,2.59,0,0,0,1.68.61h27.51a3.11,3.11,0,0,0,2-5.48l-34.34-29.16a3.11,3.11,0,0,1,0-4.74l44.87-38a2.59,2.59,0,0,1,1.68-.61h9.41A3.11,3.11,0,0,0,264.92,350Zm-82.87,26.31-23-19.55a2.07,2.07,0,0,1,1.34-3.65h48.4a2.07,2.07,0,0,1,1.34,3.65l-23,19.55A3.89,3.89,0,0,1,182.05,376.33Z"/><path class="cls-2" d="M306.51,227.41a3.12,3.12,0,0,0-3.11,3.11v41.53a3.12,3.12,0,0,0,3.11,3.11H442.85a3.12,3.12,0,0,0,3.11-3.11V230.52a3.12,3.12,0,0,0-3.11-3.11Zm112.78,25.8a3.12,3.12,0,0,1-3.11,3.11h-83a3.12,3.12,0,0,1-3.11-3.11v-3.86a3.12,3.12,0,0,1,3.11-3.11h83a3.12,3.12,0,0,1,3.11,3.11Z"/><path class="cls-2" d="M509.24,391.44a3.12,3.12,0,0,0-3.11,3.11v12.62a3.12,3.12,0,0,0,3.11,3.11h39.17a3.12,3.12,0,0,1,3.11,3.11v14.68a3.12,3.12,0,0,0,3.11,3.11h20.46a3.12,3.12,0,0,0,3.11-3.11V413.39a3.12,3.12,0,0,1,3.11-3.11h39.17a3.12,3.12,0,0,0,3.11-3.11V394.55a3.12,3.12,0,0,0-3.11-3.11Z"/><rect class="cls-2" x="539.03" y="364.2" width="51.66" height="18.84" rx="3.11" ry="3.11"/><rect class="cls-2" x="496.99" y="418.68" width="35.81" height="12.49" rx="3.11" ry="3.11"/><rect class="cls-2" x="596.91" y="418.68" width="35.81" height="12.49" rx="3.11" ry="3.11"/><path class="cls-2" d="M350.56,318.47a2.12,2.12,0,0,1,2.55,2.15v14a3.23,3.23,0,0,1-2.55,3.05l-11.27,2a3.2,3.2,0,0,0-2.54,3.05l.36,67a2.61,2.61,0,0,0,2.6,2.59h5.5a2.6,2.6,0,0,1,2.59,2.59v13.66a2.6,2.6,0,0,1-2.59,2.59H302.13a2.6,2.6,0,0,1-2.59-2.59V414.93a2.6,2.6,0,0,1,2.59-2.59h5.38a2.59,2.59,0,0,0,2.58-2.59l-.17-62.21a2.13,2.13,0,0,0-2.56-2.16l-10.58,1.77a2.1,2.1,0,0,1-2.52-2.16l.17-14.34a3.23,3.23,0,0,1,2.58-3Z"/><path class="cls-2" d="M642,318.44H600.66a3.11,3.11,0,0,0-1.9.64l-24.35,18.73a3.11,3.11,0,0,0,0,4.92l65.7,51.18a3.11,3.11,0,0,0,5-2.45V376.85a3.11,3.11,0,0,0-1.2-2.45l-20.2-15.72a3.11,3.11,0,0,1,0-4.92l20.18-15.55a3.11,3.11,0,0,0,1.21-2.46v-14.2A3.11,3.11,0,0,0,642,318.44ZM604.8,344l-4-3.12a1.3,1.3,0,0,1,0-2.06l1.67-1.24a1.27,1.27,0,0,1,.77-.25h6.64a2.07,2.07,0,0,1,1.27,3.71l-3.82,3A2.07,2.07,0,0,1,604.8,344Z"/><path class="cls-2" d="M576.81,274.7a2.6,2.6,0,0,1-2.59-2.59V258.46a2.6,2.6,0,0,1,2.59-2.59h5.4a2.6,2.6,0,0,0,2.59-2.59V184.63a2.6,2.6,0,0,0-2.59-2.59H571.34a2.6,2.6,0,0,0-2.59,2.59v20.79a2.6,2.6,0,0,1-2.59,2.59H553.72a2.6,2.6,0,0,1-2.59-2.59V165.79a2.6,2.6,0,0,1,2.59-2.59h89a2.6,2.6,0,0,1,2.59,2.59v39.63a2.6,2.6,0,0,1-2.59,2.59H630a2.6,2.6,0,0,1-2.59-2.59V184.63a2.6,2.6,0,0,0-2.59-2.59H614.42a2.6,2.6,0,0,0-2.59,2.59v68.64a2.6,2.6,0,0,0,2.59,2.59l5.3.46a2.6,2.6,0,0,1,2.59,2.59v13.66a2.6,2.6,0,0,1-2.59,2.59Z"/></g></g></svg>