<svg xmlns="http://www.w3.org/2000/svg" preserveAspectRatio="none" width="98" height="50" viewBox="0 0 98 50"><style type="text/css">.st0{fill:#4C636F;} .st1{fill:#FFFFFF;} .st2{fill:#FEFFFF;} .st3{fill:#FEFEFE;} .st4{fill:#FDFEFE;} .st5{fill:#FDFDFE;} .st6{fill:#FDFDFD;} .st7{fill:#FCFDFD;} .st8{fill:#FCFCFD;} .st9{fill:#FCFCFC;} .st10{fill:#FBFCFC;} .st11{fill:#FBFBFC;} .st12{fill:#FAFBFB;} .st13{fill:#F9FAFB;} .st14{fill:#F9FAFA;} .st15{fill:#F8F9FA;} .st16{fill:#F7F9F9;} .st17{fill:#F7F8F9;} .st18{fill:#F6F8F9;} .st19{fill:#F6F8F8;} .st20{fill:#F6F7F8;} .st21{fill:#F5F7F8;} .st22{fill:#F5F6F7;} .st23{fill:#F4F6F7;} .st24{fill:#F4F5F7;} .st25{fill:#F3F5F6;} .st26{fill:#F2F4F5;} .st27{fill:#F1F4F5;} .st28{fill:#F1F3F4;} .st29{fill:#F0F2F4;} .st30{fill:#EFF2F3;} .st31{fill:#EFF1F3;} .st32{fill:#EEF1F2;} .st33{fill:#EDF0F2;} .st34{fill:#EDF0F1;} .st35{fill:#ECEFF1;} .st36{fill:#EBEEF0;} .st37{fill:#EAEEF0;} .st38{fill:#EAEDEF;} .st39{fill:#E9EDEF;} .st40{fill:#E9ECEE;} .st41{fill:#E8ECEE;} .st42{fill:#E7EBED;} .st43{fill:#E6EAED;} .st44{fill:#E6EAEC;} .st45{fill:#E5E9EC;} .st46{fill:#E4E9EB;} .st47{fill:#E4E8EB;} .st48{fill:#E3E8EA;} .st49{fill:#E2E7EA;} .st50{fill:#E2E6E9;} .st51{fill:#E1E6E9;} .st52{fill:#E0E5E8;} .st53{fill:#DFE4E7;} .st54{fill:#DEE4E7;} .st55{fill:#DEE3E7;} .st56{fill:#DEE3E6;} .st57{fill:#DDE3E6;} .st58{fill:#DDE2E5;} .st59{fill:#DCE2E5;} .st60{fill:#DCE1E5;} .st61{fill:#DBE1E4;} .st62{fill:#DAE0E4;} .st63{fill:#DAE0E3;} .st64{fill:#D9DFE3;} .st65{fill:#D9DFE2;} .st66{fill:#D8DFE2;} .st67{fill:#D8DEE2;} .st68{fill:#D8DEE1;} .st69{fill:#D7DEE1;} .st70{fill:#D7DDE1;} .st71{fill:#D6DDE1;} .st72{fill:#D6DCE0;} .st73{fill:#D5DCE0;} .st74{fill:#D5DBDF;} .st75{fill:#D4DBDF;} .st76{fill:#D4DADE;} .st77{fill:#D3DADE;} .st78{fill:#D3D9DD;} .st79{fill:#D2D9DD;} .st80{fill:#D1D8DC;} .st81{fill:#D0D7DB;} .st82{fill:#CFD6DB;} .st83{fill:#CFD6DA;} .st84{fill:#CED6DA;} .st85{fill:#CED5DA;} .st86{fill:#CDD5D9;} .st87{fill:#CCD4D9;} .st88{fill:#CCD4D8;} .st89{fill:#CBD3D8;} .st90{fill:#CBD3D7;} .st91{fill:#CAD2D7;} .st92{fill:#CAD2D6;} .st93{fill:#C9D1D6;} .st94{fill:#C8D1D5;} .st95{fill:#C8D0D5;} .st96{fill:#C7D0D5;} .st97{fill:#C7D0D4;} .st98{fill:#C7CFD4;} .st99{fill:#C6CFD4;} .st100{fill:#C6CFD3;} .st101{fill:#C5CED3;} .st102{fill:#C4CDD2;} .st103{fill:#C3CCD1;} .st104{fill:#C2CBD0;} .st105{fill:#C1CAD0;} .st106{fill:#C1CACF;} .st107{fill:#C0CACF;} .st108{fill:#C0C9CF;} .st109{fill:#C0C9CE;} .st110{fill:#BFC9CE;} .st111{fill:#BFC8CD;} .st112{fill:#BEC8CD;} .st113{fill:#BEC7CD;} .st114{fill:#BDC7CC;} .st115{fill:#BDC6CC;} .st116{fill:#BCC6CC;} .st117{fill:#BCC6CB;} .st118{fill:#BCC5CB;} .st119{fill:#BBC5CB;} .st120{fill:#BBC5CA;} .st121{fill:#BAC4CA;} .st122{fill:#BAC4C9;} .st123{fill:#B9C3C9;} .st124{fill:url(#SVGID_1_);}</style><path class="st0" d="M97.6 14h-10.2c-.2 0-.4.1-.4.3v1.1c0 .2.2.3.4.3h3.6v8.9c0 .2.1.4.4.4h2.2c.2 0 .4-.2.4-.4v-8.9h3.7c.2 0 .4-.1.4-.3v-1.1c-.1-.2-.2-.3-.5-.3zM26.7 17.3c0-1.1-1-1.6-3.1-1.6-.4 0-1.4 0-1.8.1v3.3h1.8c2.1 0 3.1-.4 3.1-1.7v-.1zm3 7.7h-2.5c-.2 0-.3-.1-.4-.3l-2.9-3.9h-.3c-.5 0-1.3 0-1.8-.1v4c0 .2-.2.3-.4.3h-2c-.2 0-.4-.1-.4-.3v-10.1c0-.3.2-.4.6-.4 1.1-.1 2.5-.2 4-.2 3.1 0 5.9.8 5.9 3.3v.1c0 1.6-1.1 2.5-2.8 3l3.2 4.3c.2.1.1.3-.2.3zM40.6 24.8c-.7.1-1.4.2-3.8.2-2.7 0-4.7-.5-4.7-3v-5c0-2.5 2.1-3 4.7-3 2.4 0 3.2.1 3.9.2.3 0 .4.1.4.3v.9c0 .1-.2.3-.4.3h-4.2c-1.2 0-1.6.3-1.6 1.3v1.6h5.5c.2 0 .4.1.4.3v1c0 .2-.2.3-.4.3h-5.5v1.8c0 1 .4 1.2 1.6 1.2h4.2c.2 0 .4.1.4.3v.9c-.1.3-.2.4-.5.4zM52.5 24.8c-.3.1-1.8.2-3.4.2-2.6 0-6.1-.8-6.1-4.4v-2.1c0-3.6 3.5-4.4 6.1-4.4 1.7 0 3.1.2 3.4.2.3.1.5.1.5.3v1c0 .2-.1.3-.5.3-.8 0-2.2-.1-3.4-.1-1.8 0-3.1.7-3.1 2.7v2.1c0 2 1.3 2.7 3.1 2.7 1.1 0 2.6-.1 3.4-.1.4 0 .5.1.5.3v1c0 .1-.2.2-.5.3zM62.7 17.3c0-1.1-1-1.6-3.1-1.6-.4 0-1.4 0-1.8.1v3.3h1.8c2.1 0 3.1-.4 3.1-1.7v-.1zm3.1 7.7h-2.5c-.2 0-.3-.1-.4-.3l-2.9-3.9h-.3c-.5 0-1.3 0-1.8-.1v3.9c0 .2-.2.3-.4.3h-2c-.2 0-.4-.1-.4-.3v-10c0-.3.2-.4.7-.4 1.1-.1 2.5-.2 4-.2 3.1 0 5.9.8 5.9 3.3v.1c0 1.6-1.1 2.5-2.8 3l3.2 4.3c0 .1-.1.3-.3.3zM77.9 24.8c-.7.1-3.2.2-4.4.2-3.2 0-5.5-1-5.5-4.1v-6.6c0-.2.2-.3.4-.3h2c.2 0 .4.1.4.3v6.6c0 1.7.5 2.4 2.7 2.4l2.8-.1v-8.9c0-.2.2-.3.4-.3h2c.2 0 .4.1.4.3v9.6c-.1.6-.5.8-1.2.9zM84.6 25h-2.1c-.2 0-.4-.1-.4-.3v-10.4c0-.2.2-.3.4-.3h2.1c.2 0 .4.1.4.3v10.4c0 .1-.2.3-.4.3zM2.2 46.1v-5.6c0-.1-.2-.2-.3-.2h-1.6c-.2 0-.3.1-.3.2v5.6c0 .1.1.2.3.2h1.5c.2.1.4 0 .4-.2zm6.1-5.8h-1.5c-.2 0-.3.1-.3.2v3.9c0 3.1-1.6 3.6-4.3 4-.3 0-.4.1-.4.3v.9c-.1.4 0 .4.3.4 5-.3 6.5-1.9 6.5-5.4v-4.1c0-.1-.1-.2-.3-.2zm43.6 4.2c-1.7-.4-3.8-.9-5.9-1.2v-3c0-.1-.2-.2-.3-.2h-1.7c-.2 0-.3.1-.3.2v9.5c0 .1.1.2.3.2h1.7c.2 0 .3-.1.3-.2v-4.9c2.1.4 4.2.9 5.9 1.4.3.1.4 0 .4-.3v-1c0-.3-.1-.5-.4-.5zm-26.8-4.2h-1.4c-.2 0-.3.1-.3.2v3.2c0 2.7-.6 3.7-1.4 4.5-.3.3-.3.4-.3.6v.7c0 .2.2.3.5.2 2.2-.7 3.3-2.5 3.3-6v-3.3l-.4-.1zm3.2 9.5c2.8 0 4.3-2.2 4.8-5.3.1-.4 0-.4-.2-.4h-1.1c-.3 0-.4.1-.4.4-.4 1.7-.9 2.8-2 3.3-.3.1-.5 0-.5-.2v-7c0-.1-.1-.2-.3-.2h-1.4c-.2 0-.3.1-.3.2v8.2c-.1.7.3 1 1.4 1zm13.5-5.7h-6.9c-.2 0-.3.1-.3.2v1.2c0 .1.1.2.3.2h6.9c.2 0 .3-.1.3-.2v-1.2c0-.1-.1-.2-.3-.2zm-22.3-3.7h-6.2c-.5 0-.7.2-.8.6-.4 1.5-1.1 2.4-2 3-.4.2-.4.3-.4.5v.8c0 .2.1.3.4.2 1.7-.3 2.9-1.2 3.9-3.4.1-.2.2-.3.6-.3h3c.2 0 .4.1.4.4-.2 4.2-2.2 5.7-5.9 6.3-.3.1-.4.1-.4.3v.9c0 .3.1.3.4.3 5.1-.3 8.1-2.5 8.1-8.7 0-.6-.3-.9-1.1-.9zm60.4 5.7v-5.6c0-.1-.2-.2-.3-.2h-1.6c-.2 0-.3.1-.3.2v5.6c0 .1.1.2.3.2h1.5c.3.1.4 0 .4-.2zm6.1-5.8h-1.6c-.2 0-.3.1-.3.2v3.9c0 3.1-1.6 3.6-4.3 4-.3 0-.4.1-.4.3v.9c0 .3.1.3.4.3 5-.3 6.5-1.9 6.5-5.4v-4.1s-.1-.1-.3-.1zm-11 3.1l-3.8.2-.2-1.4c0-.1-.2-.2-.3-.2h-1.3c-.2 0-.3.1-.2.2l.2 1.4-1.5.1c-.2 0-.3.1-.3.2v.9c0 .1.1.2.3.2l1.6-.1.7 4.8c0 .1.2.2.3.2h1.3c.2 0 .3-.1.2-.2l-.7-4.9 2.8-.1c.1 0 .2.1.2.2-.2.8-.7 1.4-1.6 1.8-.3.1-.4.2-.4.4v.8c0 .2.1.2.4.2 1.9-.4 3.1-1.5 3.3-3.4.3-1.1 0-1.4-1-1.3zm-8.9 2.2h-3.9l-.2-2.2h3.5c.2 0 .3-.1.3-.2v-1c0-.1-.1-.2-.3-.2h-3.7l-.2-1.7c0-.1-.2-.2-.4-.2h-1.6c-.2 0-.3.1-.3.2l.2 1.7h-3.1c-.2 0-.3.1-.3.2v1c0 .1.1.2.3.2h3.3l.2 2.1h-4c-.2 0-.3.1-.3.2v1c0 .1.1.2.3.2h4.1l.3 2.7c0 .1.2.2.3.2h1.6c.2 0 .3-.1.3-.2l-.1-2.6h3.7c.2 0 .3-.1.3-.2v-1c0-.1 0-.2-.3-.2zm31.9-4.2c0-.8-.3-1-1.1-1h-8.7c-.2 0-.3.1-.3.2v1c0 .1.1.2.3.2h7.3c.3 0 .4.1.4.4-.1 1.9-1 2.7-2.9 3.1v-2.3c0-.1-.2-.2-.3-.2h-1.5c-.2 0-.3.1-.3.2v1.5c0 2.2-.6 3.5-2.7 4-.3.1-.4.2-.4.4v.8c0 .3.1.3.4.3 2.6-.4 3.9-1.5 4.4-3.1 3.6-.4 5.4-1.7 5.4-5.5z"/><path class="st1" d="M3.6 25.7c-1.9 0-3.6-.6-3.6-1.9 0-.5.8-3.9 3.5-7.1 1.3-1.5 3.1-3.2 5.5-4.5s5.5-2.2 9.4-2.2c1.2 0 2.1.1 3.4.2.4 0 .6.4.6.9 0 .6-.5 1.2-1.5 1.2-3.9 0-6.9.9-9 2.8-1.1.9-2 2.1-2.7 3.6-.7 1.5-1.2 3.2-1.6 5.1-.3 1.4-2.9 1.9-4 1.9zM9 12.1c2.4-1.3 5.5-2.2 9.4-2.2 1.2 0 2.1.1 3.3.2.4 0 .6.4.6.9 0 .2-.1.5-.3.7-.2.3-.6.5-1.2.5-3.9 0-6.9.9-9 2.8-1.1.9-2 2.1-2.7 3.6-.7 1.5-1.2 3.2-1.6 5.1 0 .2-.1.4-.2.5-.7 1-2.8 1.4-3.7 1.4-1.9 0-3.6-.6-3.6-1.9 0-.5.8-3.9 3.5-7.1 1.3-1.5 3.1-3.2 5.5-4.5zM9 12.1c2.4-1.3 5.5-2.2 9.4-2.2 1.2 0 2.1.1 3.3.2.4 0 .6.4.6.9 0 .2-.1.5-.3.7-.2.3-.7.5-1.2.5-3.9 0-6.9.9-9 2.8-1.1.9-2 2.1-2.7 3.6-.7 1.5-1.2 3.2-1.6 5.1 0 .2-.1.4-.2.5-.7 1-2.8 1.4-3.7 1.4-1.9 0-3.6-.6-3.6-1.9 0-.5.8-3.9 3.5-7.2 1.3-1.5 3.1-3.1 5.5-4.4z"/><path class="st2" d="M9 12.1c2.4-1.3 5.5-2.2 9.4-2.2 1.2 0 2.1.1 3.3.2.4 0 .6.4.6.9 0 .2-.1.5-.3.7-.2.3-.7.5-1.2.5-3.9 0-6.8.9-9 2.8-1.1.9-2 2.1-2.7 3.6-.7 1.5-1.2 3.2-1.6 5.1 0 .2-.1.4-.2.5-.7 1-2.8 1.4-3.7 1.4-1.9 0-3.6-.6-3.6-1.9 0-.5.8-3.9 3.5-7.2 1.3-1.5 3.1-3.1 5.5-4.4z"/><path class="st3" d="M9 12.1c2.4-1.3 5.5-2.2 9.4-2.2 1.2 0 2.1.1 3.3.2.4 0 .6.4.6.9 0 .2-.1.5-.3.7-.2.3-.7.5-1.2.5-3.9 0-6.8.9-9 2.8-1.1.9-2 2.1-2.7 3.6-.7 1.4-1.2 3.2-1.6 5.1 0 .2-.1.4-.2.5-.7 1-2.8 1.4-3.7 1.4-1.9 0-3.6-.6-3.6-1.9 0-.5.8-3.9 3.5-7.2 1.3-1.5 3.1-3.1 5.5-4.4zM9 12.1c2.4-1.3 5.5-2.2 9.4-2.2 1.2 0 2.1.1 3.3.2.4 0 .6.4.5.9 0 .2-.1.5-.3.7-.2.3-.7.5-1.2.5-3.9 0-6.8.9-9 2.8-1.1.9-2 2.1-2.7 3.6-.7 1.4-1.2 3.2-1.6 5.1 0 .2-.1.4-.2.5-.7 1-2.7 1.4-3.7 1.4-1.9 0-3.6-.6-3.6-1.9 0-.5.8-3.9 3.5-7.2 1.4-1.5 3.2-3.1 5.6-4.4z"/><path class="st4" d="M9.1 12.1c2.4-1.3 5.5-2.2 9.4-2.2 1.2 0 2.1.1 3.3.2.4 0 .6.4.5.9 0 .2-.1.5-.3.7-.2.3-.7.5-1.2.5-3.9 0-6.8.9-9 2.8-1.1.9-2 2.1-2.7 3.6-.7 1.4-1.2 3.2-1.6 5.1 0 .2-.1.4-.2.5-.7 1-2.7 1.4-3.7 1.4-1.9 0-3.6-.6-3.6-1.9 0-.5.8-3.9 3.5-7.2 1.3-1.5 3.1-3.1 5.6-4.4zM9.1 12.1c2.4-1.3 5.5-2.2 9.4-2.2 1.1 0 2.1.1 3.3.2.4 0 .6.4.5.9 0 .2-.1.5-.3.7-.2.3-.7.5-1.2.5-3.9 0-6.8.9-9 2.8-1.1.9-2 2.1-2.7 3.6-.7 1.4-1.2 3.2-1.6 5.1 0 .2-.1.4-.2.5-.7 1-2.7 1.4-3.7 1.4-1.9 0-3.6-.6-3.6-1.9 0-.5.8-3.9 3.5-7.2 1.3-1.5 3.1-3.1 5.6-4.4z"/><path class="st5" d="M9.1 12.1c2.4-1.3 5.5-2.2 9.4-2.2 1.1 0 2.1.1 3.3.2.4 0 .6.4.5.9 0 .2-.1.5-.3.7-.2.3-.7.5-1.2.5-3.9 0-6.8.9-9 2.8-1.1.9-2 2.1-2.7 3.6-.7 1.4-1.2 3.2-1.6 5.1 0 .2-.1.4-.2.5-.7 1-2.7 1.4-3.7 1.4-1.9 0-3.6-.6-3.6-1.9 0-.5.8-3.9 3.5-7.2 1.3-1.5 3.1-3.1 5.6-4.4z"/><path class="st6" d="M9.1 12.1c2.4-1.3 5.5-2.2 9.3-2.1 1.1 0 2.1.1 3.3.2.4 0 .6.4.5.9 0 .2-.1.5-.3.7-.3.3-.7.5-1.2.5-3.9 0-6.8.9-9 2.8-1.1.9-2 2.1-2.7 3.6-.7 1.4-1.2 3.2-1.6 5.1 0 .2-.1.4-.2.5-.7 1-2.7 1.4-3.7 1.4-1.9 0-3.6-.6-3.6-1.9 0-.5.8-3.9 3.5-7.2 1.4-1.6 3.2-3.2 5.7-4.5z"/><path class="st7" d="M9.1 12.1c2.4-1.3 5.5-2.1 9.3-2.1 1.1 0 2.1.1 3.3.2.4 0 .6.4.5.9 0 .2-.1.5-.3.7-.3.3-.7.5-1.2.5-3.9 0-6.8.9-9 2.8-1.1.9-2 2.1-2.7 3.6-.7 1.4-1.2 3.2-1.6 5.1 0 .2-.1.4-.2.5-.7 1-2.7 1.4-3.7 1.4-1.8 0-3.5-.7-3.5-2 0-.4.8-3.9 3.5-7.2 1.3-1.5 3.1-3.1 5.6-4.4z"/><path class="st8" d="M9.1 12.1c2.4-1.3 5.5-2.1 9.3-2.1 1.1 0 2.1.1 3.3.2.4 0 .6.4.5.9 0 .2-.1.5-.3.6-.3.3-.7.5-1.2.5-3.9 0-6.8.9-9 2.8-1.1.9-2 2.1-2.7 3.6-.7 1.4-1.2 3.2-1.6 5.1 0 .2-.1.4-.2.5-.7 1-2.7 1.4-3.7 1.4-1.8.1-3.5-.6-3.5-1.9 0-.4.8-3.9 3.5-7.2 1.3-1.5 3.2-3.2 5.6-4.4z"/><path class="st9" d="M9.1 12.1c2.4-1.3 5.5-2.1 9.3-2.1 1.1 0 2.1.1 3.3.2.4 0 .6.4.5.9 0 .2-.1.5-.3.6-.3.3-.7.5-1.2.5-3.9 0-6.8.9-9 2.8-1.1.9-2 2.1-2.7 3.6-.7 1.4-1.2 3.2-1.6 5.1 0 .2-.1.4-.2.5-.7 1-2.7 1.4-3.7 1.4-1.8.1-3.5-.6-3.5-1.9 0-.4.8-3.9 3.5-7.2 1.3-1.5 3.2-3.2 5.6-4.4z"/><path class="st10" d="M9.1 12.1c2.4-1.3 5.5-2.1 9.3-2.1 1.1 0 2.1.1 3.3.2.4 0 .6.4.5.9 0 .2-.1.5-.3.6-.3.3-.7.5-1.2.5-3.9 0-6.8.9-9 2.8-1.1.9-2 2.1-2.7 3.6-.7 1.4-1.2 3.2-1.6 5.1 0 .2-.1.4-.2.5-.7 1-2.7 1.4-3.7 1.4-1.8.1-3.5-.6-3.5-1.9 0-.4.8-3.9 3.5-7.2 1.4-1.5 3.2-3.2 5.6-4.4zM9.2 12.1c2.4-1.3 5.5-2.1 9.3-2.1 1.1 0 2.1.1 3.3.2.3 0 .6.4.5.9 0 .2-.1.5-.3.6-.3.3-.7.5-1.2.5-3.9 0-6.8.9-9 2.8-1.1.9-2 2.1-2.7 3.6-.7 1.4-1.2 3.2-1.6 5.1 0 .2-.1.4-.2.5-.7 1-2.7 1.4-3.7 1.4-1.9.1-3.6-.6-3.6-1.9 0-.4.8-3.9 3.6-7.2 1.3-1.5 3.1-3.2 5.6-4.4z"/><path class="st11" d="M9.2 12.1c2.4-1.2 5.5-2.1 9.3-2.1 1.1 0 2.1.1 3.3.2.3 0 .6.4.5.9 0 .2-.1.5-.3.6-.3.3-.7.5-1.2.5-3.9 0-6.8.9-9 2.8-1.1.9-2 2.1-2.7 3.6-.7 1.4-1.2 3.2-1.6 5.1 0 .2-.1.4-.2.5-.7 1-2.7 1.4-3.7 1.4-1.9.1-3.6-.6-3.6-1.9 0-.4.8-3.9 3.6-7.2 1.3-1.5 3.1-3.2 5.6-4.4z"/><path class="st12" d="M9.2 12.1c2.4-1.2 5.5-2.1 9.3-2.1 1.1 0 2.1.1 3.3.2.3 0 .6.4.5.9 0 .2-.1.5-.3.6-.3.3-.7.5-1.2.5-3.9 0-6.8.9-9 2.8-1.1.9-2 2.1-2.7 3.6-.7 1.4-1.2 3.2-1.6 5.1 0 .2-.1.4-.2.5-.7 1-2.7 1.4-3.7 1.4-1.9.1-3.6-.6-3.6-1.9 0-.4.8-3.9 3.6-7.2 1.3-1.5 3.1-3.2 5.6-4.4zM9.2 12.1c2.4-1.2 5.5-2.1 9.3-2.1 1.1 0 2.1.1 3.3.2.3 0 .6.4.5.9 0 .2-.1.4-.3.6-.3.3-.7.5-1.2.5-3.9 0-6.8.9-9 2.8-1.1.9-2 2.1-2.7 3.6-.7 1.4-1.2 3.2-1.6 5.1 0 .2-.1.4-.2.5-.7 1-2.7 1.4-3.7 1.4-1.9.1-3.6-.6-3.6-1.9 0-.4.8-3.9 3.6-7.2 1.3-1.5 3.1-3.2 5.6-4.4z"/><path class="st13" d="M9.2 12.1c2.4-1.2 5.5-2.1 9.3-2.1 1.1 0 2.1.1 3.3.2.3 0 .6.4.5.9 0 .2-.1.4-.3.6-.3.3-.7.5-1.2.5-3.9 0-6.8.9-9 2.8-1.1.9-2 2.1-2.7 3.6-.7 1.4-1.2 3.2-1.6 5.1 0 .2-.1.4-.2.5-.7 1-2.7 1.4-3.7 1.4-1.9.1-3.6-.6-3.6-1.9 0-.4.8-3.9 3.6-7.2 1.3-1.5 3.1-3.2 5.6-4.4zM9.2 12.1c2.4-1.2 5.5-2.1 9.3-2.1 1.1 0 2.1.1 3.3.2.3 0 .6.4.5.9 0 .2-.1.4-.3.6-.3.3-.7.5-1.2.5-3.9 0-6.8.9-8.9 2.8-1.1.9-2 2.1-2.7 3.6-.7 1.4-1.2 3.2-1.6 5.1 0 .2-.1.4-.2.5-.7 1-2.7 1.4-3.7 1.4-2 .1-3.7-.6-3.7-1.9 0-.4.8-3.9 3.6-7.2 1.3-1.5 3.1-3.2 5.6-4.4z"/><path class="st14" d="M9.2 12c2.4-1.2 5.5-2.1 9.3-2.1 1.1 0 2.1.1 3.3.2.3 0 .6.4.5.9 0 .2-.1.4-.3.6-.3.3-.7.5-1.2.5-3.9 0-6.8.9-8.9 2.8-1.1.9-2 2.1-2.7 3.6-.7 1.4-1.2 3.1-1.6 5.1 0 .2-.1.4-.2.5-.7 1-2.7 1.4-3.7 1.4-2 .2-3.7-.5-3.7-1.8 0-.4.8-3.9 3.6-7.2 1.3-1.5 3.1-3.2 5.6-4.5z"/><path class="st15" d="M9.2 12c2.4-1.2 5.5-2.1 9.3-2.1 1.1 0 2.1.1 3.3.2.3 0 .6.4.5.9 0 .2-.1.4-.3.6-.3.3-.7.5-1.2.5-3.9 0-6.8.9-8.9 2.8-1.1.9-2 2.1-2.7 3.6-.7 1.4-1.2 3.1-1.6 5.1 0 .2-.1.4-.2.5-.7 1-2.7 1.4-3.7 1.4-2 .2-3.7-.5-3.7-1.8 0-.4.8-3.9 3.6-7.2 1.3-1.5 3.1-3.2 5.6-4.5zM9.2 12c2.4-1.2 5.5-2.1 9.2-2.1 1.1 0 2.1.1 3.3.2.3 0 .6.4.5.9 0 .2-.1.4-.3.6-.3.3-.7.5-1.2.5-3.9 0-6.8.9-8.9 2.8-1.1.9-2 2.1-2.7 3.6-.7 1.4-1.2 3.1-1.6 5.1 0 .2-.1.4-.2.5-.7 1-2.6 1.4-3.7 1.4-1.9.2-3.6-.5-3.6-1.8 0-.4.8-3.9 3.6-7.2 1.3-1.5 3.2-3.2 5.6-4.5z"/><path class="st16" d="M9.3 12c2.4-1.2 5.5-2.1 9.2-2.1 1.1 0 2.1.1 3.3.2.3 0 .5.4.5.9 0 .2-.1.4-.3.6-.3.3-.7.5-1.3.5-3.9 0-6.8.9-8.9 2.8-1.1.9-2 2.1-2.7 3.6-.7 1.4-1.2 3.1-1.6 5.1 0 .2-.1.4-.2.5-.6 1-2.6 1.4-3.7 1.4-1.9.2-3.6-.5-3.6-1.8 0-.4.8-3.9 3.6-7.2 1.3-1.5 3.2-3.2 5.7-4.5z"/><path class="st17" d="M9.3 12c2.4-1.2 5.4-2.1 9.2-2.1 1.1 0 2.1.1 3.3.2.3 0 .5.4.5.9 0 .2-.1.4-.3.6-.3.3-.7.5-1.3.5-3.9 0-6.8.9-8.9 2.8-1.1.9-2 2.1-2.7 3.6-.7 1.4-1.2 3.1-1.6 5.1 0 .2-.1.4-.2.5-.6 1-2.6 1.4-3.7 1.4-1.9.1-3.6-.5-3.6-1.8 0-.4.8-3.9 3.6-7.2 1.3-1.5 3.2-3.2 5.7-4.5zM9.3 12c2.4-1.2 5.4-2.1 9.2-2.1 1.1 0 2.1.1 3.3.2.3 0 .5.4.5.9 0 .2-.1.4-.3.6-.3.3-.7.5-1.3.5-3.9 0-6.8.9-8.9 2.8-1.1.9-2 2.1-2.7 3.6-.7 1.4-1.2 3.1-1.6 5.1 0 .2-.1.4-.2.5-.6 1-2.6 1.4-3.7 1.4-1.9.1-3.6-.5-3.6-1.8 0-.4.8-3.9 3.6-7.2 1.3-1.5 3.2-3.2 5.7-4.5z"/><path class="st18" d="M9.3 12c2.4-1.2 5.4-2.1 9.2-2.1 1.1 0 2.1.1 3.3.2.3 0 .5.4.5.9 0 .2-.1.4-.3.6-.3.3-.7.5-1.3.5-3.9 0-6.8.9-8.9 2.8-1.1.9-2 2.1-2.7 3.6-.7 1.4-1.2 3.1-1.6 5.1 0 .2-.1.4-.2.5-.6 1-2.6 1.4-3.7 1.4-1.9.1-3.6-.5-3.6-1.8 0-.4.8-3.9 3.6-7.2 1.4-1.5 3.2-3.2 5.7-4.5z"/><path class="st19" d="M9.3 12c2.4-1.2 5.4-2.1 9.2-2 1.1 0 2.1.1 3.3.2.3 0 .5.4.5.9 0 .2-.1.4-.3.6-.3.3-.7.4-1.3.5-3.9 0-6.8.9-8.9 2.8-1.1.9-2 2.1-2.7 3.6-.7 1.4-1.2 3.1-1.6 5.1 0 .2-.1.4-.2.5-.6 1-2.6 1.4-3.7 1.5-1.9-.1-3.6-.7-3.6-2 0-.4.8-3.9 3.6-7.2 1.4-1.5 3.2-3.2 5.7-4.5z"/><path class="st20" d="M9.3 12c2.4-1.2 5.4-2.1 9.2-2 1.1 0 2.1.1 3.3.2.3 0 .5.4.5.9 0 .2-.1.4-.3.6-.3.3-.7.4-1.3.4-3.9 0-6.8.9-8.9 2.8-1.1.9-2 2.1-2.7 3.6-.7 1.4-1.2 3.1-1.6 5.1 0 .2-.1.4-.2.5-.6 1-2.6 1.4-3.7 1.5-1.9 0-3.6-.6-3.6-1.9 0-.4.8-3.9 3.6-7.2 1.4-1.6 3.2-3.2 5.7-4.5z"/><path class="st21" d="M9.3 12c2.4-1.2 5.4-2.1 9.2-2 1.1 0 2.1.1 3.3.2.3 0 .5.4.4.9 0 .2-.1.4-.3.6-.3.3-.7.4-1.3.4-3.9 0-6.8 1-8.9 2.8-1.1.9-2 2.1-2.7 3.6-.7 1.4-1.2 3.1-1.6 5.1 0 .2-.1.4-.2.5-.6 1-2.6 1.4-3.7 1.5-1.7 0-3.5-.6-3.5-1.9 0-.4.8-3.9 3.6-7.2 1.4-1.6 3.2-3.2 5.7-4.5z"/><path class="st22" d="M9.3 12c2.4-1.2 5.4-2 9.2-2 1.1 0 2.1.1 3.3.2.3 0 .5.4.4.9 0 .2-.1.4-.3.6-.3.3-.7.4-1.3.4-3.9 0-6.8 1-8.9 2.8-1.1.9-2 2.1-2.7 3.6-.7 1.4-1.2 3.1-1.6 5.1 0 .2-.1.4-.2.5-.6 1-2.6 1.5-3.6 1.5-1.8 0-3.6-.6-3.6-1.9 0-.4.8-3.9 3.6-7.2 1.4-1.6 3.2-3.2 5.7-4.5z"/><path class="st23" d="M9.4 12c2.4-1.2 5.4-2 9.2-2 1.1 0 2.1.1 3.3.2.3 0 .5.4.4.9 0 .2-.1.4-.3.6-.3.3-.7.4-1.3.4-3.8 0-6.8 1-8.9 2.8-1.1.9-2 2.1-2.7 3.6-.7 1.4-1.2 3.1-1.6 5.1 0 .2-.1.4-.2.5-.6 1-2.6 1.5-3.6 1.5-1.9 0-3.7-.6-3.7-1.9 0-.4.8-3.9 3.6-7.2 1.4-1.6 3.2-3.2 5.8-4.5zM9.4 12c2.4-1.2 5.4-2 9.2-2 1.1 0 2.1.1 3.3.2.3 0 .5.4.4.9 0 .2-.1.4-.3.6-.3.3-.7.4-1.3.4-3.8 0-6.8 1-8.9 2.8-1.1.9-2 2.1-2.7 3.5-.7 1.4-1.2 3.1-1.6 5.1 0 .2-.1.4-.2.5-.6 1-2.6 1.5-3.6 1.5-1.9.1-3.7-.5-3.7-1.8 0-.4.8-3.9 3.6-7.2 1.4-1.6 3.3-3.2 5.8-4.5z"/><path class="st24" d="M9.4 12c2.4-1.2 5.4-2 9.2-2 1.1 0 2.1.1 3.3.2.3 0 .5.4.4.9 0 .2-.2.4-.3.6-.3.2-.7.4-1.3.4-3.8 0-6.8 1-8.9 2.8-1.1.9-2 2.1-2.7 3.5-.7 1.4-1.2 3.1-1.6 5.1 0 .2-.1.4-.2.5-.6 1-2.6 1.5-3.6 1.5-1.9.1-3.7-.5-3.7-1.8 0-.4.8-3.9 3.6-7.2 1.4-1.6 3.3-3.2 5.8-4.5z"/><path class="st25" d="M9.4 12c2.4-1.2 5.4-2 9.1-2 1.1 0 2.1.1 3.2.2.3 0 .5.4.4.9 0 .2-.2.4-.3.6-.3.2-.7.4-1.3.4-3.8 0-6.8 1-8.9 2.8-1.1.9-2 2.1-2.7 3.5-.7 1.4-1.2 3.1-1.6 5.1 0 .2-.1.4-.2.5-.6 1-2.6 1.5-3.6 1.5-1.7.1-3.5-.5-3.5-1.8 0-.4.8-3.9 3.6-7.2 1.4-1.6 3.3-3.2 5.8-4.5zM9.4 12c2.4-1.2 5.4-2 9.1-2 1.1 0 2.1.1 3.2.2.3 0 .5.5.4.9 0 .2-.2.4-.3.6-.3.2-.7.4-1.3.4-3.8 0-6.8 1-8.9 2.8-1.1.9-2 2.1-2.7 3.5-.7 1.4-1.2 3.1-1.6 5.1 0 .2-.1.4-.2.5-.6 1.1-2.6 1.5-3.6 1.5-1.7.1-3.5-.5-3.5-1.8 0-.4.8-3.9 3.6-7.2 1.4-1.6 3.3-3.2 5.8-4.5zM9.4 12c2.4-1.2 5.4-2 9.1-2 1.1 0 2.1.1 3.2.2.3 0 .5.5.4.9 0 .2-.2.4-.3.6-.3.2-.7.4-1.3.4-3.8 0-6.8 1-8.9 2.8-1.1.9-1.9 2.1-2.6 3.5-.7 1.4-1.2 3.1-1.6 5.1 0 .2-.1.4-.2.5-.6 1.1-2.6 1.5-3.6 1.5-1.9 0-3.6-.6-3.6-1.9 0-.4.8-3.9 3.6-7.2 1.4-1.5 3.3-3.1 5.8-4.4z"/><path class="st26" d="M9.4 12c2.4-1.2 5.4-2 9.1-2 1.1 0 2.1.1 3.2.2.3 0 .5.5.4.9 0 .2-.2.4-.3.6-.3.2-.7.4-1.3.4-3.8 0-6.7 1-8.9 2.8-1.1.9-1.9 2.1-2.6 3.5-.7 1.4-1.2 3.1-1.6 5.1 0 .2-.1.4-.2.5-.6 1.1-2.6 1.5-3.6 1.5-1.9 0-3.6-.6-3.6-1.9 0-.4.8-3.9 3.6-7.2 1.4-1.5 3.3-3.1 5.8-4.4zM9.4 12c2.4-1.2 5.4-2 9.1-2 1.1 0 2.1.1 3.2.2.3 0 .5.5.4.9l-.3.6c-.3.2-.7.4-1.3.4-3.8 0-6.7 1-8.9 2.8-1.1.9-1.9 2.1-2.6 3.5-.7 1.4-1.2 3.1-1.6 5.1 0 .2-.1.4-.2.5-.6 1.1-2.5 1.5-3.6 1.5-1.9 0-3.6-.6-3.6-1.9 0-.4.8-3.9 3.7-7.2 1.3-1.5 3.2-3.1 5.7-4.4z"/><path class="st27" d="M9.4 12c2.4-1.2 5.4-2 9.1-2 1.1 0 2.1.1 3.2.2.3 0 .5.5.4.9-.1.2-.2.4-.4.6-.3.2-.7.4-1.3.4-3.8 0-6.7 1-8.9 2.8-1.1.9-1.9 2.1-2.6 3.5-.7 1.4-1.2 3.1-1.6 5.1 0 .2-.1.4-.2.5-.6 1.1-2.5 1.5-3.6 1.5-1.9 0-3.6-.6-3.6-1.9 0-.4.8-3.9 3.7-7.2 1.4-1.5 3.3-3.2 5.8-4.4z"/><path class="st28" d="M9.5 12c2.4-1.2 5.4-2 9.1-2 1.1 0 2.1.1 3.2.2.3 0 .5.5.4.9-.1.2-.2.4-.4.6-.3.2-.7.4-1.3.4-3.8 0-6.7 1-8.9 2.8-1.1.9-1.9 2.1-2.6 3.5-.7 1.4-1.2 3.1-1.6 5.1 0 .2-.1.4-.2.5-.6 1.1-2.5 1.5-3.6 1.5-1.9 0-3.6-.6-3.6-1.9 0-.4.8-3.9 3.7-7.3 1.4-1.4 3.2-3.1 5.8-4.3zM9.5 12c2.4-1.2 5.4-2 9.1-2 1.1 0 2.1.1 3.2.2.3 0 .5.5.4.9-.1.2-.2.4-.4.6-.3.2-.7.4-1.3.4-3.8 0-6.7 1-8.9 2.8-1.1.9-1.9 2.1-2.6 3.5-.7 1.4-1.2 3.1-1.6 5.1 0 .2-.1.4-.2.5-.6 1.1-2.5 1.5-3.6 1.5-1.9 0-3.6-.6-3.6-1.9 0-.4.8-3.9 3.7-7.3 1.4-1.4 3.2-3.1 5.8-4.3z"/><path class="st29" d="M9.5 12c2.4-1.2 5.4-2 9.1-2 1.1 0 2.1.1 3.2.2.3 0 .5.5.4.9-.1.2-.2.4-.4.6-.3.2-.7.4-1.3.4-3.8 0-6.7 1-8.9 2.8-1.1.9-1.9 2.1-2.6 3.5-.7 1.4-1.2 3.1-1.6 5.1 0 .2-.1.4-.2.5-.6 1.1-2.5 1.5-3.6 1.5-1.9 0-3.6-.6-3.6-1.9 0-.4.8-3.9 3.7-7.3 1.4-1.4 3.2-3.1 5.8-4.3zM9.5 12c2.4-1.2 5.4-2 9.1-2 1.1 0 2 .1 3.2.2.3 0 .5.5.4.9-.1.2-.2.4-.4.6-.3.2-.7.4-1.3.4-3.8 0-6.7 1-8.9 2.9-1.1.9-1.9 2.1-2.6 3.5-.7 1.4-1.2 3.1-1.6 5.1 0 .2-.1.4-.2.5-.6 1.1-2.5 1.5-3.6 1.5-1.9 0-3.6-.6-3.6-1.9 0-.4.8-3.9 3.7-7.3 1.4-1.5 3.3-3.2 5.8-4.4z"/><path class="st30" d="M9.5 12c2.4-1.2 5.4-2 9.1-2 1.1 0 2 .1 3.2.2.3 0 .5.5.4.9-.1.2-.2.4-.4.6-.3.2-.7.4-1.3.4-3.8.1-6.7 1-8.9 2.9-1.1.9-1.9 2.1-2.6 3.5-.7 1.4-1.2 3.1-1.6 5.1 0 .2-.1.4-.2.5-.6 1.1-2.5 1.5-3.6 1.5-1.9 0-3.6-.6-3.6-1.9 0-.4.8-3.9 3.7-7.3 1.4-1.5 3.3-3.2 5.8-4.4z"/><path class="st31" d="M9.5 12c2.4-1.2 5.4-2 9.1-2 1.1 0 2 .1 3.2.2.3 0 .5.5.4.9-.1.2-.2.4-.4.6-.3.2-.7.4-1.3.4-3.8.1-6.7 1-8.9 2.9-1.1.9-1.9 2.1-2.6 3.5-.7 1.4-1.2 3.1-1.6 5.1 0 .2-.1.4-.2.5-.6 1.1-2.5 1.5-3.6 1.5-1.9 0-3.6-.6-3.6-1.9 0-.4.8-3.9 3.7-7.3 1.4-1.5 3.3-3.2 5.8-4.4zM9.5 12c2.4-1.2 5.4-2 9-1.9 1.1 0 2 .1 3.2.2.3 0 .5.5.4.9-.1.2-.2.4-.4.6-.3.2-.7.4-1.3.4-3.8.1-6.7 1-8.8 2.9-1.1.9-1.9 2.1-2.6 3.5-.7 1.4-1.2 3.1-1.6 5.1 0 .2-.1.4-.2.5-.6 1.1-2.5 1.5-3.6 1.5-1.9 0-3.6-.6-3.6-1.9 0-.4.8-3.9 3.7-7.3 1.4-1.6 3.3-3.3 5.8-4.5z"/><path class="st32" d="M9.5 12c2.4-1.2 5.4-2 9-1.9 1.1 0 2 .1 3.2.2.3 0 .5.5.4.9-.1.2-.2.4-.4.5-.3.2-.7.4-1.3.4-3.8.1-6.7 1-8.8 2.9-1.1.9-1.9 2.1-2.6 3.5-.7 1.4-1.2 3.1-1.6 5.1 0 .2-.1.4-.2.5-.6 1.1-2.5 1.5-3.6 1.5-1.9 0-3.6-.6-3.6-1.9 0-.4.8-3.9 3.7-7.3 1.4-1.5 3.3-3.2 5.8-4.4zM9.6 12c2.4-1.2 5.4-2 9-1.9 1.1 0 2 .1 3.2.2.3 0 .5.5.4.9-.1.2-.2.4-.4.5-.3.2-.7.4-1.3.4-3.8.1-6.7 1-8.8 2.9-1.1.9-1.9 2.1-2.6 3.5-.7 1.4-1.2 3.1-1.6 5.1 0 .2-.1.4-.2.5-.6 1.1-2.5 1.5-3.6 1.5-1.9 0-3.6-.6-3.6-1.9 0-.4.8-3.9 3.7-7.3 1.3-1.5 3.2-3.2 5.8-4.4z"/><path class="st33" d="M9.6 12c2.4-1.2 5.4-2 9-1.9 1.1 0 2 .1 3.2.2.3 0 .5.5.4.9-.1.2-.2.4-.4.5-.3.2-.7.4-1.3.4-3.8.1-6.7 1-8.8 2.9-1.1.9-1.9 2.1-2.6 3.5-.7 1.4-1.2 3.1-1.6 5.1 0 .2-.1.4-.2.5-.6 1.1-2.5 1.5-3.6 1.5-1.9 0-3.6-.6-3.6-1.9 0-.4.8-3.9 3.7-7.3 1.3-1.5 3.2-3.2 5.8-4.4zM9.6 12c2.4-1.2 5.3-2 9-1.9 1.1 0 2 .1 3.2.2.3 0 .5.5.4.9-.1.2-.2.4-.4.5-.3.2-.7.4-1.3.4-3.8.1-6.7 1-8.8 2.9-1.1.9-1.9 2.1-2.6 3.5-.7 1.4-1.2 3.1-1.6 5.1 0 .2-.1.4-.2.5-.6 1.1-2.5 1.5-3.6 1.5-1.9 0-3.6-.6-3.6-1.9 0-.4.8-3.9 3.7-7.3 1.3-1.5 3.2-3.2 5.8-4.4z"/><path class="st34" d="M9.6 12c2.4-1.2 5.3-1.9 9-1.9 1.1 0 2 .1 3.2.2.3 0 .5.5.4.9-.1.2-.2.4-.4.5-.3.2-.7.4-1.3.4-3.8.1-6.7 1-8.8 2.9-1.1.9-1.9 2.1-2.6 3.5-.7 1.4-1.2 3.1-1.6 5.1 0 .2-.1.4-.2.5-.6 1.1-2.5 1.5-3.6 1.5-1.9 0-3.6-.6-3.6-1.9 0-.4.8-3.9 3.7-7.3 1.3-1.5 3.2-3.2 5.8-4.4z"/><path class="st35" d="M9.6 12c2.4-1.1 5.3-1.9 9-1.9 1.1 0 2 .1 3.2.2.3 0 .5.5.4.9-.1.2-.2.4-.4.5-.3.2-.7.4-1.3.4-3.8.1-6.7 1-8.8 2.9-1.1.9-1.9 2.1-2.6 3.5-.7 1.4-1.2 3.1-1.6 5.1 0 .2-.1.4-.2.5-.6 1.1-2.5 1.5-3.6 1.5-1.9 0-3.6-.6-3.6-1.9 0-.4.8-3.9 3.7-7.3 1.3-1.5 3.2-3.2 5.8-4.4zM9.6 12c2.4-1.1 5.3-1.9 9-1.9 1.1 0 2 .1 3.2.2.3 0 .5.5.3.9-.1.2-.2.4-.4.5-.3.2-.7.4-1.3.4-3.8.1-6.7 1-8.8 2.9-1.1.9-1.9 2.1-2.6 3.5-.7 1.4-1.2 3.1-1.6 5.1 0 .2-.1.4-.2.5-.6 1.1-2.5 1.5-3.6 1.5-1.9 0-3.6-.6-3.6-1.9 0-.4.9-3.9 3.7-7.3 1.5-1.5 3.4-3.2 5.9-4.4z"/><path class="st36" d="M9.6 12c2.4-1.1 5.3-1.9 9-1.9 1.1 0 2 .1 3.2.2.3 0 .5.5.3.9-.1.2-.2.4-.4.5-.3.2-.7.4-1.3.4-3.8.1-6.7 1-8.8 2.9-1.1.9-1.9 2.1-2.6 3.5-.7 1.4-1.2 3.1-1.6 5.1 0 .2-.1.4-.2.5-.6 1.1-2.5 1.5-3.6 1.5-1.9 0-3.6-.6-3.6-1.9 0-.4.9-3.9 3.7-7.3 1.5-1.6 3.4-3.2 5.9-4.4zM9.6 12c2.4-1.1 5.3-1.9 9-1.9 1.1 0 2 .1 3.2.2.3 0 .5.5.3.9-.1.2-.2.4-.4.5-.3.2-.7.4-1.3.4-3.8.1-6.7 1-8.8 2.9-1.1.9-1.9 2.1-2.6 3.5-.7 1.4-1.2 3.1-1.6 5.1 0 .2-.1.4-.2.5-.6 1.1-2.4 1.5-3.6 1.5-1.9 0-3.6-.6-3.6-1.9 0-.4.9-4 3.7-7.3 1.5-1.6 3.4-3.2 5.9-4.4zM9.6 12c2.4-1.1 5.3-1.9 9-1.9 1.1 0 2 .1 3.2.2.3 0 .5.5.3.9-.1.2-.2.4-.4.5-.3.2-.7.4-1.3.4-3.8.1-6.7 1-8.8 2.9-1.1.9-1.9 2.1-2.6 3.5-.7 1.4-1.2 3.1-1.6 5.1 0 .2-.1.4-.2.5-.6 1.1-2.4 1.5-3.6 1.5-1.8 0-3.6-.6-3.6-1.9 0-.4.9-4 3.7-7.3 1.5-1.6 3.4-3.2 5.9-4.4z"/><path class="st37" d="M9.7 12c2.4-1.1 5.3-1.9 9-1.9 1.1 0 2 .1 3.2.2.3 0 .5.5.3.9-.1.2-.2.4-.4.5-.3.2-.7.4-1.3.4-3.8.1-6.7 1-8.8 2.9-1.1.9-1.9 2.1-2.6 3.5-.7 1.4-1.2 3.1-1.6 5.1 0 .2-.1.4-.2.5-.6 1.1-2.4 1.5-3.6 1.5-1.8 0-3.6-.6-3.6-1.9 0-.4.9-4 3.7-7.3 1.4-1.6 3.3-3.2 5.9-4.4z"/><path class="st38" d="M9.7 12c2.4-1.1 5.3-1.9 9-1.9 1.1 0 2 .1 3.2.2.3 0 .5.5.3.9-.1.2-.2.4-.4.5-.3.2-.7.4-1.3.4-3.8.1-6.7 1-8.8 2.9-1.1.9-1.9 2.1-2.6 3.5-.7 1.4-1.2 3.1-1.6 5.1 0 .2-.1.4-.2.5-.6 1.1-2.4 1.5-3.6 1.5-1.8 0-3.6-.6-3.6-1.9 0-.4.9-4 3.7-7.3 1.4-1.6 3.3-3.2 5.9-4.4z"/><path class="st39" d="M9.7 11.9c2.4-1.1 5.3-1.9 8.9-1.9 1.1 0 2 .1 3.2.2.3 0 .5.5.3.9-.1.2-.2.4-.4.5-.3.2-.7.4-1.3.4-3.8.1-6.7 1-8.8 2.9-1.1.9-1.9 2.1-2.6 3.5-.7 1.4-1.2 3.1-1.6 5.1 0 .2-.1.4-.2.5-.6 1.1-2.4 1.5-3.6 1.5-1.8 0-3.6-.6-3.6-1.9 0-.4.9-4 3.7-7.3 1.5-1.5 3.4-3.1 6-4.4zM9.7 11.9c2.4-1.1 5.3-1.9 8.9-1.9 1.1 0 2 .1 3.2.2.3 0 .5.5.3.9-.1.2-.2.4-.4.5-.3.2-.7.4-1.3.4-3.8.1-6.7 1-8.8 2.9-1.1.9-1.9 2.1-2.6 3.5-.7 1.4-1.2 3.1-1.6 5.1 0 .2-.1.4-.2.5-.5 1.1-2.4 1.5-3.6 1.5-1.8 0-3.6-.6-3.6-1.9 0-.4.9-4 3.7-7.3 1.5-1.5 3.4-3.1 6-4.4z"/><path class="st40" d="M9.7 11.9c2.4-1.1 5.3-1.9 8.9-1.9 1.1 0 2 .1 3.2.2.3 0 .5.5.3.9-.1.2-.2.4-.4.5-.3.2-.7.4-1.3.4-3.8.1-6.7 1-8.8 2.9-1.1.9-1.9 2.1-2.6 3.5-.7 1.4-1.2 3.1-1.6 5.1 0 .2-.1.4-.2.5-.5 1.1-2.4 1.5-3.6 1.5-1.8 0-3.6-.6-3.6-1.9 0-.4.9-4 3.7-7.3 1.5-1.5 3.4-3.1 6-4.4z"/><path class="st41" d="M9.7 11.9c2.4-1.1 5.3-1.9 8.9-1.9 1.1 0 2 .1 3.2.2.3 0 .5.5.3.9-.1.2-.2.4-.4.5-.3.2-.7.3-1.3.4-3.8.1-6.7 1-8.8 2.9-1.1.9-1.9 2.1-2.6 3.5-.7 1.4-1.2 3.1-1.6 5.1 0 .2-.1.4-.2.5-.5 1.1-2.4 1.5-3.6 1.5-1.8 0-3.6-.6-3.6-1.9 0-.4.9-4 3.8-7.3 1.4-1.5 3.3-3.1 5.9-4.4zM9.7 11.9c2.4-1.1 5.3-1.9 8.9-1.9 1.1 0 2 .1 3.2.2.3 0 .5.5.3.9-.1.2-.2.4-.4.5-.3.2-.7.3-1.3.4-3.8.1-6.7 1-8.8 2.9-1.1.9-1.9 2.1-2.6 3.5-.7 1.4-1.2 3.1-1.6 5 0 .2-.1.4-.2.5-.5 1.1-2.4 1.5-3.5 1.5-1.8 0-3.6-.6-3.6-1.9 0-.4.9-4 3.8-7.3 1.3-1.4 3.2-3 5.8-4.3z"/><path class="st42" d="M9.7 11.9c2.4-1.1 5.3-1.9 8.9-1.9 1.1 0 2 .1 3.2.2.3 0 .5.5.3.9-.1.2-.2.4-.4.5-.3.2-.7.3-1.3.4-3.8.1-6.7 1-8.8 2.9-1.1.9-1.9 2.1-2.6 3.5-.7 1.4-1.2 3.1-1.6 5 0 .2-.1.4-.2.5-.5 1.1-2.4 1.5-3.5 1.5-1.8 0-3.6-.6-3.6-1.9 0-.4.9-4 3.8-7.3 1.3-1.4 3.3-3 5.8-4.3zM9.8 11.9c2.4-1.1 5.3-1.9 8.9-1.8 1.1 0 2 .1 3.2.2.3 0 .5.5.3.9-.1.2-.2.4-.4.5-.3.2-.7.3-1.3.3-3.8.1-6.7 1-8.8 2.9-1.1.9-1.9 2.1-2.6 3.5-.7 1.4-1.2 3.1-1.6 5 0 .2-.1.4-.2.5-.5 1.1-2.4 1.5-3.5 1.5-1.8 0-3.6-.6-3.6-1.9 0-.4.9-4 3.8-7.3 1.2-1.4 3.2-3 5.8-4.3z"/><path class="st43" d="M9.8 11.9c2.4-1.1 5.3-1.9 8.9-1.8 1.1 0 2 .1 3.2.2.3 0 .5.5.3.9-.1.2-.2.4-.4.5-.3.2-.7.3-1.3.3-3.8.1-6.7 1-8.8 2.9-1.1.9-1.9 2.1-2.6 3.5-.7 1.4-1.2 3.1-1.6 5 0 .2-.1.4-.2.5-.5 1.1-2.4 1.5-3.5 1.5-1.8 0-3.6-.6-3.6-1.9 0-.4.9-4 3.8-7.3 1.2-1.4 3.2-3.1 5.8-4.3zM9.8 11.9c2.4-1.1 5.3-1.9 8.9-1.8 1.1 0 2 .1 3.1.2.3 0 .5.5.3.9-.1.2-.2.4-.4.5-.3.2-.7.3-1.3.3-3.8.1-6.7 1-8.8 2.9-1.1.9-1.9 2.1-2.6 3.5-.7 1.4-1.2 3.1-1.6 5 0 .2-.1.4-.2.5-.5 1.1-2.4 1.5-3.5 1.5-1.8 0-3.6-.6-3.6-1.9 0-.4.9-4 3.8-7.3 1.4-1.4 3.3-3.1 5.9-4.3z"/><path class="st44" d="M9.8 11.9c2.4-1.1 5.3-1.9 8.9-1.8 1.1 0 2 .1 3.1.2.3 0 .5.5.3.9-.1.2-.2.4-.4.5-.3.2-.7.3-1.3.3-3.8.1-6.7 1-8.8 2.9-1.1.9-1.9 2.1-2.6 3.5-.7 1.4-1.2 3.1-1.6 5 0 .2-.1.4-.2.5-.5 1.1-2.4 1.5-3.5 1.5-1.8 0-3.6-.6-3.6-1.9 0-.4.9-4 3.8-7.3 1.4-1.4 3.3-3.1 5.9-4.3z"/><path class="st45" d="M9.8 11.9c2.4-1.1 5.3-1.9 8.9-1.8 1.1 0 2 .1 3.1.2.3 0 .5.5.3.9-.1.2-.2.4-.4.5-.3.2-.7.3-1.3.3-3.8.1-6.7 1-8.8 2.9-1.1.9-1.9 2.1-2.6 3.5-.7 1.4-1.2 3.1-1.6 5 0 .2-.1.4-.2.5-.5 1.1-2.4 1.5-3.5 1.5-1.8 0-3.6-.6-3.6-1.9 0-.4.9-4 3.8-7.3 1.4-1.4 3.3-3.1 5.9-4.3zM9.8 11.9c2.4-1.1 5.3-1.9 8.9-1.8 1.1 0 2 .1 3.1.2.3 0 .5.5.3.9-.1.2-.2.4-.4.5-.3.2-.7.3-1.3.3-3.8.1-6.7 1-8.8 2.9-1.1.9-1.9 2.1-2.6 3.5-.7 1.4-1.2 3.1-1.6 5 0 .2-.1.4-.2.5-.5 1.1-2.4 1.5-3.5 1.6-1.8 0-3.6-.6-3.6-1.9 0-.4.9-4 3.8-7.3 1.4-1.5 3.3-3.2 5.9-4.4z"/><path class="st46" d="M9.8 11.9c2.4-1.1 5.3-1.9 8.8-1.8 1.1 0 2 .1 3.1.2.3 0 .5.5.3.9-.1.2-.2.4-.4.5-.3.2-.7.3-1.3.3-3.8.1-6.6 1-8.8 2.9-1.1.9-1.9 2.1-2.6 3.5-.7 1.4-1.2 3.1-1.6 5 0 .2-.1.4-.2.5-.5 1.1-2.3 1.5-3.5 1.6-1.8 0-3.6-.6-3.6-1.9 0-.4.9-4 3.8-7.3 1.5-1.5 3.4-3.2 6-4.4zM9.8 11.9c2.4-1.1 5.3-1.8 8.8-1.8 1.1 0 2 .1 3.1.2.3 0 .4.5.3.9-.1.2-.2.4-.4.5-.3.2-.8.3-1.3.3-3.8.1-6.6 1-8.8 2.9-1.1.9-1.9 2.1-2.6 3.5-.7 1.4-1.2 3.1-1.6 5 0 .2-.1.4-.2.5-.5 1.1-2.3 1.5-3.5 1.6-1.8 0-3.6-.6-3.6-1.9 0-.4.9-4 3.8-7.3 1.5-1.5 3.4-3.2 6-4.4z"/><path class="st47" d="M9.8 11.9c2.4-1.1 5.3-1.8 8.8-1.8 1.1 0 2 .1 3.1.2.3 0 .4.5.3.9-.1.2-.2.4-.4.5-.3.2-.8.3-1.3.3-3.8.1-6.6 1-8.7 2.9-1.1.9-1.9 2.1-2.6 3.5-.7 1.4-1.2 3.1-1.6 5 0 .2-.1.4-.2.5-.5 1.1-2.3 1.5-3.5 1.6-1.8 0-3.6-.6-3.6-1.9 0-.4.9-4 3.8-7.3 1.4-1.5 3.3-3.2 5.9-4.4z"/><path class="st48" d="M9.9 11.9c2.4-1.1 5.3-1.8 8.8-1.8 1.1 0 2 .1 3.1.2.3 0 .4.5.3.9-.1.2-.2.4-.4.5-.3.2-.8.3-1.3.3-3.8.1-6.6 1.1-8.7 2.9-1.1.9-1.9 2.1-2.6 3.5-.7 1.4-1.2 3.1-1.6 5 0 .2-.1.4-.2.5-.5 1.1-2.3 1.5-3.5 1.6-1.8 0-3.6-.6-3.6-1.9 0-.4.9-4 3.8-7.3 1.3-1.5 3.3-3.2 5.9-4.4zM9.9 11.9c2.4-1.1 5.3-1.8 8.8-1.8 1 0 2 .1 3.1.2.3 0 .4.5.3.9-.1.2-.2.4-.4.5-.3.2-.8.3-1.3.3-3.8.1-6.6 1.1-8.7 2.9-1.1.9-1.9 2.1-2.6 3.5-.7 1.4-1.2 3.1-1.6 5 0 .2-.1.4-.2.5-.5 1.1-2.3 1.5-3.5 1.6-1.8 0-3.6-.6-3.6-1.9 0-.4.9-4 3.8-7.3 1.3-1.5 3.3-3.2 5.9-4.4z"/><path class="st49" d="M9.9 11.9c2.4-1.1 5.2-1.8 8.8-1.8 1 0 2 .1 3.1.2.3 0 .4.5.3.9-.1.2-.2.4-.4.5-.3.2-.8.3-1.3.3-3.8.1-6.6 1.1-8.7 2.9-1.1.9-1.9 2.1-2.6 3.5-.7 1.4-1.2 3.1-1.6 5 0 .2-.1.4-.2.5-.5 1.1-2.3 1.5-3.5 1.6-1.8 0-3.6-.6-3.6-1.9 0-.4.9-4 3.8-7.3 1.3-1.5 3.3-3.2 5.9-4.4zM9.9 11.9c2.3-1.1 5.2-1.8 8.8-1.8 1 0 2 .1 3.1.2.3 0 .4.5.2.9-.1.2-.2.4-.4.5-.3.2-.8.3-1.3.3-3.8.1-6.6 1.1-8.7 2.9-1.1.9-1.9 2.1-2.6 3.5-.7 1.4-1.2 3.1-1.6 5 0 .2-.1.4-.2.5-.5 1.1-2.3 1.5-3.5 1.6-1.8 0-3.6-.6-3.6-1.9 0-.4.9-4 3.8-7.3 1.4-1.5 3.4-3.2 6-4.4z"/><path class="st50" d="M9.9 11.9c2.3-1.1 5.2-1.8 8.8-1.8 1 0 2 .1 3.1.2.3 0 .4.5.2.9-.1.2-.2.3-.4.5-.3.2-.8.3-1.3.3-3.8.1-6.6 1.1-8.7 2.9-1.1.9-1.9 2.1-2.6 3.5-.7 1.4-1.2 3.1-1.6 5 0 .2-.1.4-.2.5-.5 1.1-2.3 1.5-3.5 1.6-1.8 0-3.6-.6-3.6-1.9 0-.4.9-4 3.8-7.4 1.4-1.4 3.4-3.1 6-4.3z"/><path class="st51" d="M9.9 11.9c2.3-1.1 5.2-1.8 8.8-1.8 1 0 2 .1 3.1.2.3 0 .4.5.2.9-.1.2-.2.3-.4.5-.3.2-.8.3-1.3.3-3.8.1-6.6 1.1-8.7 2.9-1.1.9-1.9 2.1-2.6 3.5-.7 1.4-1.2 3.1-1.6 5 0 .2-.1.4-.2.5-.5 1.1-2.3 1.6-3.5 1.6-1.8 0-3.6-.6-3.6-1.9 0-.4.9-4 3.8-7.4 1.4-1.4 3.4-3.1 6-4.3zM9.9 11.9c2.3-1.1 5.2-1.8 8.8-1.8 1 0 2 .1 3.1.2.3 0 .4.5.2.9-.1.2-.2.3-.4.5-.3.2-.8.3-1.3.3-3.8.1-6.6 1.1-8.7 2.9-1.1.9-1.9 2.1-2.6 3.5-.7 1.4-1.2 3.1-1.6 5 0 .2-.1.4-.2.5-.5 1.1-2.3 1.6-3.5 1.6-1.8 0-3.6-.6-3.6-1.9 0-.4.9-4 3.8-7.4 1.5-1.5 3.4-3.1 6-4.3z"/><path class="st52" d="M9.9 11.9c2.3-1.1 5.2-1.8 8.8-1.8 1 0 2 .1 3.1.2.3 0 .4.5.2.9-.1.2-.2.3-.5.5s-.8.3-1.3.3c-3.8.1-6.6 1.1-8.7 2.9-1.1.9-1.9 2.1-2.6 3.5-.7 1.4-1.2 3.1-1.6 5 0 .2-.1.4-.2.5-.5 1.1-2.3 1.6-3.5 1.6-1.8 0-3.6-.6-3.6-1.9 0-.4.9-4 3.8-7.4 1.6-1.5 3.5-3.1 6.1-4.3zM10 11.9c2.3-1.1 5.2-1.8 8.8-1.8 1 0 2 .1 3.1.2.3 0 .4.5.2.9-.1.2-.2.3-.5.5s-.8.3-1.3.3c-3.8.1-6.6 1.1-8.7 2.9-1.1.9-1.9 2.1-2.6 3.5-.7 1.4-1.2 3.1-1.6 5 0 .2-.1.4-.2.5-.5 1.1-2.3 1.6-3.5 1.6-1.8 0-3.6-.6-3.6-1.9 0-.4.9-4 3.8-7.4 1.5-1.5 3.4-3.1 6.1-4.3zM10 11.9c2.3-1.1 5.2-1.8 8.8-1.7 1 0 2 .1 3.1.2.3 0 .4.5.2.9-.1.2-.2.3-.5.4-.3.2-.8.3-1.3.3-3.8.1-6.6 1.1-8.7 2.9-1.1.9-1.9 2.1-2.6 3.5-.7 1.4-1.2 3.1-1.6 5 0 .2-.1.4-.2.5-.5 1.1-2.3 1.6-3.5 1.6-1.8 0-3.6-.6-3.6-1.9 0-.4.9-4 3.8-7.4 1.5-1.5 3.4-3.1 6.1-4.3z"/><path class="st53" d="M10 11.9c2.3-1.1 5.2-1.8 8.7-1.7 1 0 2 .1 3.1.2.3 0 .4.5.2.9-.1.2-.2.3-.5.4-.3.2-.8.3-1.3.3-3.8.1-6.6 1.1-8.7 2.9-1.1.9-1.9 2.1-2.6 3.5-.7 1.4-1.2 3.1-1.6 5 0 .2-.1.4-.2.5-.5 1.1-2.3 1.6-3.5 1.6-1.8 0-3.6-.6-3.6-1.9 0-.4.9-4 3.8-7.4 1.6-1.5 3.5-3.1 6.2-4.3zM10 11.9c2.3-1.1 5.2-1.8 8.7-1.7 1 0 2 .1 3.1.2.3 0 .4.5.2.9-.1.2-.2.3-.5.4-.3.2-.8.3-1.3.3-3.8.1-6.6 1.1-8.7 2.9-1.1.9-1.9 2.1-2.6 3.5-.7 1.4-1.2 3.1-1.6 5 0 .2-.1.4-.2.5-.5 1.1-2.3 1.6-3.5 1.6-1.8 0-3.6-.6-3.6-1.9 0-.4.9-4 3.8-7.4 1.6-1.5 3.6-3.1 6.2-4.3z"/><path class="st54" d="M10 11.9c2.3-1.1 5.2-1.8 8.7-1.7 1 0 2 .1 3.1.2.3 0 .4.5.2.9-.1.2-.2.3-.5.4-.3.2-.8.3-1.3.3-3.8.1-6.6 1.1-8.7 2.9-1.1.9-1.9 2.1-2.6 3.5-.7 1.4-1.2 3.1-1.6 5 0 .2-.1.4-.2.5-.5 1.1-2.3 1.6-3.5 1.6-1.8 0-3.6-.6-3.6-1.9 0-.4.9-4 3.9-7.4 1.5-1.5 3.5-3.1 6.1-4.3z"/><path class="st55" d="M10 11.9c2.3-1.1 5.2-1.8 8.7-1.7 1 0 2 .1 3.1.2.3 0 .4.5.2.9-.1.2-.2.3-.5.4-.3.2-.8.3-1.3.3-3.8.1-6.6 1.1-8.7 2.9-1.1.9-1.9 2.1-2.6 3.5-.7 1.4-1.2 3.1-1.6 5 0 .2-.1.4-.2.5-.5 1.1-2.3 1.6-3.5 1.6-1.8 0-3.6-.6-3.6-1.9 0-.4.9-4 3.9-7.4 1.5-1.5 3.5-3.1 6.1-4.3z"/><path class="st56" d="M10 11.9c2.3-1.1 5.2-1.8 8.7-1.7 1 0 2 .1 3.1.2.3 0 .4.5.2.9-.1.2-.2.3-.5.4-.3.2-.8.3-1.3.3-3.8.1-6.6 1.1-8.7 2.9-1.1.9-1.9 2.1-2.6 3.5-.7 1.4-1.3 3.1-1.6 5 0 .2-.1.4-.2.5-.5 1.1-2.2 1.6-3.5 1.6-1.8 0-3.6-.6-3.6-1.9 0-.4.9-4 3.9-7.4 1.5-1.5 3.5-3.1 6.1-4.3z"/><path class="st57" d="M10 11.9c2.3-1.1 5.2-1.8 8.7-1.7 1 0 2 .1 3.1.2.3 0 .4.5.2.9-.1.2-.2.3-.5.4-.3.2-.8.3-1.3.3-3.8.1-6.6 1.1-8.7 2.9-1.1.9-1.9 2.1-2.6 3.5-.7 1.4-1.3 3.1-1.6 5 0 .2-.1.4-.2.5-.5 1.1-2.2 1.6-3.5 1.6-1.8 0-3.6-.6-3.6-1.9 0-.4.9-4 3.9-7.4 1.5-1.5 3.5-3.1 6.1-4.3z"/><path class="st58" d="M10 11.9c2.3-1.1 5.2-1.8 8.7-1.7 1 0 2 .1 3.1.2.3 0 .4.5.2.9-.1.2-.2.3-.5.4-.3.2-.8.3-1.3.3-3.8.1-6.6 1.1-8.7 2.9-1.1.9-1.9 2.1-2.6 3.5-.7 1.4-1.3 3.1-1.6 5 0 .2-.1.4-.2.5-.5 1.1-2.2 1.6-3.5 1.6-1.8 0-3.6-.6-3.6-1.9 0-.4.9-4 3.9-7.4 1.5-1.5 3.5-3.1 6.1-4.3z"/><path class="st59" d="M10.1 11.9c2.3-1 5.2-1.8 8.7-1.7 1 0 2 .1 3.1.2.3 0 .4.5.2.9-.1.2-.2.3-.5.4-.4.2-.8.3-1.3.3-3.8.1-6.6 1.1-8.7 2.9-1.1.9-1.9 2.1-2.6 3.5-.7 1.4-1.3 3.1-1.6 5 0 .2-.1.4-.2.5-.5 1.1-2.2 1.6-3.5 1.6-1.8 0-3.6-.6-3.6-1.9 0-.4.9-4 3.9-7.4 1.4-1.5 3.4-3.1 6.1-4.3zM10.1 11.9c2.3-1 5.2-1.7 8.7-1.7 1 0 2 .1 3.1.2.3 0 .4.5.2.9-.1.2-.2.3-.5.4-.4.1-.8.3-1.3.3-3.7.1-6.6 1.1-8.7 2.9-1.1.9-1.9 2.1-2.6 3.5-.7 1.4-1.3 3.1-1.6 5 0 .2-.1.4-.2.5-.5 1.1-2.2 1.6-3.5 1.6-1.8 0-3.6-.6-3.6-1.9 0-.4.9-4 3.9-7.4 1.4-1.5 3.4-3.1 6.1-4.3z"/><path class="st60" d="M10.1 11.9c2.3-1 5.2-1.7 8.7-1.7 1 0 2 .1 3.1.2.3 0 .4.5.2.9-.1.2-.2.3-.5.4-.4.1-.8.3-1.3.3-3.7.1-6.6 1.1-8.7 2.9-1.1.9-1.9 2.1-2.6 3.5-.7 1.4-1.3 3.1-1.6 5 0 .2-.1.4-.2.5-.5 1.1-2.2 1.6-3.5 1.6-1.8 0-3.6-.6-3.6-1.9 0-.4.9-4 3.9-7.4 1.5-1.5 3.4-3.2 6.1-4.3z"/><path class="st61" d="M10.1 11.9c2.3-1 5.2-1.7 8.7-1.7 1 0 2 .1 3.1.2.3 0 .4.5.2.9-.1.2-.2.3-.5.4-.4.1-.8.3-1.3.3-3.7.1-6.6 1.1-8.7 2.9-1.1.9-1.9 2.1-2.6 3.5-.7 1.4-1.3 3.1-1.6 5 0 .2-.1.4-.2.5-.5 1.1-2.2 1.6-3.5 1.6-1.8 0-3.6-.6-3.6-1.9 0-.4.9-4 3.9-7.4 1.5-1.5 3.4-3.2 6.1-4.3zM10.1 11.9c2.3-1 5.2-1.7 8.7-1.7 1 0 2 .1 3.1.2.3 0 .4.5.2.9-.1.2-.2.3-.5.4-.4.1-.8.3-1.3.3-3.7.1-6.6 1.1-8.7 2.9-1.1.9-1.9 2.1-2.6 3.5-.7 1.4-1.3 3.1-1.6 5 0 .2-.1.4-.2.5-.5 1.1-2.2 1.6-3.5 1.6-1.8 0-3.6-.6-3.6-1.9 0-.4.9-4 3.9-7.4 1.5-1.5 3.5-3.2 6.1-4.3z"/><path class="st62" d="M10.1 11.9c2.3-1 5.2-1.7 8.6-1.7 1 0 2 .1 3.1.2.3 0 .4.5.2.9-.1.2-.2.3-.5.4-.4.1-.8.3-1.3.3-3.7.1-6.6 1.1-8.7 3-1.1.9-1.9 2.1-2.6 3.5-.7 1.4-1.3 3.1-1.6 5 0 .2-.1.4-.2.5-.4 1.1-2.2 1.6-3.5 1.6-1.8 0-3.6-.6-3.6-1.9 0-.4.9-4 3.9-7.4 1.6-1.6 3.6-3.3 6.2-4.4z"/><path class="st63" d="M10.1 11.9c2.3-1 5.2-1.7 8.6-1.7 1 0 2 .1 3.1.2.3 0 .4.5.2.9-.1.2-.3.3-.5.4-.4.1-.8.2-1.3.3-3.7.1-6.6 1.1-8.7 3-1.1.9-1.9 2.1-2.6 3.5-.7 1.4-1.3 3.1-1.6 5 0 .2-.1.4-.2.5-.4 1.1-2.2 1.6-3.4 1.6-1.8 0-3.6-.6-3.6-1.9 0-.4.9-4 3.9-7.4 1.5-1.6 3.5-3.3 6.1-4.4zM10.1 11.8c2.3-1 5.2-1.7 8.6-1.7 1 0 2 .1 3.1.2.3 0 .4.5.2.9-.1.2-.3.3-.5.4-.4.1-.8.2-1.3.3-3.7.1-6.6 1.1-8.7 3-1.1.9-1.9 2.1-2.6 3.5-.7 1.4-1.3 3.1-1.6 5 0 .2-.1.4-.2.5-.4 1.1-2.2 1.6-3.4 1.6-1.8 0-3.6-.6-3.6-1.9 0-.4.9-4 3.9-7.4 1.5-1.5 3.5-3.2 6.1-4.4z"/><path class="st64" d="M10.2 11.8c2.3-1 5.2-1.7 8.6-1.7 1 0 2 .1 3.1.2.3 0 .4.5.2.9-.1.2-.3.3-.5.4-.4.1-.8.2-1.3.3-3.7.1-6.6 1.1-8.7 3-1.1.9-1.9 2.1-2.6 3.5-.7 1.4-1.3 3.1-1.6 5 0 .2-.1.4-.2.5-.4 1.1-2.2 1.6-3.4 1.6-1.8 0-3.6-.6-3.6-1.9 0-.4.9-4 3.9-7.4 1.4-1.5 3.4-3.2 6.1-4.4z"/><path class="st65" d="M10.2 11.8c2.3-1 5.2-1.7 8.6-1.7 1 0 2 .1 3 .2.3 0 .4.5.2.9-.1.2-.3.3-.5.4-.4.1-.8.2-1.3.3-3.7.1-6.6 1.1-8.6 3-1.1.9-1.9 2.1-2.6 3.5-.7 1.4-1.3 3.1-1.6 5 0 .2-.1.4-.2.5-.4 1.1-2.2 1.6-3.4 1.6-1.8 0-3.6-.6-3.6-1.9 0-.4.9-4 3.9-7.4 1.4-1.5 3.4-3.2 6.1-4.4z"/><path class="st66" d="M10.2 11.8c2.3-1 5.2-1.7 8.6-1.7 1 0 2 .1 3 .2.3 0 .4.5.1.9-.1.2-.3.3-.5.4-.4.1-.8.2-1.3.3-3.7.1-6.6 1.1-8.6 3-1.1.9-1.9 2.1-2.6 3.5-.7 1.4-1.3 3.1-1.6 5 0 .2-.1.4-.2.5-.4 1.1-2.2 1.6-3.4 1.6-1.8 0-3.6-.6-3.6-1.9 0-.4.9-4 3.9-7.4 1.5-1.5 3.5-3.2 6.2-4.4z"/><path class="st67" d="M10.2 11.8c2.3-1 5.1-1.7 8.6-1.6 1 0 2 .1 3 .2.3 0 .4.5.1.9-.1.2-.3.3-.5.4-.4.1-.8.2-1.3.2-3.7.1-6.6 1.1-8.6 3-1.1.9-1.9 2.1-2.6 3.5-.7 1.4-1.3 3.1-1.6 5 0 .2-.1.4-.2.5-.4 1.1-2.2 1.6-3.4 1.6-1.8 0-3.6-.6-3.6-1.9 0-.4.9-4 3.9-7.4 1.5-1.5 3.5-3.2 6.2-4.4z"/><path class="st68" d="M10.2 11.8c2.3-1 5.1-1.7 8.6-1.6 1 0 2 .1 3 .2.3 0 .4.5.1.9-.1.2-.3.3-.5.4-.4.1-.8.2-1.3.2-3.7.1-6.6 1.1-8.6 3-1.1.9-1.9 2.1-2.6 3.5-.7 1.4-1.3 3.1-1.6 5 0 .2-.1.4-.2.5-.4 1.1-2.2 1.6-3.4 1.6-1.8 0-3.6-.6-3.6-1.9 0-.4.9-4 3.9-7.4 1.5-1.5 3.5-3.2 6.2-4.4z"/><path class="st69" d="M10.2 11.8c2.3-1 5.1-1.7 8.6-1.6 1 0 2 .1 3 .2.3 0 .4.5.1.9-.1.2-.3.3-.5.4-.4.1-.8.2-1.3.2-3.7.1-6.6 1.1-8.6 3-1.1.9-1.9 2.1-2.6 3.5-.7 1.4-1.3 3.1-1.6 5 0 .2-.1.4-.2.5-.4 1.1-2.1 1.6-3.4 1.6-1.8 0-3.6-.6-3.6-1.9 0-.4.9-4 3.9-7.4 1.5-1.5 3.5-3.2 6.2-4.4z"/><path class="st70" d="M10.2 11.8c2.3-1 5.1-1.7 8.6-1.6 1 0 2 .1 3 .2.3 0 .4.5.1.9-.1.2-.3.3-.5.4-.4.1-.8.2-1.3.2-3.7.1-6.6 1.1-8.6 3-1.1.9-1.9 2.1-2.6 3.5-.7 1.4-1.3 3.1-1.6 5 0 .2-.1.4-.2.5-.4 1.1-2.1 1.6-3.4 1.6-1.8 0-3.6-.6-3.6-1.9 0-.4.9-4 3.9-7.4 1.5-1.5 3.5-3.2 6.2-4.4z"/><path class="st71" d="M10.2 11.8c2.3-1 5.1-1.7 8.6-1.6 1 0 1.9.1 3 .2.3 0 .4.5.1.9-.1.2-.3.3-.5.4-.4.1-.8.2-1.3.2-3.7.1-6.5 1.1-8.6 3-1.1.9-1.9 2.1-2.6 3.5-.7 1.4-1.3 3.1-1.6 5 0 .2-.1.4-.2.5-.4 1.1-2.1 1.6-3.4 1.6-1.8 0-3.6-.6-3.6-1.9 0-.4.9-4 3.9-7.4 1.5-1.6 3.6-3.2 6.2-4.4z"/><path class="st72" d="M10.2 11.8c2.3-1 5.1-1.7 8.6-1.6 1 0 1.9.1 3 .2.2 0 .4.5.1.9-.1.2-.3.3-.5.4-.4.1-.8.2-1.3.2-3.7.1-6.5 1.1-8.6 3-1.1.9-1.9 2.1-2.6 3.5-.7 1.4-1.3 3.1-1.6 5 0 .2-.1.4-.2.5-.4 1.1-2.1 1.6-3.4 1.6-1.8 0-3.6-.6-3.6-1.9 0-.4.9-4 3.9-7.4 1.6-1.6 3.6-3.2 6.2-4.4zM10.3 11.8c2.3-1 5.1-1.7 8.5-1.6 1 0 1.9.1 3 .2.2 0 .4.5.1.9-.1.2-.3.3-.5.4-.4.1-.8.2-1.3.2-3.7.1-6.5 1.1-8.6 3-1.1.9-1.9 2.1-2.6 3.5-.7 1.4-1.3 3.1-1.6 5 0 .2-.1.4-.2.5-.4 1.1-2.1 1.6-3.4 1.6-1.8 0-3.6-.6-3.6-1.9 0-.4.9-4 3.9-7.4 1.6-1.6 3.6-3.2 6.3-4.4z"/><path class="st73" d="M10.3 11.8c2.3-1 5.1-1.7 8.5-1.6 1 0 1.9.1 3 .2.2 0 .4.5.1.9-.1.2-.3.3-.5.4-.4.1-.8.2-1.3.2-3.7.1-6.5 1.1-8.6 3-1.1.9-1.9 2.1-2.6 3.5-.7 1.4-1.3 3.1-1.6 5 0 .2-.1.4-.2.5-.4 1.1-2.1 1.6-3.4 1.6-1.8 0-3.6-.6-3.6-1.9 0-.4.9-4 3.9-7.4 1.6-1.6 3.6-3.2 6.3-4.4z"/><path class="st74" d="M10.3 11.8c2.3-1 5.1-1.7 8.5-1.6 1 0 1.9.1 3 .2.2 0 .4.5.1.9-.1.2-.3.3-.5.4-.4.1-.8.2-1.3.2-3.7.1-6.5 1.1-8.6 3-1.1.9-1.9 2.1-2.6 3.5-.7 1.4-1.3 3.1-1.6 5 0 .2-.1.4-.2.5-.4 1.1-2.1 1.6-3.4 1.6-1.8 0-3.6-.6-3.6-1.9 0-.4.9-4 4-7.4 1.5-1.6 3.5-3.2 6.2-4.4z"/><path class="st75" d="M10.3 11.8c2.3-1 5.1-1.7 8.5-1.6 1 0 1.9.1 3 .2.2 0 .4.5.1.9-.1.2-.3.3-.5.4-.4.1-.8.2-1.3.2-3.7.1-6.5 1.1-8.6 3-1.1.9-1.9 2.1-2.6 3.5-.7 1.4-1.3 3.1-1.6 5 0 .2-.1.4-.2.5-.4 1.1-2.1 1.6-3.4 1.7-1.8 0-3.6-.6-3.6-1.9 0-.4.9-4 4-7.4 1.5-1.7 3.5-3.3 6.2-4.5zM10.3 11.8c2.3-1 5.1-1.7 8.5-1.6 1 0 1.9.1 3 .2.2 0 .4.5.1.9-.1.2-.3.3-.5.4-.4.1-.8.2-1.3.2-3.7.1-6.5 1.1-8.6 3-1.1.9-1.9 2.1-2.6 3.5-.7 1.4-1.3 3.1-1.6 5 0 .2-.1.4-.2.5-.4 1.1-2.1 1.6-3.4 1.7-1.8 0-3.6-.6-3.6-1.9 0-.4.9-4 4-7.4 1.5-1.7 3.5-3.3 6.2-4.5z"/><path class="st76" d="M10.3 11.8c2.3-1 5.1-1.6 8.5-1.6 1 0 1.9.1 3 .2.2 0 .4.5.1.9-.1.2-.3.3-.5.4-.4.1-.8.2-1.3.2-3.7.1-6.5 1.1-8.6 3-1.1.9-1.9 2.1-2.6 3.5-.7 1.4-1.3 3.1-1.6 5 0 .2-.1.4-.2.5-.4 1.1-2.1 1.6-3.4 1.7-1.8 0-3.6-.6-3.6-1.9 0-.4.9-4 4-7.4 1.5-1.7 3.5-3.3 6.2-4.5z"/><path class="st77" d="M10.3 11.8c2.3-1 5.1-1.6 8.5-1.6 1 0 1.9.1 3 .2.2 0 .4.5.1.9-.1.2-.3.3-.5.4-.4.1-.8.2-1.3.2-3.7.1-6.5 1.1-8.6 3-1.1.9-1.9 2.1-2.6 3.5-.7 1.4-1.3 3.1-1.6 5 0 .2-.1.4-.2.5-.4 1.1-2.1 1.6-3.4 1.7-1.8 0-3.6-.6-3.6-1.9 0-.4.9-4 4-7.4 1.5-1.7 3.5-3.3 6.2-4.5zM10.3 11.8c2.3-1 5.1-1.6 8.5-1.6 1 0 1.9.1 3 .2.2 0 .4.5.1.9-.1.2-.3.3-.5.4-.4.1-.8.2-1.3.2-3.7.1-6.5 1.1-8.6 3-1.1.9-1.9 2.1-2.6 3.5-.7 1.4-1.3 3.1-1.6 5 0 .2-.1.4-.2.5-.4 1.1-2.1 1.6-3.4 1.7-1.8 0-3.6-.6-3.6-1.8 0-.4.9-4 4-7.4 1.5-1.8 3.5-3.4 6.2-4.6z"/><path class="st78" d="M10.4 11.8c2.3-1 5.1-1.6 8.5-1.6 1 0 1.9.1 3 .2.2 0 .4.5.1.9-.1.1-.3.3-.5.4-.4.1-.8.2-1.3.2-3.7.1-6.5 1.1-8.6 3-1.1.9-1.9 2.1-2.6 3.5-.7 1.4-1.3 3.1-1.6 5 0 .2-.1.4-.2.5-.5 1.1-2.2 1.6-3.5 1.7-1.8 0-3.6-.6-3.6-1.8 0-.3.9-4 4-7.4 1.5-1.8 3.6-3.4 6.3-4.6z"/><path class="st79" d="M10.4 11.8c2.3-1 5.1-1.6 8.5-1.6 1 0 1.9.1 3 .2.2 0 .4.5.1.9-.1.1-.3.3-.5.4-.4.1-.8.2-1.3.2-3.7.1-6.5 1.1-8.6 3-1.1.9-1.9 2.1-2.6 3.5-.7 1.4-1.3 3.1-1.6 5 0 .2-.1.4-.2.5-.5 1.1-2.2 1.6-3.5 1.7-1.8 0-3.6-.6-3.6-1.8 0-.3.9-4 4-7.5 1.5-1.7 3.6-3.3 6.3-4.5zM10.4 11.8c2.3-1 5.1-1.6 8.5-1.6 1 0 1.9.1 3 .2.2 0 .4.5.1.9-.1.1-.3.3-.5.4-.4.1-.8.2-1.3.2-3.7.1-6.5 1.1-8.6 3-1.1.9-1.9 2.1-2.6 3.5-.7 1.4-1.3 3.1-1.6 5 0 .2-.1.4-.2.5-.5 1.1-2.2 1.6-3.5 1.7-1.8 0-3.6-.6-3.6-1.8 0-.3.9-4 4-7.5 1.5-1.7 3.6-3.3 6.3-4.5z"/><path class="st80" d="M10.4 11.8c2.3-1 5.1-1.6 8.5-1.6 1 0 1.9.1 3 .2.2 0 .4.5.1.9-.1.1-.3.3-.5.3-.4.1-.8.2-1.3.2-3.7.1-6.5 1.1-8.6 3-1.1.9-1.9 2.1-2.6 3.5-.7 1.4-1.3 3.1-1.6 5 0 .2-.1.4-.1.5-.6 1.2-2.3 1.7-3.6 1.8-1.8 0-3.6-.6-3.6-1.8 0-.3.9-4 4-7.5 1.5-1.7 3.6-3.3 6.3-4.5zM10.4 11.8c2.3-1 5.1-1.6 8.5-1.6 1 0 1.9.1 3 .2.2 0 .4.5.1.9-.1.1-.3.3-.5.3-.4.1-.8.2-1.3.2-3.7.1-6.5 1.2-8.6 3-1.1.9-1.9 2.1-2.6 3.5-.7 1.4-1.3 3.1-1.6 5 0 .2-.1.4-.1.5-.4 1.1-2.1 1.6-3.4 1.7-1.8 0-3.6-.6-3.6-1.8 0-.3.9-4 4-7.5 1.4-1.6 3.4-3.3 6.1-4.4zM10.4 11.8c2.3-1 5.1-1.6 8.4-1.5 1 0 1.9.1 3 .2.2 0 .4.5.1.9-.1.1-.3.3-.5.3-.4.1-.8.2-1.3.2-3.7.1-6.5 1.2-8.6 3-1.1.9-1.9 2.1-2.6 3.5-.7 1.4-1.3 3.1-1.6 5 0 .2-.1.4-.1.5-.4 1.1-2 1.6-3.4 1.7-1.8 0-3.6-.6-3.6-1.8 0-.3.9-4 4-7.5 1.5-1.7 3.5-3.4 6.2-4.5z"/><path class="st81" d="M10.4 11.8c2.3-1 5.1-1.6 8.4-1.5 1 0 1.9.1 3 .2.2 0 .4.5.1.9-.1.1-.3.3-.5.3-.4.1-.8.2-1.3.2-3.7.1-6.5 1.2-8.6 3-1.1.9-1.9 2.1-2.6 3.5-.7 1.4-1.3 3.1-1.6 5 0 .2-.1.4-.1.5-.4 1.1-2 1.6-3.4 1.7-1.8 0-3.6-.6-3.6-1.8 0-.3.9-4 4-7.5 1.5-1.7 3.5-3.4 6.2-4.5zM10.4 11.8c2.3-1 5.1-1.6 8.4-1.5 1 0 1.9.1 3 .2.2 0 .4.5.1.9-.1.1-.3.3-.6.3-.4.1-.8.2-1.3.2-3.7.1-6.5 1.2-8.6 3-1.1.9-1.9 2.1-2.6 3.5-.7 1.4-1.3 3.1-1.6 5 0 .2-.1.4-.1.5-.4 1.1-2 1.6-3.4 1.7-1.8 0-3.6-.6-3.6-1.8 0-.3.9-4 4-7.5 1.6-1.7 3.6-3.4 6.3-4.5z"/><path class="st82" d="M10.4 11.8c2.3-1 5.1-1.6 8.4-1.5 1 0 1.9.1 3 .2.2 0 .4.5.1.9-.1.1-.3.3-.6.3-.4.1-.8.2-1.3.2-3.7.1-6.5 1.2-8.6 3-1.1.9-1.9 2.1-2.6 3.5-.7 1.4-1.3 3.1-1.6 5 0 .2-.1.4-.1.5-.4 1.1-2 1.6-3.4 1.7-1.8 0-3.6-.6-3.6-1.8 0-.3.9-4.1 4-7.5 1.6-1.7 3.6-3.4 6.3-4.5zM10.5 11.8c2.3-1 5.1-1.6 8.4-1.5 1 0 1.9.1 3 .2.2 0 .4.5 0 .9-.1.1-.3.3-.6.3-.4.1-.8.2-1.3.2-3.7.1-6.5 1.2-8.6 3-1.1.9-1.9 2.1-2.6 3.5-.7 1.4-1.3 3.1-1.6 5 0 .2-.1.4-.1.5-.4 1.1-2 1.6-3.4 1.7-1.8 0-3.6-.6-3.6-1.8 0-.3.9-4.1 4-7.5 1.6-1.7 3.6-3.4 6.4-4.5z"/><path class="st83" d="M10.5 11.8c2.3-1 5.1-1.6 8.4-1.5 1 0 1.9.1 3 .2.2 0 .4.5 0 .9-.1.1-.3.3-.6.3-.4.1-.8.2-1.3.2-3.7.1-6.5 1.2-8.6 3-1.1.9-1.9 2.1-2.6 3.5-.7 1.4-1.3 3.1-1.6 5 0 .2-.1.4-.1.5-.4 1.1-2 1.6-3.4 1.7-1.8 0-3.6-.6-3.6-1.8 0-.3 1-4.1 4-7.5 1.6-1.7 3.6-3.4 6.4-4.5z"/><path class="st84" d="M10.5 11.8c2.3-1 5.1-1.6 8.4-1.5 1 0 1.9.1 3 .2.2 0 .4.6 0 .9-.1.1-.3.3-.6.3-.4.1-.8.2-1.3.2-3.7.1-6.5 1.2-8.5 3-1.1.9-1.9 2.1-2.6 3.5-.7 1.4-1.3 3.1-1.6 4.9 0 .2-.1.4-.1.5-.4 1.1-2 1.6-3.4 1.7-1.8 0-3.6-.6-3.6-1.8 0-.3 1-4.1 4-7.5 1.5-1.6 3.6-3.3 6.3-4.4z"/><path class="st85" d="M10.5 11.8c2.3-1 5-1.6 8.4-1.5 1 0 1.9.1 3 .2.2 0 .4.6 0 .9-.1.1-.3.3-.6.3-.4.1-.8.2-1.3.2-3.7.1-6.5 1.2-8.5 3-1.1.9-1.9 2.1-2.6 3.5-.7 1.4-1.3 3.1-1.6 4.9 0 .2-.1.4-.1.5-.4 1.1-2 1.6-3.4 1.7-1.8 0-3.6-.6-3.6-1.8 0-.3 1-4.1 4-7.5 1.5-1.6 3.6-3.3 6.3-4.4z"/><path class="st86" d="M10.5 11.8c2.3-1 5-1.6 8.4-1.5 1 0 1.9.1 3 .2.2 0 .3.6 0 .9-.1.1-.3.3-.6.3-.4.1-.8.2-1.3.2-3.7.1-6.5 1.2-8.5 3-1.1.9-1.9 2.1-2.6 3.5-.7 1.4-1.3 3.1-1.6 4.9l-.1.6c-.4 1.1-2 1.6-3.4 1.7-1.8 0-3.6-.6-3.6-1.8 0-.3 1-4.1 4-7.5 1.5-1.7 3.6-3.4 6.3-4.5zM10.5 11.8c2.3-1 5-1.6 8.4-1.5 1 0 1.9.1 3 .2.2 0 .3.6 0 .9-.1.1-.3.3-.6.3-.4.1-.8.2-1.3.2-3.7.2-6.5 1.2-8.5 3-1.1.9-1.9 2.1-2.6 3.5-.7 1.4-1.3 3.1-1.6 4.9l-.1.6c-.4 1.1-2 1.7-3.3 1.7-1.8 0-3.6-.6-3.6-1.8 0-.3 1-4.1 4-7.5 1.4-1.7 3.5-3.4 6.2-4.5z"/><path class="st87" d="M10.5 11.8c2.3-1 5-1.6 8.4-1.5 1 0 1.9.1 3 .2.2 0 .3.6 0 .9-.1.1-.3.3-.6.3-.4.1-.8.2-1.3.2-3.7.2-6.5 1.2-8.5 3-1 .9-1.9 2.1-2.6 3.5-.7 1.4-1.3 3.1-1.6 4.9l-.1.6c-.4 1.1-2 1.7-3.3 1.7-1.8 0-3.6-.6-3.6-1.8 0-.3 1-4.1 4-7.5 1.4-1.7 3.5-3.4 6.2-4.5z"/><path class="st88" d="M10.5 11.8c2.3-.9 5-1.6 8.4-1.5 1 0 1.9.1 3 .2.2 0 .3.6 0 .9-.1.1-.3.3-.6.3-.4.1-.8.1-1.3.2-3.7.2-6.5 1.2-8.5 3-1 .9-1.9 2.1-2.6 3.5-.7 1.4-1.3 3.1-1.6 4.9l-.1.6c-.4 1.1-2 1.7-3.3 1.7-1.8 0-3.6-.6-3.6-1.8 0-.3 1-4.1 4-7.5 1.4-1.8 3.5-3.4 6.2-4.5zM10.6 11.8c2.3-.9 5-1.5 8.3-1.5 1 0 1.9.1 2.9.2.2 0 .3.6 0 .9-.1.1-.3.3-.6.3-.4.1-.8.1-1.3.2-3.7.2-6.5 1.2-8.5 3-1 .9-1.9 2.1-2.6 3.5-.7 1.4-1.3 3.1-1.6 4.9l-.1.6c-.3 1.1-2 1.7-3.3 1.7-1.8 0-3.6-.6-3.6-1.8 0-.3 1-4.1 4-7.5 1.5-1.8 3.6-3.4 6.4-4.5z"/><path class="st89" d="M10.6 11.8c2.3-.9 5-1.5 8.3-1.5 1 0 1.9.1 2.9.2.2 0 .3.6 0 .9-.1.1-.3.3-.6.3-.4.1-.8.1-1.3.2-3.7.2-6.5 1.2-8.5 3-1 .9-1.9 2.1-2.6 3.5-.7 1.4-1.3 3.1-1.6 4.9l-.1.6c-.3 1.1-2 1.7-3.3 1.7-1.8 0-3.6-.6-3.6-1.8 0-.3 1-4.1 4-7.5 1.6-1.8 3.6-3.4 6.4-4.5z"/><path class="st90" d="M10.6 11.8c2.3-.9 5-1.5 8.3-1.5 1 0 1.9.1 2.9.2.2 0 .3.6 0 .9-.1.1-.3.3-.6.3-.4.1-.8.1-1.3.2-3.7.2-6.5 1.2-8.5 3-1 .9-1.9 2.1-2.6 3.4-.7 1.4-1.3 3.1-1.6 4.9l-.1.6c-.3 1.1-2 1.7-3.3 1.7-1.8 0-3.6-.6-3.6-1.8 0-.3 1-4.1 4.1-7.5 1.5-1.7 3.5-3.3 6.3-4.4z"/><path class="st91" d="M10.6 11.8c2.3-.9 5-1.5 8.3-1.5 1 0 1.9.1 2.9.2.2 0 .3.6 0 .9-.1.1-.3.3-.6.3-.4.1-.8.1-1.3.2-3.7.2-6.5 1.2-8.5 3-1 .9-1.9 2.1-2.6 3.4-.7 1.4-1.3 3.1-1.6 4.9l-.1.6c-.3 1.1-2 1.7-3.3 1.7-1.8 0-3.6-.6-3.6-1.8 0-.3 1-4.1 4.1-7.5 1.5-1.7 3.5-3.3 6.3-4.4zM10.6 11.7c2.3-.9 5-1.5 8.3-1.5 1 0 1.9.1 2.9.2.2 0 .3.6 0 .9-.1.1-.3.3-.6.3-.4.1-.8.1-1.3.2-3.7.2-6.5 1.2-8.5 3-1 .9-1.9 2.1-2.6 3.4-.7 1.4-1.3 3.1-1.6 4.9l-.1.6c-.3 1.1-1.9 1.7-3.3 1.7-1.8 0-3.6-.6-3.6-1.8 0-.3 1-4.1 4.1-7.5 1.5-1.6 3.6-3.2 6.3-4.4z"/><path class="st92" d="M10.6 11.7c2.3-.9 5-1.5 8.3-1.5 1 0 1.9.1 2.9.2.2 0 .3.6 0 .9-.1.1-.3.2-.6.3-.4.1-.8.1-1.3.2-3.7.2-6.5 1.2-8.5 3-1 .9-1.9 2.1-2.6 3.4-.7 1.4-1.3 3.1-1.6 4.9l-.1.6c-.3 1.1-1.9 1.7-3.3 1.7-1.8 0-3.6-.6-3.6-1.8 0-.3 1-4.1 4.1-7.5 1.5-1.6 3.6-3.2 6.3-4.4z"/><path class="st93" d="M10.6 11.7c2.3-.9 5-1.5 8.3-1.4 1 0 1.9.1 2.9.2.2 0 .3.6 0 .9-.1.1-.3.2-.6.3-.4.1-.8.1-1.3.1-3.7.2-6.5 1.2-8.5 3-1 .9-1.9 2.1-2.6 3.4-.7 1.4-1.3 3.1-1.6 4.9l-.1.6c-.3 1.1-1.9 1.7-3.3 1.7-1.8 0-3.6-.6-3.6-1.8 0-.3 1-4.1 4.1-7.5 1.5-1.6 3.6-3.2 6.3-4.4zM10.6 11.7c2.3-.9 5-1.5 8.3-1.4 1 0 1.9.1 2.9.2.2 0 .3.6 0 .9-.1.1-.3.2-.6.3-.4.1-.8.1-1.3.1-3.7.2-6.4 1.2-8.5 3-1 .9-1.9 2.1-2.6 3.4-.7 1.4-1.3 3.1-1.6 4.9l-.1.6c-.3 1.1-1.9 1.7-3.3 1.7-1.8 0-3.6-.6-3.6-1.8 0-.3 1-4.1 4.1-7.5 1.5-1.6 3.6-3.2 6.3-4.4z"/><path class="st94" d="M10.6 11.7c2.3-.9 5-1.5 8.3-1.4 1 0 1.9.1 2.9.2.2 0 .3.6 0 .9-.1.1-.3.2-.6.3-.4.1-.8.1-1.3.1-3.7.2-6.4 1.2-8.5 3-1 .9-1.9 2.1-2.6 3.4-.7 1.4-1.3 3.1-1.6 4.9l-.1.6c-.3 1.1-1.9 1.7-3.3 1.7-1.8 0-3.6-.6-3.6-1.8 0-.3 1-4.1 4.1-7.5 1.5-1.6 3.6-3.2 6.3-4.4z"/><path class="st95" d="M10.7 11.7c2.3-.9 5-1.5 8.3-1.4 1 0 1.9.1 2.9.2.2 0 .3.6 0 .9-.1.1-.3.2-.6.3-.4.1-.8.1-1.3.1-3.7.2-6.4 1.2-8.5 3-1 .9-1.9 2.1-2.6 3.4-.7 1.4-1.3 3.1-1.6 4.9l-.1.6c-.3 1.1-1.9 1.7-3.3 1.7-1.8 0-3.6-.6-3.6-1.8 0-.3 1-4.1 4.1-7.5 1.4-1.6 3.5-3.2 6.3-4.4z"/><path class="st96" d="M10.7 11.7c2.3-.9 5-1.5 8.3-1.4.9 0 1.9.1 2.9.2.2 0 .3.6 0 .9-.1.1-.3.2-.6.3-.4.1-.9.1-1.3.1-3.7.2-6.4 1.2-8.5 3-1 .9-1.9 2.1-2.6 3.4-.7 1.4-1.3 3.1-1.6 4.9l-.1.6c-.3 1.1-1.9 1.7-3.3 1.7-1.8 0-3.6-.6-3.6-1.8 0-.3 1-4.1 4.1-7.5 1.4-1.6 3.5-3.2 6.3-4.4z"/><path class="st97" d="M10.7 11.7c2.3-.9 5-1.5 8.3-1.4.9 0 1.9.1 2.9.2.2 0 .3.6 0 .9-.1.1-.3.2-.6.3-.4.1-.9.1-1.3.1-3.7.2-6.4 1.2-8.5 3-1 .9-1.9 2.1-2.6 3.4-.7 1.4-1.3 3.1-1.6 4.9l-.1.6c-.3 1.1-1.9 1.7-3.3 1.7-1.8 0-3.6-.6-3.6-1.8 0-.3 1-4.1 4.1-7.5 1.4-1.6 3.5-3.2 6.3-4.4z"/><path class="st98" d="M10.7 11.7c2.3-.9 5-1.5 8.2-1.4.9 0 1.9.1 2.9.2.2 0 .3.6 0 .9-.1.1-.3.2-.6.3-.4.1-.9.1-1.3.1-3.7.2-6.4 1.2-8.5 3-1 .9-1.9 2.1-2.6 3.4-.7 1.4-1.3 3.1-1.6 4.9l-.1.6c-.3 1.1-1.9 1.7-3.3 1.7-1.8 0-3.6-.6-3.6-1.8 0-.3 1-4.1 4.1-7.5 1.5-1.6 3.6-3.2 6.4-4.4z"/><path class="st99" d="M10.7 11.7c2.3-.9 5-1.5 8.2-1.4.9 0 1.9.1 2.9.2.2 0 .3.6 0 .9-.1.1-.3.2-.6.3-.4.1-.9.1-1.3.1-3.7.2-6.4 1.2-8.5 3-1 .9-1.9 2.1-2.6 3.4-.7 1.4-1.3 3.1-1.6 4.9l-.1.6c-.3 1.1-1.9 1.7-3.3 1.7-1.8 0-3.6-.6-3.6-1.8 0-.3 1-4.1 4.1-7.5 1.5-1.6 3.6-3.3 6.4-4.4z"/><path class="st100" d="M10.7 11.7c2.3-.9 5-1.5 8.2-1.4.9 0 1.9.1 2.9.2.2 0 .3.6 0 .9-.1.1-.3.2-.6.3-.4.1-.9.1-1.3.1-3.7.2-6.4 1.2-8.5 3-1 .9-1.9 2.1-2.6 3.4-.7 1.4-1.3 3.1-1.6 4.9l-.1.6c-.3 1.1-1.9 1.7-3.3 1.7-1.8 0-3.6-.6-3.6-1.8 0-.3 1-4.1 4.1-7.5 1.6-1.6 3.6-3.3 6.4-4.4z"/><path class="st101" d="M10.7 11.7c2.3-.9 5-1.5 8.2-1.4.9 0 1.9.1 2.9.2.2 0 .3.6 0 .9-.1.1-.3.2-.6.3-.4.1-.9.1-1.3.1-3.7.2-6.4 1.2-8.5 3-1 .9-1.9 2.1-2.6 3.4-.7 1.4-1.3 3.1-1.6 4.9l-.1.6c-.3 1.1-1.9 1.7-3.3 1.7-1.8 0-3.6-.6-3.6-1.8 0-.3 1-4.1 4.1-7.5 1.6-1.6 3.7-3.3 6.4-4.4zM10.7 11.7c2.3-.9 5-1.5 8.2-1.4.9 0 1.9.1 2.9.2.2 0 .3.6-.1.9-.1.1-.3.2-.6.3-.4.1-.9.1-1.3.1-3.7.2-6.4 1.2-8.5 3.1-1 .9-1.9 2.1-2.6 3.4-.7 1.4-1.3 3.1-1.6 4.9l-.1.6c-.3 1.1-1.9 1.7-3.3 1.7-1.8 0-3.6-.6-3.6-1.8 0-.3 1-4.1 4.1-7.5 1.7-1.7 3.8-3.4 6.5-4.5zM10.8 11.7c2.3-.9 5-1.5 8.2-1.4.9 0 1.9.1 2.9.2.2 0 .3.6-.1.9-.1.1-.3.2-.6.3-.4.1-.9.1-1.3.1-3.7.2-6.4 1.2-8.5 3.1-1 .9-1.9 2.1-2.6 3.4-.7 1.4-1.3 3.1-1.6 4.9l-.1.6c-.3 1.1-1.9 1.7-3.3 1.7-1.8 0-3.6-.6-3.6-1.8 0-.3 1-4.1 4.1-7.5 1.6-1.7 3.7-3.4 6.5-4.5z"/><path class="st102" d="M10.8 11.7c2.3-.9 5-1.5 8.2-1.4.9 0 1.9.1 2.9.2.2 0 .3.6-.1.9-.1.1-.3.2-.6.3l-1.3.1c-3.7.2-6.4 1.2-8.5 3.1-1 .9-1.9 2.1-2.6 3.4-.7 1.4-1.3 3.1-1.6 4.9l-.1.6c-.3 1.2-1.9 1.7-3.3 1.7-1.8 0-3.6-.6-3.6-1.8 0-.3 1-4.1 4.1-7.5 1.6-1.7 3.7-3.4 6.5-4.5zM10.8 11.7c2.3-.9 5-1.5 8.2-1.4.9 0 1.9.1 2.9.2.2 0 .3.6-.1.9-.1.1-.3.2-.6.3l-1.3.1c-3.6.2-6.4 1.2-8.5 3.1-1 .9-1.9 2.1-2.6 3.4-.7 1.4-1.3 3.1-1.6 4.9l-.1.6c-.3 1.2-1.9 1.7-3.3 1.7-1.8 0-3.5-.6-3.5-1.8 0-.3 1-4.1 4.1-7.5 1.5-1.7 3.6-3.4 6.4-4.5z"/><path class="st103" d="M10.8 11.7c2.3-.9 5-1.5 8.2-1.4.9 0 1.9.1 2.9.2.2 0 .3.6-.1.9-.1.1-.3.2-.6.3l-1.3.1c-3.6.2-6.4 1.2-8.4 3.1-1 .9-1.9 2.1-2.6 3.4-.7 1.4-1.3 3.1-1.6 4.9l-.1.6c-.3 1.2-1.9 1.7-3.3 1.7-1.8 0-3.5-.6-3.5-1.8 0-.3 1-4.1 4.1-7.5 1.4-1.7 3.5-3.4 6.3-4.5zM10.8 11.7c2.2-.9 4.9-1.4 8.2-1.4.9 0 1.9.1 2.9.2.2 0 .3.6-.1.9-.1.1-.3.2-.6.3l-1.3.1c-3.6.2-6.4 1.2-8.4 3.1-1 .9-1.9 2.1-2.6 3.4-.7 1.4-1.3 3.1-1.6 4.9l-.1.6c-.3 1.2-1.8 1.7-3.3 1.7-1.9.1-3.7-.5-3.7-1.8 0-.3 1-4.1 4.1-7.5 1.6-1.7 3.7-3.4 6.5-4.5zM10.8 11.7c2.2-.9 4.9-1.4 8.2-1.4.9 0 1.9.1 2.9.2.2 0 .3.6-.1.9-.1.1-.3.2-.6.2l-1.3.1c-3.6.2-6.4 1.2-8.4 3.1-1 .9-1.9 2.1-2.6 3.4-.7 1.4-1.3 3.1-1.6 4.9l-.1.6c-.3 1.2-1.8 1.7-3.3 1.7-1.9.2-3.7-.4-3.7-1.7 0-.3 1-4.1 4.1-7.6 1.6-1.6 3.7-3.3 6.5-4.4z"/><path class="st104" d="M10.8 11.7c2.2-.9 4.9-1.4 8.2-1.4.9 0 1.9.1 2.9.2.2 0 .3.6-.1.9-.1.1-.3.2-.6.2l-1.3.1c-3.6.2-6.4 1.2-8.4 3.1-1 .9-1.9 2.1-2.6 3.4-.7 1.4-1.3 3.1-1.6 4.9l-.1.6c-.3 1.2-1.8 1.7-3.3 1.7-1.9.2-3.7-.4-3.7-1.7 0-.3 1-4.1 4.1-7.6 1.6-1.6 3.7-3.3 6.5-4.4zM10.8 11.7c2.2-.9 4.9-1.4 8.2-1.4.9 0 1.9.1 2.9.2.2 0 .3.6-.1.9-.1.1-.3.2-.6.2l-1.3.1c-3.6.2-6.4 1.2-8.4 3.1-1 .9-1.9 2.1-2.6 3.4-.7 1.4-1.3 3.1-1.6 4.9l-.1.6c-.3 1.2-1.8 1.7-3.3 1.7-1.9.2-3.7-.4-3.7-1.7 0-.3 1-4.1 4.1-7.6 1.6-1.6 3.7-3.3 6.5-4.4zM10.8 11.7c2.2-.9 4.9-1.4 8.1-1.3.9 0 1.9.1 2.9.2.2 0 .3.6-.1.9-.1.1-.3.2-.6.2l-1.3.1c-3.6.2-6.4 1.2-8.4 3.1-1 .9-1.9 2.1-2.6 3.4-.7 1.4-1.3 3.1-1.6 4.9l-.1.6c-.3 1.2-1.8 1.7-3.3 1.8-1.8 0-3.6-.6-3.6-1.9 0-.3 1-4.1 4.1-7.6 1.6-1.7 3.7-3.3 6.5-4.4z"/><path class="st105" d="M10.9 11.7c2.2-.9 4.9-1.4 8.1-1.3.9 0 1.9.1 2.9.2.2 0 .3.6-.1.9-.1.1-.3.2-.6.2l-1.3.1c-3.6.2-6.4 1.2-8.4 3.1-1 .9-1.9 2.1-2.6 3.4-.7 1.4-1.3 3.1-1.6 4.9l-.1.6c-.3 1.2-1.8 1.7-3.3 1.8-1.9 0-3.7-.6-3.7-1.9 0-.3 1-4.1 4.2-7.6 1.5-1.7 3.7-3.3 6.5-4.4z"/><path class="st106" d="M10.9 11.7c2.2-.9 4.9-1.4 8.1-1.3.9 0 1.9.1 2.9.2.2 0 .3.6-.1.9-.1.1-.3.2-.6.2l-1.3.1c-3.6.2-6.4 1.2-8.4 3.1-1 .9-1.9 2.1-2.6 3.4-.7 1.4-1.3 3.1-1.6 4.9l-.1.6c-.3 1.2-1.8 1.7-3.3 1.8-1.9 0-3.7-.6-3.7-1.9 0-.3 1-4.1 4.2-7.6 1.6-1.7 3.7-3.3 6.5-4.4z"/><path class="st107" d="M10.9 11.7c2.2-.9 4.9-1.4 8.1-1.3.9 0 1.9.1 2.9.2.2 0 .3.6-.1.9-.1.1-.3.2-.6.2l-1.3.1c-3.6.2-6.4 1.2-8.4 3.1-1 .9-1.9 2.1-2.6 3.4-.7 1.4-1.3 3.1-1.6 4.9l-.1.6c-.3 1.2-1.8 1.7-3.3 1.8-1.9 0-3.7-.6-3.7-1.9 0-.3 1-4.1 4.2-7.6 1.6-1.7 3.7-3.3 6.5-4.4z"/><path class="st108" d="M10.9 11.7c2.2-.9 4.9-1.4 8.1-1.3.9 0 1.9.1 2.9.2.2 0 .3.6-.1.9-.1.1-.4.2-.6.2l-1.3.1c-3.6.2-6.4 1.2-8.4 3.1-1 .9-1.9 2.1-2.6 3.4-.7 1.4-1.3 3.1-1.6 4.9l-.1.6c-.3 1.2-1.8 1.7-3.3 1.8-1.9 0-3.7-.6-3.7-1.9 0-.3 1-4.1 4.2-7.6 1.6-1.7 3.7-3.3 6.5-4.4z"/><path class="st109" d="M10.9 11.7c2.2-.9 4.9-1.4 8.1-1.3.9 0 1.9.1 2.9.2.2 0 .3.6-.1.9-.1.1-.4.2-.6.2l-1.3.1c-3.6.2-6.4 1.2-8.4 3.1-1 .9-1.9 2.1-2.6 3.4-.7 1.4-1.3 3.1-1.6 4.9l-.1.6c-.3 1.2-1.8 1.7-3.3 1.8-1.9 0-3.7-.6-3.7-1.9 0-.3 1-4.1 4.2-7.6 1.6-1.7 3.7-3.3 6.5-4.4z"/><path class="st110" d="M10.9 11.7c2.2-.9 4.9-1.4 8.1-1.3.9 0 1.9.1 2.9.2.2 0 .3.6-.1.9-.1.1-.4.2-.6.2l-1.3.1c-3.6.2-6.4 1.2-8.4 3.1-1 .9-1.9 2.1-2.6 3.4-.7 1.4-1.3 3.1-1.6 4.9l-.1.6c-.3 1.2-1.8 1.7-3.2 1.8-2 0-3.8-.6-3.8-1.9 0-.3 1-4.1 4.2-7.6 1.6-1.7 3.7-3.3 6.5-4.4z"/><path class="st111" d="M10.9 11.7c2.2-.9 4.9-1.4 8.1-1.3.9 0 1.9.1 2.9.2.2 0 .3.6-.1.9-.1.1-.4.2-.7.2l-1.3.1c-3.6.2-6.4 1.2-8.4 3.1-1 .9-1.9 2.1-2.6 3.4-.7 1.4-1.3 3.1-1.6 4.9l-.1.6c-.3 1.2-1.8 1.7-3.2 1.8-1.9 0-3.7-.6-3.7-1.9 0-.3 1-4.1 4.2-7.6 1.6-1.7 3.7-3.3 6.5-4.4z"/><path class="st112" d="M10.9 11.7c2.2-.9 4.9-1.4 8.1-1.3.9 0 1.9.1 2.9.2.2 0 .3.6-.1.9-.1.1-.4.2-.7.2l-1.3.1c-3.6.2-6.4 1.3-8.4 3.1-1 .9-1.9 2.1-2.6 3.4-.7 1.4-1.3 3.1-1.6 4.9l-.1.6c-.3 1.2-1.8 1.7-3.2 1.8-1.9 0-3.7-.6-3.7-1.9 0-.3 1-4.1 4.2-7.6 1.6-1.7 3.7-3.3 6.5-4.4z"/><path class="st113" d="M11 11.7c2.2-.9 4.9-1.4 8.1-1.3.9 0 1.9.1 2.8.2.2 0 .3.6-.1.9-.1.1-.4.2-.7.2-.4 0-.9 0-1.3.1-3.6.2-6.4 1.3-8.4 3.1-1 .9-1.9 2.1-2.6 3.4-.7 1.4-1.3 3.1-1.6 4.9l-.1.6c-.3 1.2-1.8 1.7-3.2 1.8-1.9 0-3.7-.6-3.7-1.9 0-.3 1-4.1 4.2-7.6 1.6-1.7 3.7-3.3 6.6-4.4zM11 11.7c2.2-.9 4.9-1.4 8.1-1.3.9 0 1.8.1 2.8.2.2 0 .3.6-.1.9-.1.1-.4.2-.7.2-.4 0-.9 0-1.3.1-3.6.2-6.4 1.3-8.4 3.1-1 .9-1.9 2.1-2.6 3.4-.7 1.4-1.3 3.1-1.6 4.9l-.1.6c-.3 1.2-1.8 1.7-3.2 1.8-1.9 0-3.7-.6-3.7-1.9 0-.3 1-4.1 4.2-7.6 1.6-1.7 3.7-3.3 6.6-4.4z"/><path class="st114" d="M11 11.7c2.2-.9 4.9-1.4 8.1-1.3.9 0 1.8.1 2.8.2.2 0 .3.6-.1.9-.1.1-.4.2-.7.2-.4 0-.9 0-1.3.1-3.6.2-6.4 1.3-8.4 3.1-1 .9-1.9 2.1-2.6 3.4-.7 1.4-1.3 3.1-1.7 4.9l-.1.6c-.3 1.2-1.8 1.7-3.2 1.8-1.8 0-3.6-.6-3.6-1.9 0-.3 1-4.1 4.2-7.6 1.6-1.7 3.8-3.3 6.6-4.4z"/><path class="st115" d="M11 11.7c2.2-.9 4.9-1.4 8-1.3.9 0 1.8.1 2.8.2.2 0 .3.6-.1.9-.1.1-.4.2-.7.2-.4 0-.9 0-1.3.1-3.6.2-6.4 1.3-8.4 3.1-1 .9-1.9 2.1-2.6 3.4-.7 1.4-1.3 3.1-1.7 4.9l-.1.6c-.2 1.2-1.7 1.7-3.2 1.8-1.7 0-3.5-.6-3.5-1.9 0-.3 1-4.1 4.2-7.6 1.6-1.7 3.8-3.4 6.6-4.4z"/><path class="st116" d="M11 11.7c2.2-.9 4.9-1.4 8-1.3.9 0 1.8.1 2.8.2.2 0 .3.6-.1.9-.1.1-.4.2-.7.2-.4 0-.9 0-1.3.1-3.6.2-6.4 1.3-8.4 3.1-1 .9-1.9 2.1-2.6 3.4-.7 1.4-1.3 3.1-1.7 4.9l-.1.6c-.2 1.2-1.7 1.7-3.2 1.8-1.7 0-3.5-.6-3.5-1.9 0-.3 1-4.1 4.2-7.6 1.6-1.7 3.8-3.4 6.6-4.4z"/><path class="st117" d="M11 11.7c2.2-.9 4.9-1.4 8-1.3.9 0 1.8.1 2.8.2.2 0 .3.6-.1.9-.2.1-.4.2-.7.2-.4 0-.9 0-1.3.1-3.6.2-6.4 1.3-8.4 3.1-1 .9-1.9 2.1-2.6 3.4-.7 1.4-1.3 3-1.7 4.9l-.1.6c-.2 1.2-1.7 1.7-3.2 1.8-1.8.1-3.5-.6-3.5-1.8 0-.3 1-4.1 4.2-7.6 1.6-1.8 3.8-3.5 6.6-4.5z"/><path class="st118" d="M11 11.7c2.2-.9 4.9-1.4 8-1.3.9 0 1.8.1 2.8.2.2 0 .3.6-.2.9-.2.1-.4.2-.7.2-.4 0-.9 0-1.3.1-3.6.2-6.4 1.3-8.4 3.1-1 .9-1.9 2.1-2.6 3.4-.7 1.4-1.3 3-1.7 4.9l-.1.6c-.2 1.2-1.7 1.7-3.2 1.8-1.7.1-3.5-.6-3.5-1.8 0-.3 1-4.1 4.2-7.6 1.7-1.8 3.9-3.5 6.7-4.5z"/><path class="st119" d="M11 11.7c2.2-.9 4.9-1.4 8-1.3.9 0 1.8.1 2.8.2.2 0 .3.6-.2.9-.2.1-.4.2-.7.2-.5 0-.9 0-1.3.1-3.6.2-6.3 1.3-8.4 3.1-1 .9-1.9 2.1-2.6 3.4-.7 1.4-1.3 3-1.7 4.9l-.1.6c-.2 1.2-1.7 1.7-3.2 1.8-1.7.1-3.5-.6-3.5-1.8 0-.3 1-4.1 4.2-7.6 1.8-1.8 3.9-3.5 6.7-4.5z"/><path class="st120" d="M11 11.6c2.2-.8 4.9-1.3 8-1.3.9 0 1.8.1 2.8.2.2 0 .3.6-.2.9-.2.1-.4.2-.7.2-.5 0-.9 0-1.3.1-3.6.2-6.3 1.3-8.4 3.1-1 .9-1.9 2.1-2.6 3.4-.7 1.4-1.3 3-1.7 4.9l-.1.6c-.2 1.2-1.7 1.7-3.2 1.8-1.7.1-3.5-.6-3.5-1.8 0-.3 1-4.1 4.2-7.6 1.8-1.7 3.9-3.4 6.7-4.5z"/><path class="st121" d="M11.1 11.6c2.2-.8 4.9-1.3 8-1.3.9 0 1.8.1 2.8.2.2 0 .3.6-.2.9-.2.1-.4.2-.7.2h-1.3c-3.6.2-6.3 1.3-8.4 3.1-1 .9-1.9 2.1-2.6 3.4-.7 1.4-1.3 3-1.7 4.9l-.1.6c-.2 1.2-1.7 1.7-3.2 1.8-1.7.1-3.5-.6-3.5-1.8 0-.3 1-4.1 4.2-7.6 1.7-1.6 3.8-3.3 6.7-4.4zM11.1 11.6c2.2-.8 4.9-1.3 8-1.2.9 0 1.8.1 2.8.2.2 0 .3.6-.2.9-.2.1-.4.2-.7.2h-1.3c-3.6.2-6.3 1.3-8.4 3.1-1 .9-1.9 2.1-2.6 3.4-.7 1.4-1.3 3-1.7 4.9l-.1.6c-.2 1.2-1.7 1.7-3.2 1.8-1.7.1-3.5-.6-3.5-1.8 0-.3 1-4.1 4.2-7.6 1.7-1.7 3.8-3.4 6.7-4.5z"/><path class="st122" d="M11.1 11.6c2.2-.8 4.9-1.3 8-1.2.9 0 1.8.1 2.8.2.2 0 .3.6-.2.9-.2.1-.4.2-.7.2h-1.3c-3.6.2-6.3 1.3-8.4 3.1-1 .9-1.9 2.1-2.6 3.4-.7 1.4-1.3 3-1.7 4.9l-.1.6c-.2 1.2-1.7 1.7-3.2 1.8-1.7.1-3.5-.6-3.5-1.8 0-.3 1-4.1 4.2-7.6 1.7-1.7 3.8-3.4 6.7-4.5z"/><path class="st123" d="M11.1 11.6c2.2-.8 4.9-1.3 8-1.2.9 0 1.8.1 2.8.2.2 0 .3.6-.2.9-.2.1-.4.2-.7.2h-1.3c-3.6.2-6.3 1.3-8.4 3.1-1 .9-1.9 2.1-2.6 3.4-.7 1.4-1.3 3-1.7 4.9l-.1.6c-.2 1.2-1.7 1.7-3.2 1.8-1.7.1-3.5-.6-3.5-1.8 0-.3 1-4.1 4.2-7.6 1.7-1.7 3.8-3.4 6.7-4.5zM21.9 10.6c-4.4-.6-7.9-.1-10.8 1s-5 2.7-6.6 4.5c-3.2 3.5-4.2 7.3-4.2 7.6 0 2.3 6.3 2.5 6.7 0 .7-3.8 2.1-6.8 4.3-8.8s5.4-3.1 9.7-3.1c1.2-.1 1.1-1.1.9-1.2z"/><linearGradient id="SVGID_1_" gradientUnits="userSpaceOnUse" x1=".183" y1="8.921" x2="18.877" y2="17.638"><stop offset="0" stop-color="#54C2F0"/><stop offset=".025" stop-color="#49B9EB"/><stop offset=".124" stop-color="#219ADA"/><stop offset=".202" stop-color="#0987CF"/><stop offset=".25" stop-color="#0080CB"/><stop offset=".4" stop-color="#0068B6"/><stop offset=".64" stop-color="#005BAB"/><stop offset="1" stop-color="#004DA0"/></linearGradient><path class="st124" d="M12.2 0c-5.1 0-12.2 3.1-12.2 12.9v10.8c0 2.5 7 2.5 7 0v-11.2c0-4.6 2.9-8.1 7-8.2 3.2-.1 5.8 1.6 5.8 6.2 0 1.2 2.3 1.2 2.3 0 0-7.8-4.4-10.5-9.9-10.5z"/></svg>
